<svg width="25" height="24" viewBox="0 0 25 24" fill="none" xmlns="http://www.w3.org/2000/svg">
<g clip-path="url(#clip0_85_1980)">
<path d="M14.4474 0H5.03345C3.37945 0 2.03345 1.346 2.03345 3V24H22.0334V7.586L14.4474 0ZM15.0334 3.414L18.6194 7H15.0334V3.414ZM20.0334 22H4.03345V3C4.03345 2.449 4.48145 2 5.03345 2H13.0334V9H20.0334V22ZM13.0334 17.007L15.3244 14.705L16.7384 16.119L13.4394 19.418C13.0514 19.806 12.5424 19.999 12.0334 19.999C11.5244 19.999 11.0144 19.806 10.6274 19.418L7.32845 16.119L8.74245 14.705L11.0334 16.996V10.999H13.0334V17.007Z" fill="white"/>
</g>
<defs>
<clipPath id="clip0_85_1980">
<rect width="24" height="24" fill="white" transform="translate(0.0334473)"/>
</clipPath>
</defs>
</svg>
