<svg width="1000" height="507" viewBox="0 0 1000 507" fill="none" xmlns="http://www.w3.org/2000/svg">
<path d="M678.206 257.973L145.966 257.973" stroke="#444444" stroke-linecap="round" stroke-dasharray="4 4"/>
<path d="M734.5 149L679.593 256.972L854 180" stroke="#444444" stroke-linecap="round" stroke-dasharray="4 4"/>
<path d="M741.101 361.961L679.593 257.972L850 325.5" stroke="#444444" stroke-linecap="round" stroke-dasharray="4 4"/>
<path d="M74.01 329.964V430.952H299.041V329.964" stroke="black" stroke-linecap="round" stroke-dasharray="4 4"/>
<g clip-path="url(#clip0_85_358)">
<path d="M75.3078 332.034C116.347 332.034 149.616 298.764 149.616 257.723C149.616 216.682 116.347 183.412 75.3078 183.412C34.2687 183.412 1 216.682 1 257.723C1 298.764 34.2687 332.034 75.3078 332.034Z" fill="white" stroke="#444444" stroke-width="0.862234" stroke-linecap="round" stroke-linejoin="round"/>
<g clip-path="url(#clip1_85_358)">
<path fill-rule="evenodd" clip-rule="evenodd" d="M98.5953 270H52.4782C51.6621 270 51 269.338 51 268.522V258.076C51 252.967 54.831 249.025 61.252 247.528L69.1604 245.683C69.955 245.499 70.7526 245.991 70.9374 246.786C71.1221 247.58 70.6263 248.375 69.8318 248.563L61.9234 250.407C59.5274 250.965 53.9564 252.831 53.9564 258.076V267.043H97.1171V258.076C97.1171 252.831 91.5492 250.965 89.1532 250.407L81.2417 248.563C80.4472 248.378 79.9514 247.583 80.1392 246.789C80.324 245.994 81.1185 245.499 81.9131 245.686L89.8246 247.531C96.2425 249.028 100.074 252.973 100.074 258.079V268.525C100.074 269.341 99.4145 270.003 98.5953 270.003V270Z" fill="#9F9F9F"/>
<path fill-rule="evenodd" clip-rule="evenodd" d="M69.496 248.603C68.6799 248.603 68.0178 247.941 68.0178 247.124V243.118C68.0178 242.302 68.6799 241.64 69.496 241.64C70.3121 241.64 70.9742 242.302 70.9742 243.118V247.121C70.9742 247.937 70.3121 248.6 69.496 248.6V248.603Z" fill="#9F9F9F"/>
<path fill-rule="evenodd" clip-rule="evenodd" d="M81.5773 248.603C80.7612 248.603 80.0991 247.941 80.0991 247.124V243.118C80.0991 242.302 80.7612 241.64 81.5773 241.64C82.3934 241.64 83.0555 242.302 83.0555 243.118V247.121C83.0555 247.937 82.3934 248.6 81.5773 248.6V248.603Z" fill="#9F9F9F"/>
<path fill-rule="evenodd" clip-rule="evenodd" d="M75.5382 246.962C69.7916 246.962 65.1199 242.287 65.1199 236.544V230.446C65.1199 229.63 65.782 228.968 66.5981 228.968C67.4142 228.968 68.0763 229.63 68.0763 230.446V236.544C68.0763 240.658 71.4238 244.005 75.5382 244.005C79.6525 244.005 83.0001 240.658 83.0001 236.544V230.446C83.0001 229.63 83.6622 228.968 84.4783 228.968C85.2944 228.968 85.9565 229.63 85.9565 230.446V236.544C85.9565 242.287 81.2816 246.962 75.5382 246.962Z" fill="#9F9F9F"/>
<path fill-rule="evenodd" clip-rule="evenodd" d="M84.6724 234.877H84.4784C83.6623 234.877 83.0002 234.215 83.0002 233.399C83.0002 232.583 83.6623 231.921 84.4784 231.921H84.6724C85.4454 231.921 86.0767 231.292 86.0767 230.519V230.027C86.0859 228.472 86.0952 226.534 85.3068 225.743C85.1867 225.62 84.8171 225.25 83.7177 225.25C82.9016 225.25 82.2395 224.588 82.2395 223.772V223.381C82.2395 221.841 78.8211 219.96 74.83 219.96C72.1815 219.96 69.7979 220.769 68.1195 222.245C66.05 224.058 64.9999 226.839 64.9999 230.507C64.9999 231.289 65.6374 231.927 66.4196 231.927H66.5982C67.4143 231.927 68.0764 232.589 68.0764 233.405C68.0764 234.221 67.4143 234.883 66.5982 234.883H66.4196C64.0052 234.883 62.0435 232.922 62.0435 230.507C62.0435 226.014 63.4693 222.389 66.1701 220.024C68.3874 218.072 71.464 217 74.83 217C79.4032 217 84.3059 219.051 85.0881 222.429C86.012 222.626 86.7881 223.036 87.404 223.655C89.0578 225.318 89.0454 227.936 89.0331 230.039V230.516C89.0331 232.922 87.0776 234.877 84.6724 234.874V234.877Z" fill="#9F9F9F"/>
<path fill-rule="evenodd" clip-rule="evenodd" d="M84.4783 231.923C84.4167 231.923 84.3551 231.92 84.2904 231.911C80.4964 231.428 79.3569 230.365 78.3099 228.69C75.3996 230.559 70.0842 231.492 66.7829 231.911C65.9699 232.016 65.2338 231.44 65.1322 230.63C65.0275 229.82 65.6003 229.081 66.4103 228.976C72.6649 228.182 76.6869 226.673 77.4291 225.592C77.7062 225.191 78.162 224.951 78.6486 224.951C79.1352 224.951 79.591 225.191 79.8651 225.592C80.1576 226.014 80.3855 226.402 80.5857 226.74C81.3617 228.052 81.682 228.594 84.6631 228.973C85.473 229.075 86.0458 229.817 85.9442 230.627C85.8487 231.372 85.2143 231.92 84.4783 231.92V231.923Z" fill="#9F9F9F"/>
<path fill-rule="evenodd" clip-rule="evenodd" d="M68.6185 248.313C67.9625 247.83 67.8239 246.903 68.3074 246.247C68.794 245.591 69.7179 245.452 70.3769 245.936L76.416 250.401C76.7733 250.666 76.995 251.079 77.0135 251.525C77.035 251.972 76.8533 252.4 76.5177 252.696L71.5133 257.139C71.2423 257.38 70.8912 257.512 70.5309 257.512C70.4878 257.512 70.4478 257.512 70.4046 257.506C69.9981 257.472 69.6255 257.272 69.373 256.952L63.2446 249.231C62.7364 248.59 62.8442 247.663 63.4817 247.155C64.1223 246.647 65.0523 246.755 65.5604 247.392L70.7188 253.89L73.1917 251.695" fill="#9F9F9F"/>
<path fill-rule="evenodd" clip-rule="evenodd" d="M80.5427 257.512C80.1824 257.512 79.8344 257.38 79.5634 257.139L74.5559 252.696C74.2233 252.4 74.0416 251.969 74.0601 251.525C74.0817 251.079 74.3003 250.666 74.6576 250.404L80.6998 245.939C81.3557 245.452 82.2827 245.591 82.7662 246.25C83.2527 246.906 83.1142 247.833 82.4582 248.316L77.8819 251.698L80.3579 253.894L85.5163 247.396C86.0213 246.755 86.9513 246.65 87.5919 247.158C88.2325 247.667 88.3372 248.597 87.829 249.234L81.7006 256.955C81.4481 257.272 81.0755 257.472 80.672 257.509C80.6289 257.512 80.5858 257.515 80.5427 257.515V257.512Z" fill="#9F9F9F"/>
<path fill-rule="evenodd" clip-rule="evenodd" d="M78.1837 260.463H72.896C72.2 260.463 71.5995 259.979 71.4516 259.302L70.5278 255.074C70.3522 254.276 70.8573 253.488 71.6549 253.315C72.4494 253.14 73.2409 253.645 73.4164 254.442L74.0847 257.506H76.9949L77.6663 254.442C77.8387 253.645 78.6271 253.14 79.4247 253.315C80.2224 253.488 80.7274 254.279 80.555 255.077L79.628 259.302C79.4802 259.979 78.8796 260.463 78.1837 260.463Z" fill="#9F9F9F"/>
<path fill-rule="evenodd" clip-rule="evenodd" d="M71.3376 270C71.2606 270 71.1806 269.994 71.1005 269.982C70.2936 269.849 69.7455 269.092 69.8779 268.285L71.4331 258.747C71.5655 257.94 72.3231 257.395 73.1299 257.528C73.9368 257.66 74.4819 258.418 74.3526 259.225L72.7974 268.762C72.6772 269.489 72.0521 270.003 71.3376 270.003V270ZM79.7357 270C79.0243 270 78.3961 269.486 78.279 268.759L76.7238 259.221C76.5914 258.415 77.1396 257.657 77.9434 257.525C78.7502 257.392 79.5109 257.94 79.6402 258.747L81.1954 268.285C81.3279 269.092 80.7797 269.849 79.9759 269.982C79.8958 269.994 79.8158 270 79.7357 270Z" fill="#9F9F9F"/>
</g>
<path d="M52.6381 290.4C52.6381 289.301 52.8835 288.32 53.3741 287.456C53.8755 286.581 54.5528 285.904 55.4061 285.424C56.2701 284.933 57.2355 284.688 58.3021 284.688C59.5501 284.688 60.6435 285.008 61.5821 285.648C62.5208 286.288 63.1768 287.173 63.5501 288.304H60.9741C60.7181 287.771 60.3555 287.371 59.8861 287.104C59.4275 286.837 58.8941 286.704 58.2861 286.704C57.6355 286.704 57.0541 286.859 56.5421 287.168C56.0408 287.467 55.6461 287.893 55.3581 288.448C55.0808 289.003 54.9421 289.653 54.9421 290.4C54.9421 291.136 55.0808 291.787 55.3581 292.352C55.6461 292.907 56.0408 293.339 56.5421 293.648C57.0541 293.947 57.6355 294.096 58.2861 294.096C58.8941 294.096 59.4275 293.963 59.8861 293.696C60.3555 293.419 60.7181 293.013 60.9741 292.48H63.5501C63.1768 293.621 62.5208 294.512 61.5821 295.152C60.6541 295.781 59.5608 296.096 58.3021 296.096C57.2355 296.096 56.2701 295.856 55.4061 295.376C54.5528 294.885 53.8755 294.208 53.3741 293.344C52.8835 292.48 52.6381 291.499 52.6381 290.4ZM67.7034 284.16V296H65.4634V284.16H67.7034ZM71.0525 286.08C70.6578 286.08 70.3272 285.957 70.0605 285.712C69.8045 285.456 69.6765 285.141 69.6765 284.768C69.6765 284.395 69.8045 284.085 70.0605 283.84C70.3272 283.584 70.6578 283.456 71.0525 283.456C71.4472 283.456 71.7725 283.584 72.0285 283.84C72.2952 284.085 72.4285 284.395 72.4285 284.768C72.4285 285.141 72.2952 285.456 72.0285 285.712C71.7725 285.957 71.4472 286.08 71.0525 286.08ZM72.1565 287.136V296H69.9165V287.136H72.1565ZM82.6096 291.376C82.6096 291.696 82.5883 291.984 82.5456 292.24H76.0656C76.119 292.88 76.343 293.381 76.7376 293.744C77.1323 294.107 77.6176 294.288 78.1936 294.288C79.0256 294.288 79.6176 293.931 79.9696 293.216H82.3856C82.1296 294.069 81.639 294.773 80.9136 295.328C80.1883 295.872 79.2976 296.144 78.2416 296.144C77.3883 296.144 76.6203 295.957 75.9376 295.584C75.2656 295.2 74.7376 294.661 74.3536 293.968C73.9803 293.275 73.7936 292.475 73.7936 291.568C73.7936 290.651 73.9803 289.845 74.3536 289.152C74.727 288.459 75.2496 287.925 75.9216 287.552C76.5936 287.179 77.367 286.992 78.2416 286.992C79.0843 286.992 79.8363 287.173 80.4976 287.536C81.1696 287.899 81.687 288.416 82.0496 289.088C82.423 289.749 82.6096 290.512 82.6096 291.376ZM80.2896 290.736C80.279 290.16 80.071 289.701 79.6656 289.36C79.2603 289.008 78.7643 288.832 78.1776 288.832C77.623 288.832 77.1536 289.003 76.7696 289.344C76.3963 289.675 76.167 290.139 76.0816 290.736H80.2896ZM89.1566 287.008C90.2126 287.008 91.066 287.344 91.7166 288.016C92.3673 288.677 92.6926 289.605 92.6926 290.8V296H90.4526V291.104C90.4526 290.4 90.2766 289.861 89.9246 289.488C89.5726 289.104 89.0926 288.912 88.4846 288.912C87.866 288.912 87.3753 289.104 87.0126 289.488C86.6606 289.861 86.4846 290.4 86.4846 291.104V296H84.2446V287.136H86.4846V288.24C86.7833 287.856 87.162 287.557 87.6206 287.344C88.09 287.12 88.602 287.008 89.1566 287.008ZM97.4308 288.976V293.264C97.4308 293.563 97.5001 293.781 97.6388 293.92C97.7881 294.048 98.0334 294.112 98.3748 294.112H99.4148V296H98.0068C96.1188 296 95.1748 295.083 95.1748 293.248V288.976H94.1188V287.136H95.1748V284.944H97.4308V287.136H99.4148V288.976H97.4308Z" fill="#444444"/>
</g>
<g clip-path="url(#clip2_85_358)">
<path d="M186.308 506.054C227.347 506.054 260.616 472.784 260.616 431.743C260.616 390.702 227.347 357.432 186.308 357.432C145.269 357.432 112 390.702 112 431.743C112 472.784 145.269 506.054 186.308 506.054Z" fill="white" stroke="#444444" stroke-width="0.862234" stroke-linecap="round" stroke-linejoin="round"/>
<path d="M207.494 443.999H164.506C163.675 443.999 163 443.449 163 442.772V430.466C163 424.383 169.071 419.434 176.533 419.434H180.161C180.565 419.434 180.953 419.566 181.236 419.802L186 423.766L190.764 419.802C191.047 419.566 191.435 419.434 191.839 419.434H195.467C202.929 419.434 209 424.383 209 430.466V442.772C209 443.449 208.325 443.999 207.494 443.999ZM166.011 441.544H205.989V430.466C205.989 425.735 201.27 421.888 195.467 421.888H192.471L187.075 426.381C186.792 426.616 186.404 426.749 186 426.749C185.596 426.749 185.208 426.616 184.925 426.381L179.529 421.888H176.533C170.73 421.888 166.011 425.735 166.011 430.466V441.544Z" fill="#9F9F9F"/>
<path d="M180.161 421.888C179.33 421.888 178.656 421.339 178.656 420.661V416.37C178.656 415.692 179.33 415.143 180.161 415.143C180.992 415.143 181.667 415.692 181.667 416.37V420.661C181.667 421.339 180.992 421.888 180.161 421.888Z" fill="#9F9F9F"/>
<path d="M191.839 421.889C191.008 421.889 190.333 421.339 190.333 420.661V416.579C190.333 415.901 191.008 415.352 191.839 415.352C192.67 415.352 193.344 415.901 193.344 416.579V420.661C193.344 421.339 192.67 421.889 191.839 421.889Z" fill="#9F9F9F"/>
<path d="M186.156 419.431C183.687 419.431 181.221 418.737 179.194 417.352C176.195 415.307 174.485 411.998 174.382 408.034C174.364 407.356 175.024 406.794 175.855 406.782C176.683 406.764 177.376 407.305 177.391 407.982C177.475 411.227 178.8 413.886 181.125 415.469C183.964 417.406 187.993 417.477 190.917 415.641C193.387 414.09 194.805 411.394 194.907 408.051C194.928 407.373 195.63 406.843 196.449 406.855C197.28 406.872 197.937 407.435 197.915 408.112C197.789 412.209 195.955 415.572 192.751 417.583C190.794 418.818 188.475 419.431 186.156 419.431Z" fill="#9F9F9F"/>
<path d="M196.416 409.31C196.292 409.31 196.169 409.298 196.045 409.273C195.377 409.136 194.91 408.645 194.91 408.083V408.078C194.775 404.504 193.874 402.783 193.308 402.049C188.24 404.224 184.154 402.965 181.39 402.113C180.727 401.909 179.773 401.614 179.312 401.582C179.182 405.245 177.324 408.404 177.24 408.544C177.008 408.932 176.545 409.192 176.018 409.232C175.491 409.271 174.979 409.08 174.666 408.728C171.498 405.166 171.26 401.045 174.012 397.419C177.255 393.148 184.082 390.379 189.556 391.12C193.426 391.643 196.139 393.761 197.244 397.102C202.821 400.898 197.952 408.346 197.738 408.667C197.47 409.072 196.958 409.31 196.416 409.31ZM187.698 393.454C183.654 393.454 178.908 395.637 176.575 398.71C175.412 400.242 174.479 402.454 175.611 405.027C176 403.888 176.337 402.464 176.307 401.001C176.301 400.755 176.388 400.515 176.551 400.308C178.035 398.455 180.486 399.209 182.456 399.817C185.139 400.645 188.478 401.673 192.781 399.464C193.248 399.223 193.835 399.211 194.317 399.43C194.675 399.592 195.949 400.308 196.886 402.567C196.979 401.131 196.569 399.709 195.034 398.806C194.736 398.632 194.528 398.374 194.447 398.084C193.718 395.49 191.86 393.918 189.068 393.54C188.623 393.484 188.165 393.454 187.698 393.454Z" fill="#9F9F9F"/>
<path d="M186 444C185.169 444 184.494 443.45 184.494 442.773V425.522C184.494 424.845 185.169 424.295 186 424.295C186.831 424.295 187.506 424.845 187.506 425.522V442.773C187.506 443.45 186.831 444 186 444Z" fill="#9F9F9F"/>
<path d="M171.401 444C170.57 444 169.896 443.45 169.896 442.772V430.525C169.896 429.848 170.57 429.298 171.401 429.298C172.232 429.298 172.907 429.848 172.907 430.525V442.772C172.907 443.45 172.232 444 171.401 444Z" fill="#9F9F9F"/>
<path d="M200.595 444C199.764 444 199.09 443.45 199.09 442.772V430.525C199.09 429.848 199.764 429.298 200.595 429.298C201.427 429.298 202.101 429.848 202.101 430.525V442.772C202.101 443.45 201.427 444 200.595 444Z" fill="#9F9F9F"/>
<path d="M158.479 461.292C159.108 461.409 159.626 461.724 160.031 462.236C160.436 462.748 160.639 463.334 160.639 463.996C160.639 464.593 160.49 465.121 160.191 465.58C159.903 466.028 159.482 466.38 158.927 466.636C158.372 466.892 157.716 467.02 156.959 467.02H152.143V455.852H156.751C157.508 455.852 158.159 455.974 158.703 456.22C159.258 456.465 159.674 456.806 159.951 457.244C160.239 457.681 160.383 458.177 160.383 458.732C160.383 459.382 160.207 459.926 159.855 460.364C159.514 460.801 159.055 461.11 158.479 461.292ZM154.383 460.46H156.431C156.964 460.46 157.375 460.342 157.663 460.108C157.951 459.862 158.095 459.516 158.095 459.068C158.095 458.62 157.951 458.273 157.663 458.028C157.375 457.782 156.964 457.66 156.431 457.66H154.383V460.46ZM156.639 465.196C157.183 465.196 157.604 465.068 157.903 464.812C158.212 464.556 158.367 464.193 158.367 463.724C158.367 463.244 158.207 462.87 157.887 462.604C157.567 462.326 157.135 462.188 156.591 462.188H154.383V465.196H156.639ZM170.792 458.156V467.02H168.536V465.9C168.248 466.284 167.87 466.588 167.4 466.812C166.942 467.025 166.44 467.132 165.896 467.132C165.203 467.132 164.59 466.988 164.056 466.7C163.523 466.401 163.102 465.969 162.792 465.404C162.494 464.828 162.344 464.145 162.344 463.356V458.156H164.584V463.036C164.584 463.74 164.76 464.284 165.112 464.668C165.464 465.041 165.944 465.228 166.552 465.228C167.171 465.228 167.656 465.041 168.008 464.668C168.36 464.284 168.536 463.74 168.536 463.036V458.156H170.792ZM176.394 467.164C175.669 467.164 175.018 467.036 174.442 466.78C173.866 466.513 173.408 466.156 173.066 465.708C172.736 465.26 172.554 464.764 172.522 464.22H174.778C174.821 464.561 174.986 464.844 175.274 465.068C175.573 465.292 175.941 465.404 176.378 465.404C176.805 465.404 177.136 465.318 177.37 465.148C177.616 464.977 177.738 464.758 177.738 464.492C177.738 464.204 177.589 463.99 177.29 463.852C177.002 463.702 176.538 463.542 175.898 463.372C175.237 463.212 174.693 463.046 174.266 462.876C173.85 462.705 173.488 462.444 173.178 462.092C172.88 461.74 172.73 461.265 172.73 460.668C172.73 460.177 172.869 459.729 173.146 459.324C173.434 458.918 173.84 458.598 174.362 458.364C174.896 458.129 175.52 458.012 176.234 458.012C177.29 458.012 178.133 458.278 178.762 458.812C179.392 459.334 179.738 460.044 179.802 460.94H177.658C177.626 460.588 177.477 460.31 177.21 460.108C176.954 459.894 176.608 459.788 176.17 459.788C175.765 459.788 175.45 459.862 175.226 460.012C175.013 460.161 174.906 460.369 174.906 460.636C174.906 460.934 175.056 461.164 175.354 461.324C175.653 461.473 176.117 461.628 176.746 461.788C177.386 461.948 177.914 462.113 178.33 462.284C178.746 462.454 179.104 462.721 179.402 463.084C179.712 463.436 179.872 463.905 179.882 464.492C179.882 465.004 179.738 465.462 179.45 465.868C179.173 466.273 178.768 466.593 178.234 466.828C177.712 467.052 177.098 467.164 176.394 467.164ZM182.857 457.1C182.463 457.1 182.132 456.977 181.865 456.732C181.609 456.476 181.481 456.161 181.481 455.788C181.481 455.414 181.609 455.105 181.865 454.86C182.132 454.604 182.463 454.476 182.857 454.476C183.252 454.476 183.577 454.604 183.833 454.86C184.1 455.105 184.233 455.414 184.233 455.788C184.233 456.161 184.1 456.476 183.833 456.732C183.577 456.977 183.252 457.1 182.857 457.1ZM183.961 458.156V467.02H181.721V458.156H183.961ZM191.086 458.028C192.142 458.028 192.996 458.364 193.646 459.036C194.297 459.697 194.622 460.625 194.622 461.82V467.02H192.382V462.124C192.382 461.42 192.206 460.881 191.854 460.508C191.502 460.124 191.022 459.932 190.414 459.932C189.796 459.932 189.305 460.124 188.942 460.508C188.59 460.881 188.414 461.42 188.414 462.124V467.02H186.174V458.156H188.414V459.26C188.713 458.876 189.092 458.577 189.55 458.364C190.02 458.14 190.532 458.028 191.086 458.028ZM204.992 462.396C204.992 462.716 204.971 463.004 204.928 463.26H198.448C198.502 463.9 198.726 464.401 199.12 464.764C199.515 465.126 200 465.308 200.576 465.308C201.408 465.308 202 464.95 202.352 464.236H204.768C204.512 465.089 204.022 465.793 203.296 466.348C202.571 466.892 201.68 467.164 200.624 467.164C199.771 467.164 199.003 466.977 198.32 466.604C197.648 466.22 197.12 465.681 196.736 464.988C196.363 464.294 196.176 463.494 196.176 462.588C196.176 461.67 196.363 460.865 196.736 460.172C197.11 459.478 197.632 458.945 198.304 458.572C198.976 458.198 199.75 458.012 200.624 458.012C201.467 458.012 202.219 458.193 202.88 458.556C203.552 458.918 204.07 459.436 204.432 460.108C204.806 460.769 204.992 461.532 204.992 462.396ZM202.672 461.756C202.662 461.18 202.454 460.721 202.048 460.38C201.643 460.028 201.147 459.852 200.56 459.852C200.006 459.852 199.536 460.022 199.152 460.364C198.779 460.694 198.55 461.158 198.464 461.756H202.672ZM210.019 467.164C209.294 467.164 208.643 467.036 208.067 466.78C207.491 466.513 207.033 466.156 206.691 465.708C206.361 465.26 206.179 464.764 206.147 464.22H208.403C208.446 464.561 208.611 464.844 208.899 465.068C209.198 465.292 209.566 465.404 210.003 465.404C210.43 465.404 210.761 465.318 210.995 465.148C211.241 464.977 211.363 464.758 211.363 464.492C211.363 464.204 211.214 463.99 210.915 463.852C210.627 463.702 210.163 463.542 209.523 463.372C208.862 463.212 208.318 463.046 207.891 462.876C207.475 462.705 207.113 462.444 206.803 462.092C206.505 461.74 206.355 461.265 206.355 460.668C206.355 460.177 206.494 459.729 206.771 459.324C207.059 458.918 207.465 458.598 207.987 458.364C208.521 458.129 209.145 458.012 209.859 458.012C210.915 458.012 211.758 458.278 212.387 458.812C213.017 459.334 213.363 460.044 213.427 460.94H211.283C211.251 460.588 211.102 460.31 210.835 460.108C210.579 459.894 210.233 459.788 209.795 459.788C209.39 459.788 209.075 459.862 208.851 460.012C208.638 460.161 208.531 460.369 208.531 460.636C208.531 460.934 208.681 461.164 208.979 461.324C209.278 461.473 209.742 461.628 210.371 461.788C211.011 461.948 211.539 462.113 211.955 462.284C212.371 462.454 212.729 462.721 213.027 463.084C213.337 463.436 213.497 463.905 213.507 464.492C213.507 465.004 213.363 465.462 213.075 465.868C212.798 466.273 212.393 466.593 211.859 466.828C211.337 467.052 210.723 467.164 210.019 467.164ZM218.738 467.164C218.013 467.164 217.362 467.036 216.786 466.78C216.21 466.513 215.752 466.156 215.41 465.708C215.08 465.26 214.898 464.764 214.866 464.22H217.122C217.165 464.561 217.33 464.844 217.618 465.068C217.917 465.292 218.285 465.404 218.722 465.404C219.149 465.404 219.48 465.318 219.714 465.148C219.96 464.977 220.082 464.758 220.082 464.492C220.082 464.204 219.933 463.99 219.634 463.852C219.346 463.702 218.882 463.542 218.242 463.372C217.581 463.212 217.037 463.046 216.61 462.876C216.194 462.705 215.832 462.444 215.522 462.092C215.224 461.74 215.074 461.265 215.074 460.668C215.074 460.177 215.213 459.729 215.49 459.324C215.778 458.918 216.184 458.598 216.706 458.364C217.24 458.129 217.864 458.012 218.578 458.012C219.634 458.012 220.477 458.278 221.106 458.812C221.736 459.334 222.082 460.044 222.146 460.94H220.002C219.97 460.588 219.821 460.31 219.554 460.108C219.298 459.894 218.952 459.788 218.514 459.788C218.109 459.788 217.794 459.862 217.57 460.012C217.357 460.161 217.25 460.369 217.25 460.636C217.25 460.934 217.4 461.164 217.698 461.324C217.997 461.473 218.461 461.628 219.09 461.788C219.73 461.948 220.258 462.113 220.674 462.284C221.09 462.454 221.448 462.721 221.746 463.084C222.056 463.436 222.216 463.905 222.226 464.492C222.226 465.004 222.082 465.462 221.794 465.868C221.517 466.273 221.112 466.593 220.578 466.828C220.056 467.052 219.442 467.164 218.738 467.164ZM163.358 471.852V483.02H161.118V475.756L158.126 483.02H156.43L153.422 475.756V483.02H151.182V471.852H153.726L157.278 480.156L160.83 471.852H163.358ZM164.997 478.556C164.997 477.66 165.173 476.865 165.525 476.172C165.887 475.478 166.373 474.945 166.981 474.572C167.599 474.198 168.287 474.012 169.045 474.012C169.706 474.012 170.282 474.145 170.773 474.412C171.274 474.678 171.674 475.014 171.973 475.42V474.156H174.229V483.02H171.973V481.724C171.685 482.14 171.285 482.486 170.773 482.764C170.271 483.03 169.69 483.164 169.029 483.164C168.282 483.164 167.599 482.972 166.981 482.588C166.373 482.204 165.887 481.665 165.525 480.972C165.173 480.268 164.997 479.462 164.997 478.556ZM171.973 478.588C171.973 478.044 171.866 477.58 171.653 477.196C171.439 476.801 171.151 476.502 170.789 476.3C170.426 476.086 170.037 475.98 169.621 475.98C169.205 475.98 168.821 476.081 168.469 476.284C168.117 476.486 167.829 476.785 167.605 477.18C167.391 477.564 167.285 478.022 167.285 478.556C167.285 479.089 167.391 479.558 167.605 479.964C167.829 480.358 168.117 480.662 168.469 480.876C168.831 481.089 169.215 481.196 169.621 481.196C170.037 481.196 170.426 481.094 170.789 480.892C171.151 480.678 171.439 480.38 171.653 479.996C171.866 479.601 171.973 479.132 171.973 478.588ZM181.329 474.028C182.385 474.028 183.238 474.364 183.889 475.036C184.539 475.697 184.865 476.625 184.865 477.82V483.02H182.625V478.124C182.625 477.42 182.449 476.881 182.097 476.508C181.745 476.124 181.265 475.932 180.657 475.932C180.038 475.932 179.547 476.124 179.185 476.508C178.833 476.881 178.657 477.42 178.657 478.124V483.02H176.417V474.156H178.657V475.26C178.955 474.876 179.334 474.577 179.793 474.364C180.262 474.14 180.774 474.028 181.329 474.028ZM186.419 478.556C186.419 477.66 186.595 476.865 186.947 476.172C187.309 475.478 187.795 474.945 188.403 474.572C189.021 474.198 189.709 474.012 190.467 474.012C191.128 474.012 191.704 474.145 192.195 474.412C192.696 474.678 193.096 475.014 193.395 475.42V474.156H195.651V483.02H193.395V481.724C193.107 482.14 192.707 482.486 192.195 482.764C191.693 483.03 191.112 483.164 190.451 483.164C189.704 483.164 189.021 482.972 188.403 482.588C187.795 482.204 187.309 481.665 186.947 480.972C186.595 480.268 186.419 479.462 186.419 478.556ZM193.395 478.588C193.395 478.044 193.288 477.58 193.075 477.196C192.861 476.801 192.573 476.502 192.211 476.3C191.848 476.086 191.459 475.98 191.043 475.98C190.627 475.98 190.243 476.081 189.891 476.284C189.539 476.486 189.251 476.785 189.027 477.18C188.813 477.564 188.707 478.022 188.707 478.556C188.707 479.089 188.813 479.558 189.027 479.964C189.251 480.358 189.539 480.662 189.891 480.876C190.253 481.089 190.637 481.196 191.043 481.196C191.459 481.196 191.848 481.094 192.211 480.892C192.573 480.678 192.861 480.38 193.075 479.996C193.288 479.601 193.395 479.132 193.395 478.588ZM201.31 474.012C201.972 474.012 202.553 474.145 203.054 474.412C203.556 474.668 203.95 475.004 204.238 475.42V474.156H206.494V483.084C206.494 483.905 206.329 484.636 205.998 485.276C205.668 485.926 205.172 486.438 204.51 486.812C203.849 487.196 203.049 487.388 202.11 487.388C200.852 487.388 199.817 487.094 199.006 486.508C198.206 485.921 197.753 485.121 197.646 484.108H199.87C199.988 484.513 200.238 484.833 200.622 485.068C201.017 485.313 201.492 485.436 202.046 485.436C202.697 485.436 203.225 485.238 203.63 484.844C204.036 484.46 204.238 483.873 204.238 483.084V481.708C203.95 482.124 203.55 482.47 203.038 482.748C202.537 483.025 201.961 483.164 201.31 483.164C200.564 483.164 199.881 482.972 199.262 482.588C198.644 482.204 198.153 481.665 197.79 480.972C197.438 480.268 197.262 479.462 197.262 478.556C197.262 477.66 197.438 476.865 197.79 476.172C198.153 475.478 198.638 474.945 199.246 474.572C199.865 474.198 200.553 474.012 201.31 474.012ZM204.238 478.588C204.238 478.044 204.132 477.58 203.918 477.196C203.705 476.801 203.417 476.502 203.054 476.3C202.692 476.086 202.302 475.98 201.886 475.98C201.47 475.98 201.086 476.081 200.734 476.284C200.382 476.486 200.094 476.785 199.87 477.18C199.657 477.564 199.55 478.022 199.55 478.556C199.55 479.089 199.657 479.558 199.87 479.964C200.094 480.358 200.382 480.662 200.734 480.876C201.097 481.089 201.481 481.196 201.886 481.196C202.302 481.196 202.692 481.094 203.054 480.892C203.417 480.678 203.705 480.38 203.918 479.996C204.132 479.601 204.238 479.132 204.238 478.588ZM216.922 478.396C216.922 478.716 216.901 479.004 216.858 479.26H210.378C210.431 479.9 210.655 480.401 211.05 480.764C211.445 481.126 211.93 481.308 212.506 481.308C213.338 481.308 213.93 480.95 214.282 480.236H216.698C216.442 481.089 215.951 481.793 215.226 482.348C214.501 482.892 213.61 483.164 212.554 483.164C211.701 483.164 210.933 482.977 210.25 482.604C209.578 482.22 209.05 481.681 208.666 480.988C208.293 480.294 208.106 479.494 208.106 478.588C208.106 477.67 208.293 476.865 208.666 476.172C209.039 475.478 209.562 474.945 210.234 474.572C210.906 474.198 211.679 474.012 212.554 474.012C213.397 474.012 214.149 474.193 214.81 474.556C215.482 474.918 215.999 475.436 216.362 476.108C216.735 476.769 216.922 477.532 216.922 478.396ZM214.602 477.756C214.591 477.18 214.383 476.721 213.978 476.38C213.573 476.028 213.077 475.852 212.49 475.852C211.935 475.852 211.466 476.022 211.082 476.364C210.709 476.694 210.479 477.158 210.394 477.756H214.602ZM220.797 475.532C221.085 475.062 221.458 474.694 221.917 474.428C222.386 474.161 222.92 474.028 223.517 474.028V476.38H222.925C222.221 476.38 221.688 476.545 221.325 476.876C220.973 477.206 220.797 477.782 220.797 478.604V483.02H218.557V474.156H220.797V475.532Z" fill="#444444"/>
</g>
<g clip-path="url(#clip3_85_358)">
<path d="M299.308 332.034C340.347 332.034 373.616 298.764 373.616 257.723C373.616 216.682 340.347 183.412 299.308 183.412C258.269 183.412 225 216.682 225 257.723C225 298.764 258.269 332.034 299.308 332.034Z" fill="white" stroke="#444444" stroke-width="0.862234" stroke-linecap="round" stroke-linejoin="round"/>
<g clip-path="url(#clip4_85_358)">
<path fill-rule="evenodd" clip-rule="evenodd" d="M322.204 270H276.796C275.804 270 275 269.194 275 268.2V257.89C275 252.677 278.872 248.661 285.358 247.146L293.146 245.323C294.111 245.098 295.077 245.698 295.301 246.669C295.525 247.637 294.927 248.604 293.962 248.829L286.174 250.648C283.895 251.181 278.591 252.955 278.591 257.887V266.396H320.409V257.887C320.409 252.955 315.108 251.181 312.83 250.648L305.042 248.826C304.073 248.601 303.475 247.633 303.699 246.665C303.923 245.698 304.889 245.094 305.857 245.323L313.646 247.146C320.128 248.661 324 252.677 324 257.89V268.2C324 269.194 323.196 270 322.204 270Z" fill="#9F9F9F"/>
<path fill-rule="evenodd" clip-rule="evenodd" d="M293.554 248.878C292.563 248.878 291.759 248.072 291.759 247.078V243.125C291.759 242.132 292.563 241.325 293.554 241.325C294.545 241.325 295.35 242.132 295.35 243.125V247.078C295.35 248.072 294.545 248.878 293.554 248.878Z" fill="#9F9F9F"/>
<path fill-rule="evenodd" clip-rule="evenodd" d="M305.45 248.878C304.455 248.878 303.654 248.072 303.654 247.078V243.125C303.654 242.132 304.455 241.325 305.45 241.325C306.445 241.325 307.245 242.132 307.245 243.125V247.078C307.245 248.072 306.441 248.878 305.45 248.878Z" fill="#9F9F9F"/>
<path fill-rule="evenodd" clip-rule="evenodd" d="M299.502 247.258C293.659 247.258 288.904 242.491 288.904 236.633V230.614C288.904 229.62 289.709 228.813 290.7 228.813C291.691 228.813 292.495 229.62 292.495 230.614V236.633C292.495 240.507 295.638 243.657 299.502 243.657C303.366 243.657 306.508 240.507 306.508 236.633V230.614C306.508 229.62 307.312 228.813 308.304 228.813C309.295 228.813 310.099 229.62 310.099 230.614V236.633C310.099 242.491 305.345 247.258 299.502 247.258Z" fill="#9F9F9F"/>
<path fill-rule="evenodd" clip-rule="evenodd" d="M308.495 235.328H308.304C307.312 235.328 306.508 234.522 306.508 233.528C306.508 232.534 307.312 231.728 308.304 231.728H308.495C309.059 231.728 309.538 231.251 309.538 230.685V230.197C309.546 228.802 309.557 226.893 308.88 226.211C308.786 226.117 308.498 225.825 307.556 225.825C306.564 225.825 305.76 225.018 305.76 224.024V223.638C305.76 222.442 302.775 220.6 298.806 220.6C296.281 220.6 294.01 221.369 292.421 222.768C290.46 224.493 289.465 227.148 289.465 230.666C289.465 231.24 289.948 231.728 290.524 231.728H290.7C291.691 231.728 292.495 232.534 292.495 233.528C292.495 234.522 291.691 235.328 290.7 235.328H290.524C287.958 235.328 285.874 233.239 285.874 230.666C285.874 224.936 288.149 221.737 290.053 220.06C292.301 218.088 295.409 217 298.806 217C303.351 217 308.221 219.04 309.179 222.416C310.066 222.637 310.818 223.057 311.424 223.672C313.156 225.416 313.141 228.079 313.129 230.216V230.685C313.129 233.247 311.049 235.328 308.495 235.328Z" fill="#9F9F9F"/>
<path fill-rule="evenodd" clip-rule="evenodd" d="M308.304 232.414C308.229 232.414 308.154 232.41 308.076 232.399C304.421 231.934 303.145 230.88 302.12 229.343C299.132 231.109 294.093 231.998 290.924 232.399C289.937 232.523 289.043 231.825 288.916 230.839C288.792 229.853 289.488 228.952 290.472 228.825C296.464 228.06 300.415 226.609 301.084 225.63C301.421 225.142 301.974 224.85 302.566 224.85C303.157 224.85 303.71 225.142 304.043 225.63C304.335 226.053 304.563 226.444 304.765 226.785C305.487 228.015 305.76 228.472 308.528 228.825C309.512 228.949 310.208 229.853 310.084 230.839C309.968 231.747 309.198 232.414 308.304 232.414Z" fill="#9F9F9F"/>
<path fill-rule="evenodd" clip-rule="evenodd" d="M299.502 255.471C299.012 255.471 298.526 255.273 298.17 254.879L292.223 248.286C291.557 247.547 291.613 246.41 292.35 245.743C293.087 245.075 294.22 245.135 294.886 245.87L300.834 252.464C301.5 253.202 301.44 254.339 300.707 255.006C300.362 255.318 299.932 255.471 299.502 255.471Z" fill="#9F9F9F"/>
<path fill-rule="evenodd" clip-rule="evenodd" d="M299.502 255.471C299.072 255.471 298.642 255.317 298.297 255.006C297.561 254.338 297.504 253.202 298.17 252.463L304.118 245.87C304.784 245.131 305.917 245.075 306.654 245.742C307.387 246.41 307.444 247.546 306.781 248.285L300.834 254.878C300.478 255.272 299.992 255.471 299.502 255.471Z" fill="#9F9F9F"/>
</g>
<path d="M280.967 285.288C280.967 285.885 280.823 286.445 280.535 286.968C280.257 287.491 279.815 287.912 279.207 288.232C278.609 288.552 277.852 288.712 276.935 288.712H275.063V293H272.823V281.832H276.935C277.799 281.832 278.535 281.981 279.143 282.28C279.751 282.579 280.204 282.989 280.503 283.512C280.812 284.035 280.967 284.627 280.967 285.288ZM276.839 286.904C277.457 286.904 277.916 286.765 278.215 286.488C278.513 286.2 278.663 285.8 278.663 285.288C278.663 284.2 278.055 283.656 276.839 283.656H275.063V286.904H276.839ZM284.797 285.512C285.085 285.043 285.458 284.675 285.917 284.408C286.386 284.141 286.92 284.008 287.517 284.008V286.36H286.925C286.221 286.36 285.688 286.525 285.325 286.856C284.973 287.187 284.797 287.763 284.797 288.584V293H282.557V284.136H284.797V285.512ZM292.962 293.144C292.109 293.144 291.341 292.957 290.658 292.584C289.975 292.2 289.437 291.661 289.042 290.968C288.658 290.275 288.466 289.475 288.466 288.568C288.466 287.661 288.663 286.861 289.058 286.168C289.463 285.475 290.013 284.941 290.706 284.568C291.399 284.184 292.173 283.992 293.026 283.992C293.879 283.992 294.653 284.184 295.346 284.568C296.039 284.941 296.583 285.475 296.978 286.168C297.383 286.861 297.586 287.661 297.586 288.568C297.586 289.475 297.378 290.275 296.962 290.968C296.557 291.661 296.002 292.2 295.298 292.584C294.605 292.957 293.826 293.144 292.962 293.144ZM292.962 291.192C293.367 291.192 293.746 291.096 294.098 290.904C294.461 290.701 294.749 290.403 294.962 290.008C295.175 289.613 295.282 289.133 295.282 288.568C295.282 287.725 295.058 287.08 294.61 286.632C294.173 286.173 293.634 285.944 292.994 285.944C292.354 285.944 291.815 286.173 291.378 286.632C290.951 287.08 290.738 287.725 290.738 288.568C290.738 289.411 290.946 290.061 291.362 290.52C291.789 290.968 292.322 291.192 292.962 291.192ZM300.365 283.08C299.96 283.08 299.624 282.957 299.357 282.712C299.101 282.456 298.973 282.141 298.973 281.768C298.973 281.395 299.101 281.085 299.357 280.84C299.624 280.584 299.96 280.456 300.365 280.456C300.76 280.456 301.085 280.584 301.341 280.84C301.597 281.085 301.725 281.395 301.725 281.768C301.725 282.141 301.597 282.456 301.341 282.712C301.085 282.957 300.76 283.08 300.365 283.08ZM301.469 294.456C301.469 295.437 301.224 296.141 300.733 296.568C300.253 297.005 299.56 297.224 298.653 297.224H297.661V295.32H298.301C298.642 295.32 298.882 295.251 299.021 295.112C299.16 294.984 299.229 294.771 299.229 294.472V284.136H301.469V294.456ZM311.922 288.376C311.922 288.696 311.901 288.984 311.858 289.24H305.378C305.431 289.88 305.655 290.381 306.05 290.744C306.445 291.107 306.93 291.288 307.506 291.288C308.338 291.288 308.93 290.931 309.282 290.216H311.698C311.442 291.069 310.951 291.773 310.226 292.328C309.501 292.872 308.61 293.144 307.554 293.144C306.701 293.144 305.933 292.957 305.25 292.584C304.578 292.2 304.05 291.661 303.666 290.968C303.293 290.275 303.106 289.475 303.106 288.568C303.106 287.651 303.293 286.845 303.666 286.152C304.039 285.459 304.562 284.925 305.234 284.552C305.906 284.179 306.679 283.992 307.554 283.992C308.397 283.992 309.149 284.173 309.81 284.536C310.482 284.899 310.999 285.416 311.362 286.088C311.735 286.749 311.922 287.512 311.922 288.376ZM309.602 287.736C309.591 287.16 309.383 286.701 308.978 286.36C308.573 286.008 308.077 285.832 307.49 285.832C306.935 285.832 306.466 286.003 306.082 286.344C305.709 286.675 305.479 287.139 305.394 287.736H309.602ZM312.981 288.568C312.981 287.651 313.168 286.851 313.541 286.168C313.914 285.475 314.432 284.941 315.093 284.568C315.754 284.184 316.512 283.992 317.365 283.992C318.464 283.992 319.37 284.269 320.085 284.824C320.81 285.368 321.296 286.136 321.541 287.128H319.125C318.997 286.744 318.778 286.445 318.469 286.232C318.17 286.008 317.797 285.896 317.349 285.896C316.709 285.896 316.202 286.131 315.829 286.6C315.456 287.059 315.269 287.715 315.269 288.568C315.269 289.411 315.456 290.067 315.829 290.536C316.202 290.995 316.709 291.224 317.349 291.224C318.256 291.224 318.848 290.819 319.125 290.008H321.541C321.296 290.968 320.81 291.731 320.085 292.296C319.36 292.861 318.453 293.144 317.365 293.144C316.512 293.144 315.754 292.957 315.093 292.584C314.432 292.2 313.914 291.667 313.541 290.984C313.168 290.291 312.981 289.485 312.981 288.568ZM325.79 285.976V290.264C325.79 290.563 325.859 290.781 325.998 290.92C326.147 291.048 326.393 291.112 326.734 291.112H327.774V293H326.366C324.478 293 323.534 292.083 323.534 290.248V285.976H322.478V284.136H323.534V281.944H325.79V284.136H327.774V285.976H325.79ZM276.358 297.832V309H274.118V301.736L271.126 309H269.43L266.422 301.736V309H264.182V297.832H266.726L270.278 306.136L273.83 297.832H276.358ZM277.997 304.536C277.997 303.64 278.173 302.845 278.525 302.152C278.887 301.459 279.373 300.925 279.981 300.552C280.599 300.179 281.287 299.992 282.045 299.992C282.706 299.992 283.282 300.125 283.773 300.392C284.274 300.659 284.674 300.995 284.973 301.4V300.136H287.229V309H284.973V307.704C284.685 308.12 284.285 308.467 283.773 308.744C283.271 309.011 282.69 309.144 282.029 309.144C281.282 309.144 280.599 308.952 279.981 308.568C279.373 308.184 278.887 307.645 278.525 306.952C278.173 306.248 277.997 305.443 277.997 304.536ZM284.973 304.568C284.973 304.024 284.866 303.56 284.653 303.176C284.439 302.781 284.151 302.483 283.789 302.28C283.426 302.067 283.037 301.96 282.621 301.96C282.205 301.96 281.821 302.061 281.469 302.264C281.117 302.467 280.829 302.765 280.605 303.16C280.391 303.544 280.285 304.003 280.285 304.536C280.285 305.069 280.391 305.539 280.605 305.944C280.829 306.339 281.117 306.643 281.469 306.856C281.831 307.069 282.215 307.176 282.621 307.176C283.037 307.176 283.426 307.075 283.789 306.872C284.151 306.659 284.439 306.36 284.653 305.976C284.866 305.581 284.973 305.112 284.973 304.568ZM294.329 300.008C295.385 300.008 296.238 300.344 296.889 301.016C297.539 301.677 297.865 302.605 297.865 303.8V309H295.625V304.104C295.625 303.4 295.449 302.861 295.097 302.488C294.745 302.104 294.265 301.912 293.657 301.912C293.038 301.912 292.547 302.104 292.185 302.488C291.833 302.861 291.657 303.4 291.657 304.104V309H289.417V300.136H291.657V301.24C291.955 300.856 292.334 300.557 292.793 300.344C293.262 300.12 293.774 300.008 294.329 300.008ZM299.419 304.536C299.419 303.64 299.595 302.845 299.947 302.152C300.309 301.459 300.795 300.925 301.403 300.552C302.021 300.179 302.709 299.992 303.467 299.992C304.128 299.992 304.704 300.125 305.195 300.392C305.696 300.659 306.096 300.995 306.395 301.4V300.136H308.651V309H306.395V307.704C306.107 308.12 305.707 308.467 305.195 308.744C304.693 309.011 304.112 309.144 303.451 309.144C302.704 309.144 302.021 308.952 301.403 308.568C300.795 308.184 300.309 307.645 299.947 306.952C299.595 306.248 299.419 305.443 299.419 304.536ZM306.395 304.568C306.395 304.024 306.288 303.56 306.075 303.176C305.861 302.781 305.573 302.483 305.211 302.28C304.848 302.067 304.459 301.96 304.043 301.96C303.627 301.96 303.243 302.061 302.891 302.264C302.539 302.467 302.251 302.765 302.027 303.16C301.813 303.544 301.707 304.003 301.707 304.536C301.707 305.069 301.813 305.539 302.027 305.944C302.251 306.339 302.539 306.643 302.891 306.856C303.253 307.069 303.637 307.176 304.043 307.176C304.459 307.176 304.848 307.075 305.211 306.872C305.573 306.659 305.861 306.36 306.075 305.976C306.288 305.581 306.395 305.112 306.395 304.568ZM314.31 299.992C314.972 299.992 315.553 300.125 316.054 300.392C316.556 300.648 316.95 300.984 317.238 301.4V300.136H319.494V309.064C319.494 309.885 319.329 310.616 318.998 311.256C318.668 311.907 318.172 312.419 317.51 312.792C316.849 313.176 316.049 313.368 315.11 313.368C313.852 313.368 312.817 313.075 312.006 312.488C311.206 311.901 310.753 311.101 310.646 310.088H312.87C312.988 310.493 313.238 310.813 313.622 311.048C314.017 311.293 314.492 311.416 315.046 311.416C315.697 311.416 316.225 311.219 316.63 310.824C317.036 310.44 317.238 309.853 317.238 309.064V307.688C316.95 308.104 316.55 308.451 316.038 308.728C315.537 309.005 314.961 309.144 314.31 309.144C313.564 309.144 312.881 308.952 312.262 308.568C311.644 308.184 311.153 307.645 310.79 306.952C310.438 306.248 310.262 305.443 310.262 304.536C310.262 303.64 310.438 302.845 310.79 302.152C311.153 301.459 311.638 300.925 312.246 300.552C312.865 300.179 313.553 299.992 314.31 299.992ZM317.238 304.568C317.238 304.024 317.132 303.56 316.918 303.176C316.705 302.781 316.417 302.483 316.054 302.28C315.692 302.067 315.302 301.96 314.886 301.96C314.47 301.96 314.086 302.061 313.734 302.264C313.382 302.467 313.094 302.765 312.87 303.16C312.657 303.544 312.55 304.003 312.55 304.536C312.55 305.069 312.657 305.539 312.87 305.944C313.094 306.339 313.382 306.643 313.734 306.856C314.097 307.069 314.481 307.176 314.886 307.176C315.302 307.176 315.692 307.075 316.054 306.872C316.417 306.659 316.705 306.36 316.918 305.976C317.132 305.581 317.238 305.112 317.238 304.568ZM329.922 304.376C329.922 304.696 329.901 304.984 329.858 305.24H323.378C323.431 305.88 323.655 306.381 324.05 306.744C324.445 307.107 324.93 307.288 325.506 307.288C326.338 307.288 326.93 306.931 327.282 306.216H329.698C329.442 307.069 328.951 307.773 328.226 308.328C327.501 308.872 326.61 309.144 325.554 309.144C324.701 309.144 323.933 308.957 323.25 308.584C322.578 308.2 322.05 307.661 321.666 306.968C321.293 306.275 321.106 305.475 321.106 304.568C321.106 303.651 321.293 302.845 321.666 302.152C322.039 301.459 322.562 300.925 323.234 300.552C323.906 300.179 324.679 299.992 325.554 299.992C326.397 299.992 327.149 300.173 327.81 300.536C328.482 300.899 328.999 301.416 329.362 302.088C329.735 302.749 329.922 303.512 329.922 304.376ZM327.602 303.736C327.591 303.16 327.383 302.701 326.978 302.36C326.573 302.008 326.077 301.832 325.49 301.832C324.935 301.832 324.466 302.003 324.082 302.344C323.709 302.675 323.479 303.139 323.394 303.736H327.602ZM333.797 301.512C334.085 301.043 334.458 300.675 334.917 300.408C335.386 300.141 335.92 300.008 336.517 300.008V302.36H335.925C335.221 302.36 334.688 302.525 334.325 302.856C333.973 303.187 333.797 303.763 333.797 304.584V309H331.557V300.136H333.797V301.512Z" fill="#444444"/>
</g>
<g clip-path="url(#clip5_85_358)">
<path d="M516.308 332.034C557.347 332.034 590.616 298.764 590.616 257.723C590.616 216.682 557.347 183.412 516.308 183.412C475.269 183.412 442 216.682 442 257.723C442 298.764 475.269 332.034 516.308 332.034Z" fill="white" stroke="#444444" stroke-width="0.862234" stroke-linecap="round" stroke-linejoin="round"/>
<g clip-path="url(#clip6_85_358)">
<path d="M533.1 270.25H533.059H498.965C497.426 270.25 496.069 269.637 495.053 268.48L495.052 268.479C494.037 267.32 493.6 265.899 493.798 264.373L495.445 251.556C495.445 251.556 495.445 251.556 495.445 251.556C495.653 249.923 496.555 248.561 497.974 247.729L511.159 239.968L511.159 239.968C511.883 239.543 512.814 239.783 513.243 240.506L513.243 240.507C513.669 241.231 513.429 242.162 512.704 242.588C512.704 242.588 512.704 242.588 512.704 242.588L499.519 250.349L499.518 250.349C498.906 250.709 498.557 251.239 498.465 251.943C498.465 251.943 498.465 251.943 498.465 251.943L496.818 264.76L496.818 264.76C496.733 265.417 496.904 265.968 497.343 266.472C497.781 266.97 498.307 267.208 498.97 267.208H533.064C533.729 267.208 534.256 266.97 534.697 266.472C535.135 265.972 535.303 265.42 535.219 264.762L535.219 264.762L533.571 251.945L533.571 251.945C533.482 251.242 533.131 250.712 532.521 250.352L533.1 270.25ZM533.1 270.25L533.108 270.247C534.629 270.237 535.974 269.624 536.984 268.477L536.984 268.477C538 267.32 538.433 265.898 538.239 264.373L538.239 264.373L536.591 251.556L533.1 270.25ZM519.332 242.591L532.52 250.352L536.591 251.556C536.383 249.926 535.484 248.562 534.065 247.729L520.877 239.969C520.15 239.54 519.219 239.783 518.794 240.507C518.368 241.231 518.608 242.165 519.332 242.591C519.332 242.591 519.332 242.591 519.332 242.591Z" fill="#9F9F9F" stroke="#9F9F9F" stroke-width="0.5"/>
<path d="M512.05 245.923C513.111 246.984 514.519 247.57 516.012 247.57C519.104 247.57 521.618 245.055 521.618 241.966V239.673C521.618 238.833 520.937 238.152 520.097 238.152C519.257 238.152 518.576 238.833 518.576 239.673V241.966C518.576 243.378 517.425 244.528 516.012 244.528C515.334 244.528 514.691 244.26 514.203 243.772C513.716 243.284 513.448 242.641 513.448 241.963V239.67C513.448 238.831 512.766 238.149 511.927 238.149C511.087 238.149 510.406 238.831 510.406 239.67V241.963C510.406 243.456 510.989 244.862 512.05 245.923Z" fill="#9F9F9F" stroke="#9F9F9F" stroke-width="0.5"/>
<path d="M511.236 241.024C511.341 241.078 511.454 241.121 511.571 241.149C511.571 241.149 511.572 241.149 511.572 241.149L515.656 242.135L515.657 242.135C515.771 242.162 515.889 242.178 516.012 242.178C517.689 242.178 519.299 241.79 520.791 241.027C524.344 239.21 526.552 235.614 526.552 231.64V227.29C526.552 227.183 526.55 227.075 526.547 226.974L526.547 226.973C526.378 221.337 521.824 216.75 516.012 216.75C510.2 216.75 505.474 221.478 505.474 227.29V231.64C505.474 234.445 506.576 237.088 508.57 239.082C509.356 239.868 510.254 240.521 511.236 241.024ZM511.236 241.024C511.236 241.024 511.236 241.024 511.236 241.024L511.35 240.802L511.235 241.024C511.235 241.024 511.236 241.024 511.236 241.024ZM519.404 238.317L519.404 238.317C518.395 238.833 517.314 239.106 516.184 239.132L512.475 238.237C511.831 237.892 511.242 237.453 510.718 236.929C509.298 235.508 508.516 233.63 508.516 231.637V227.288C508.516 223.155 512.001 219.79 516.012 219.79C520.023 219.79 523.385 223.053 523.505 227.059L523.505 227.059L523.506 227.068C523.51 227.135 523.51 227.207 523.51 227.288V231.637C523.51 234.461 521.937 237.022 519.404 238.317Z" fill="#9F9F9F" stroke="#9F9F9F" stroke-width="0.5"/>
<path d="M506.317 226.838L506.317 226.838C509.221 225.394 511.51 224.581 513.229 224.42C514.091 224.34 514.827 224.421 515.429 224.685C516.031 224.948 516.484 225.386 516.79 225.987C516.795 225.991 516.809 226.003 516.837 226.019C516.89 226.051 516.977 226.091 517.107 226.131C517.366 226.211 517.776 226.286 518.386 226.311C519.604 226.362 521.591 226.213 524.701 225.533L524.701 225.533C525.522 225.354 526.332 225.874 526.511 226.695C526.691 227.517 526.17 228.326 525.349 228.506C521.12 229.431 518.501 229.521 516.842 229.197C516.009 229.035 515.411 228.767 514.973 228.442C514.568 228.141 514.31 227.8 514.13 227.47C514.116 227.466 514.099 227.462 514.077 227.459C514.006 227.447 513.907 227.44 513.773 227.443C513.507 227.449 513.121 227.496 512.596 227.62C511.545 227.87 509.954 228.427 507.668 229.563L507.668 229.563C507.453 229.669 507.223 229.721 506.995 229.721L506.317 226.838ZM506.317 226.838C505.566 227.212 505.258 228.124 505.632 228.876M506.317 226.838L505.632 228.876M505.632 228.876C505.897 229.411 506.435 229.72 506.993 229.721L505.632 228.876Z" fill="#9F9F9F" stroke="#9F9F9F" stroke-width="0.5"/>
<path d="M504.328 268.729C504.328 269.568 505.009 270.25 505.849 270.25C506.688 270.25 507.37 269.568 507.37 268.729V255.558C507.37 254.718 506.688 254.037 505.849 254.037C505.009 254.037 504.328 254.718 504.328 255.558V268.729Z" fill="#9F9F9F" stroke="#9F9F9F" stroke-width="0.5"/>
<path d="M524.657 268.729C524.657 269.568 525.338 270.25 526.178 270.25C527.017 270.25 527.699 269.568 527.699 268.729V255.558C527.699 254.718 527.017 254.037 526.178 254.037C525.338 254.037 524.657 254.718 524.657 255.558V268.729Z" fill="#9F9F9F" stroke="#9F9F9F" stroke-width="0.5"/>
</g>
<path d="M502.345 281.832V283.64H499.369V293H497.129V283.64H494.153V281.832H502.345ZM512.219 288.376C512.219 288.696 512.198 288.984 512.155 289.24H505.675C505.728 289.88 505.952 290.381 506.347 290.744C506.742 291.107 507.227 291.288 507.803 291.288C508.635 291.288 509.227 290.931 509.579 290.216H511.995C511.739 291.069 511.248 291.773 510.523 292.328C509.798 292.872 508.907 293.144 507.851 293.144C506.998 293.144 506.23 292.957 505.547 292.584C504.875 292.2 504.347 291.661 503.963 290.968C503.59 290.275 503.403 289.475 503.403 288.568C503.403 287.651 503.59 286.845 503.963 286.152C504.336 285.459 504.859 284.925 505.531 284.552C506.203 284.179 506.976 283.992 507.851 283.992C508.694 283.992 509.446 284.173 510.107 284.536C510.779 284.899 511.296 285.416 511.659 286.088C512.032 286.749 512.219 287.512 512.219 288.376ZM509.899 287.736C509.888 287.16 509.68 286.701 509.275 286.36C508.87 286.008 508.374 285.832 507.787 285.832C507.232 285.832 506.763 286.003 506.379 286.344C506.006 286.675 505.776 287.139 505.691 287.736H509.899ZM513.278 288.536C513.278 287.64 513.454 286.845 513.806 286.152C514.169 285.459 514.654 284.925 515.262 284.552C515.881 284.179 516.569 283.992 517.326 283.992C517.987 283.992 518.563 284.125 519.054 284.392C519.555 284.659 519.955 284.995 520.254 285.4V284.136H522.51V293H520.254V291.704C519.966 292.12 519.566 292.467 519.054 292.744C518.553 293.011 517.971 293.144 517.31 293.144C516.563 293.144 515.881 292.952 515.262 292.568C514.654 292.184 514.169 291.645 513.806 290.952C513.454 290.248 513.278 289.443 513.278 288.536ZM520.254 288.568C520.254 288.024 520.147 287.56 519.934 287.176C519.721 286.781 519.433 286.483 519.07 286.28C518.707 286.067 518.318 285.96 517.902 285.96C517.486 285.96 517.102 286.061 516.75 286.264C516.398 286.467 516.11 286.765 515.886 287.16C515.673 287.544 515.566 288.003 515.566 288.536C515.566 289.069 515.673 289.539 515.886 289.944C516.11 290.339 516.398 290.643 516.75 290.856C517.113 291.069 517.497 291.176 517.902 291.176C518.318 291.176 518.707 291.075 519.07 290.872C519.433 290.659 519.721 290.36 519.934 289.976C520.147 289.581 520.254 289.112 520.254 288.568ZM535.706 284.008C536.794 284.008 537.668 284.344 538.33 285.016C539.002 285.677 539.338 286.605 539.338 287.8V293H537.098V288.104C537.098 287.411 536.922 286.883 536.57 286.52C536.218 286.147 535.738 285.96 535.13 285.96C534.522 285.96 534.036 286.147 533.674 286.52C533.322 286.883 533.146 287.411 533.146 288.104V293H530.906V288.104C530.906 287.411 530.73 286.883 530.378 286.52C530.026 286.147 529.546 285.96 528.938 285.96C528.319 285.96 527.828 286.147 527.466 286.52C527.114 286.883 526.938 287.411 526.938 288.104V293H524.698V284.136H526.938V285.208C527.226 284.835 527.594 284.541 528.042 284.328C528.5 284.115 529.002 284.008 529.546 284.008C530.239 284.008 530.858 284.157 531.402 284.456C531.946 284.744 532.367 285.16 532.666 285.704C532.954 285.192 533.37 284.781 533.914 284.472C534.468 284.163 535.066 284.008 535.706 284.008ZM492.719 307.224H496.399V309H490.479V297.832H492.719V307.224ZM506.063 304.376C506.063 304.696 506.041 304.984 505.999 305.24H499.519C499.572 305.88 499.796 306.381 500.191 306.744C500.585 307.107 501.071 307.288 501.647 307.288C502.479 307.288 503.071 306.931 503.423 306.216H505.839C505.583 307.069 505.092 307.773 504.367 308.328C503.641 308.872 502.751 309.144 501.695 309.144C500.841 309.144 500.073 308.957 499.391 308.584C498.719 308.2 498.191 307.661 497.807 306.968C497.433 306.275 497.247 305.475 497.247 304.568C497.247 303.651 497.433 302.845 497.807 302.152C498.18 301.459 498.703 300.925 499.375 300.552C500.047 300.179 500.82 299.992 501.695 299.992C502.537 299.992 503.289 300.173 503.951 300.536C504.623 300.899 505.14 301.416 505.503 302.088C505.876 302.749 506.063 303.512 506.063 304.376ZM503.743 303.736C503.732 303.16 503.524 302.701 503.119 302.36C502.713 302.008 502.217 301.832 501.631 301.832C501.076 301.832 500.607 302.003 500.223 302.344C499.849 302.675 499.62 303.139 499.535 303.736H503.743ZM507.122 304.536C507.122 303.64 507.298 302.845 507.65 302.152C508.012 301.459 508.498 300.925 509.106 300.552C509.724 300.179 510.412 299.992 511.17 299.992C511.831 299.992 512.407 300.125 512.898 300.392C513.399 300.659 513.799 300.995 514.098 301.4V300.136H516.354V309H514.098V307.704C513.81 308.12 513.41 308.467 512.898 308.744C512.396 309.011 511.815 309.144 511.154 309.144C510.407 309.144 509.724 308.952 509.106 308.568C508.498 308.184 508.012 307.645 507.65 306.952C507.298 306.248 507.122 305.443 507.122 304.536ZM514.098 304.568C514.098 304.024 513.991 303.56 513.778 303.176C513.564 302.781 513.276 302.483 512.914 302.28C512.551 302.067 512.162 301.96 511.746 301.96C511.33 301.96 510.946 302.061 510.594 302.264C510.242 302.467 509.954 302.765 509.73 303.16C509.516 303.544 509.41 304.003 509.41 304.536C509.41 305.069 509.516 305.539 509.73 305.944C509.954 306.339 510.242 306.643 510.594 306.856C510.956 307.069 511.34 307.176 511.746 307.176C512.162 307.176 512.551 307.075 512.914 306.872C513.276 306.659 513.564 306.36 513.778 305.976C513.991 305.581 514.098 305.112 514.098 304.568ZM517.965 304.536C517.965 303.64 518.141 302.845 518.493 302.152C518.856 301.459 519.347 300.925 519.966 300.552C520.584 300.179 521.272 299.992 522.03 299.992C522.606 299.992 523.155 300.12 523.678 300.376C524.2 300.621 524.616 300.952 524.926 301.368V297.16H527.198V309H524.926V307.688C524.648 308.125 524.259 308.477 523.758 308.744C523.256 309.011 522.675 309.144 522.014 309.144C521.267 309.144 520.584 308.952 519.966 308.568C519.347 308.184 518.856 307.645 518.493 306.952C518.141 306.248 517.965 305.443 517.965 304.536ZM524.942 304.568C524.942 304.024 524.835 303.56 524.622 303.176C524.408 302.781 524.12 302.483 523.758 302.28C523.395 302.067 523.006 301.96 522.59 301.96C522.174 301.96 521.79 302.061 521.438 302.264C521.086 302.467 520.798 302.765 520.574 303.16C520.36 303.544 520.254 304.003 520.254 304.536C520.254 305.069 520.36 305.539 520.574 305.944C520.798 306.339 521.086 306.643 521.438 306.856C521.8 307.069 522.184 307.176 522.59 307.176C523.006 307.176 523.395 307.075 523.758 306.872C524.12 306.659 524.408 306.36 524.622 305.976C524.835 305.581 524.942 305.112 524.942 304.568ZM537.625 304.376C537.625 304.696 537.604 304.984 537.561 305.24H531.081C531.135 305.88 531.359 306.381 531.753 306.744C532.148 307.107 532.633 307.288 533.209 307.288C534.041 307.288 534.633 306.931 534.985 306.216H537.401C537.145 307.069 536.655 307.773 535.929 308.328C535.204 308.872 534.313 309.144 533.257 309.144C532.404 309.144 531.636 308.957 530.953 308.584C530.281 308.2 529.753 307.661 529.369 306.968C528.996 306.275 528.809 305.475 528.809 304.568C528.809 303.651 528.996 302.845 529.369 302.152C529.743 301.459 530.265 300.925 530.937 300.552C531.609 300.179 532.383 299.992 533.257 299.992C534.1 299.992 534.852 300.173 535.513 300.536C536.185 300.899 536.703 301.416 537.065 302.088C537.439 302.749 537.625 303.512 537.625 304.376ZM535.305 303.736C535.295 303.16 535.087 302.701 534.681 302.36C534.276 302.008 533.78 301.832 533.193 301.832C532.639 301.832 532.169 302.003 531.785 302.344C531.412 302.675 531.183 303.139 531.097 303.736H535.305ZM541.5 301.512C541.788 301.043 542.162 300.675 542.62 300.408C543.09 300.141 543.623 300.008 544.22 300.008V302.36H543.628C542.924 302.36 542.391 302.525 542.028 302.856C541.676 303.187 541.5 303.763 541.5 304.584V309H539.26V300.136H541.5V301.512Z" fill="#444444"/>
</g>
<g clip-path="url(#clip7_85_358)">
<path d="M924.308 233.054C965.347 233.054 998.616 199.784 998.616 158.743C998.616 117.702 965.347 84.4316 924.308 84.4316C883.269 84.4316 850 117.702 850 158.743C850 199.784 883.269 233.054 924.308 233.054Z" fill="white" stroke="#444444" stroke-width="0.862234" stroke-linecap="round" stroke-linejoin="round"/>
<g clip-path="url(#clip8_85_358)">
<path fill-rule="evenodd" clip-rule="evenodd" d="M947.204 171.02H901.796C900.804 171.02 900 170.213 900 169.22V158.91C900 153.697 903.872 149.68 910.358 148.165L918.146 146.342C919.111 146.117 920.077 146.717 920.301 147.689C920.525 148.656 919.927 149.624 918.962 149.849L911.174 151.668C908.895 152.2 903.591 153.974 903.591 158.906V167.416H945.409V158.906C945.409 153.974 940.108 152.2 937.83 151.668L930.042 149.845C929.073 149.62 928.475 148.653 928.699 147.685C928.923 146.717 929.889 146.114 930.857 146.342L938.646 148.165C945.128 149.68 949 153.697 949 158.91V169.22C949 170.213 948.196 171.02 947.204 171.02Z" fill="#9F9F9F"/>
<path fill-rule="evenodd" clip-rule="evenodd" d="M918.554 149.898C917.563 149.898 916.759 149.092 916.759 148.098V144.145C916.759 143.151 917.563 142.345 918.554 142.345C919.545 142.345 920.35 143.151 920.35 144.145V148.098C920.35 149.092 919.545 149.898 918.554 149.898Z" fill="#9F9F9F"/>
<path fill-rule="evenodd" clip-rule="evenodd" d="M930.45 149.898C929.455 149.898 928.654 149.092 928.654 148.098V144.145C928.654 143.151 929.455 142.345 930.45 142.345C931.445 142.345 932.245 143.151 932.245 144.145V148.098C932.245 149.092 931.441 149.898 930.45 149.898Z" fill="#9F9F9F"/>
<path fill-rule="evenodd" clip-rule="evenodd" d="M924.502 148.277C918.659 148.277 913.904 143.511 913.904 137.652V131.633C913.904 130.639 914.709 129.833 915.7 129.833C916.691 129.833 917.495 130.639 917.495 131.633V137.652C917.495 141.527 920.638 144.677 924.502 144.677C928.366 144.677 931.508 141.527 931.508 137.652V131.633C931.508 130.639 932.312 129.833 933.304 129.833C934.295 129.833 935.099 130.639 935.099 131.633V137.652C935.099 143.511 930.345 148.277 924.502 148.277Z" fill="#9F9F9F"/>
<path fill-rule="evenodd" clip-rule="evenodd" d="M933.495 136.348H933.304C932.312 136.348 931.508 135.541 931.508 134.547C931.508 133.553 932.312 132.747 933.304 132.747H933.495C934.059 132.747 934.538 132.271 934.538 131.705V131.217C934.546 129.822 934.557 127.913 933.88 127.23C933.786 127.137 933.498 126.844 932.556 126.844C931.564 126.844 930.76 126.038 930.76 125.044V124.658C930.76 123.461 927.775 121.62 923.806 121.62C921.281 121.62 919.01 122.389 917.421 123.788C915.46 125.513 914.465 128.168 914.465 131.686C914.465 132.26 914.948 132.747 915.524 132.747H915.7C916.691 132.747 917.495 133.553 917.495 134.547C917.495 135.541 916.691 136.348 915.7 136.348H915.524C912.958 136.348 910.874 134.259 910.874 131.686C910.874 125.955 913.149 122.756 915.053 121.08C917.301 119.107 920.409 118.02 923.806 118.02C928.351 118.02 933.221 120.06 934.179 123.435C935.066 123.656 935.818 124.076 936.424 124.691C938.156 126.435 938.141 129.098 938.129 131.236V131.705C938.129 134.266 936.049 136.348 933.495 136.348Z" fill="#9F9F9F"/>
<path fill-rule="evenodd" clip-rule="evenodd" d="M933.304 133.434C933.229 133.434 933.154 133.43 933.076 133.419C929.421 132.954 928.145 131.9 927.12 130.362C924.132 132.128 919.093 133.017 915.924 133.419C914.937 133.542 914.043 132.845 913.916 131.858C913.792 130.872 914.488 129.972 915.472 129.845C921.464 129.079 925.415 127.628 926.084 126.649C926.421 126.162 926.974 125.869 927.566 125.869C928.157 125.869 928.71 126.162 929.043 126.649C929.335 127.073 929.563 127.463 929.765 127.804C930.487 129.034 930.76 129.492 933.528 129.845C934.512 129.968 935.208 130.872 935.084 131.858C934.968 132.766 934.198 133.434 933.304 133.434Z" fill="#9F9F9F"/>
<path fill-rule="evenodd" clip-rule="evenodd" d="M924.502 156.491C924.012 156.491 923.526 156.292 923.17 155.898L917.223 149.305C916.557 148.566 916.613 147.43 917.35 146.762C918.087 146.095 919.22 146.155 919.886 146.89L925.834 153.483C926.5 154.222 926.44 155.358 925.707 156.026C925.362 156.337 924.932 156.491 924.502 156.491Z" fill="#9F9F9F"/>
<path fill-rule="evenodd" clip-rule="evenodd" d="M924.502 156.49C924.072 156.49 923.642 156.336 923.297 156.025C922.561 155.358 922.504 154.221 923.17 153.482L929.118 146.889C929.784 146.15 930.917 146.094 931.654 146.762C932.387 147.429 932.444 148.566 931.781 149.305L925.834 155.898C925.478 156.291 924.992 156.49 924.502 156.49Z" fill="#9F9F9F"/>
</g>
<path d="M889.188 182.852C890.361 182.852 891.39 183.081 892.276 183.54C893.172 183.998 893.86 184.654 894.34 185.508C894.83 186.35 895.076 187.332 895.076 188.452C895.076 189.572 894.83 190.553 894.34 191.396C893.86 192.228 893.172 192.873 892.276 193.332C891.39 193.79 890.361 194.02 889.188 194.02H885.284V182.852H889.188ZM889.108 192.116C890.281 192.116 891.188 191.796 891.828 191.156C892.468 190.516 892.788 189.614 892.788 188.452C892.788 187.289 892.468 186.382 891.828 185.732C891.188 185.07 890.281 184.74 889.108 184.74H887.524V192.116H889.108ZM904.992 189.396C904.992 189.716 904.971 190.004 904.928 190.26H898.448C898.502 190.9 898.726 191.401 899.12 191.764C899.515 192.126 900 192.308 900.576 192.308C901.408 192.308 902 191.95 902.352 191.236H904.768C904.512 192.089 904.022 192.793 903.296 193.348C902.571 193.892 901.68 194.164 900.624 194.164C899.771 194.164 899.003 193.977 898.32 193.604C897.648 193.22 897.12 192.681 896.736 191.988C896.363 191.294 896.176 190.494 896.176 189.588C896.176 188.67 896.363 187.865 896.736 187.172C897.11 186.478 897.632 185.945 898.304 185.572C898.976 185.198 899.75 185.012 900.624 185.012C901.467 185.012 902.219 185.193 902.88 185.556C903.552 185.918 904.07 186.436 904.432 187.108C904.806 187.769 904.992 188.532 904.992 189.396ZM902.672 188.756C902.662 188.18 902.454 187.721 902.048 187.38C901.643 187.028 901.147 186.852 900.56 186.852C900.006 186.852 899.536 187.022 899.152 187.364C898.779 187.694 898.55 188.158 898.464 188.756H902.672ZM910.323 191.956L912.563 185.156H914.947L911.667 194.02H908.947L905.683 185.156H908.083L910.323 191.956ZM924.446 189.396C924.446 189.716 924.424 190.004 924.382 190.26H917.902C917.955 190.9 918.179 191.401 918.574 191.764C918.968 192.126 919.454 192.308 920.03 192.308C920.862 192.308 921.454 191.95 921.806 191.236H924.222C923.966 192.089 923.475 192.793 922.75 193.348C922.024 193.892 921.134 194.164 920.078 194.164C919.224 194.164 918.456 193.977 917.774 193.604C917.102 193.22 916.574 192.681 916.19 191.988C915.816 191.294 915.63 190.494 915.63 189.588C915.63 188.67 915.816 187.865 916.19 187.172C916.563 186.478 917.086 185.945 917.758 185.572C918.43 185.198 919.203 185.012 920.078 185.012C920.92 185.012 921.672 185.193 922.334 185.556C923.006 185.918 923.523 186.436 923.886 187.108C924.259 187.769 924.446 188.532 924.446 189.396ZM922.126 188.756C922.115 188.18 921.907 187.721 921.502 187.38C921.096 187.028 920.6 186.852 920.014 186.852C919.459 186.852 918.99 187.022 918.606 187.364C918.232 187.694 918.003 188.158 917.918 188.756H922.126ZM928.321 182.18V194.02H926.081V182.18H928.321ZM934.47 194.164C933.616 194.164 932.848 193.977 932.166 193.604C931.483 193.22 930.944 192.681 930.55 191.988C930.166 191.294 929.974 190.494 929.974 189.588C929.974 188.681 930.171 187.881 930.566 187.188C930.971 186.494 931.52 185.961 932.214 185.588C932.907 185.204 933.68 185.012 934.534 185.012C935.387 185.012 936.16 185.204 936.854 185.588C937.547 185.961 938.091 186.494 938.486 187.188C938.891 187.881 939.094 188.681 939.094 189.588C939.094 190.494 938.886 191.294 938.47 191.988C938.064 192.681 937.51 193.22 936.806 193.604C936.112 193.977 935.334 194.164 934.47 194.164ZM934.47 192.212C934.875 192.212 935.254 192.116 935.606 191.924C935.968 191.721 936.256 191.422 936.47 191.028C936.683 190.633 936.79 190.153 936.79 189.588C936.79 188.745 936.566 188.1 936.118 187.652C935.68 187.193 935.142 186.964 934.502 186.964C933.862 186.964 933.323 187.193 932.886 187.652C932.459 188.1 932.246 188.745 932.246 189.588C932.246 190.43 932.454 191.081 932.87 191.54C933.296 191.988 933.83 192.212 934.47 192.212ZM942.977 186.436C943.265 186.03 943.659 185.694 944.161 185.428C944.673 185.15 945.254 185.012 945.905 185.012C946.662 185.012 947.345 185.198 947.953 185.572C948.571 185.945 949.057 186.478 949.409 187.172C949.771 187.854 949.953 188.649 949.953 189.556C949.953 190.462 949.771 191.268 949.409 191.972C949.057 192.665 948.571 193.204 947.953 193.588C947.345 193.972 946.662 194.164 945.905 194.164C945.254 194.164 944.678 194.03 944.177 193.764C943.686 193.497 943.286 193.161 942.977 192.756V198.244H940.737V185.156H942.977V186.436ZM947.665 189.556C947.665 189.022 947.553 188.564 947.329 188.18C947.115 187.785 946.827 187.486 946.465 187.284C946.113 187.081 945.729 186.98 945.313 186.98C944.907 186.98 944.523 187.086 944.161 187.3C943.809 187.502 943.521 187.801 943.297 188.196C943.083 188.59 942.977 189.054 942.977 189.588C942.977 190.121 943.083 190.585 943.297 190.98C943.521 191.374 943.809 191.678 944.161 191.892C944.523 192.094 944.907 192.196 945.313 192.196C945.729 192.196 946.113 192.089 946.465 191.876C946.827 191.662 947.115 191.358 947.329 190.964C947.553 190.569 947.665 190.1 947.665 189.556ZM959.821 189.396C959.821 189.716 959.799 190.004 959.757 190.26H953.277C953.33 190.9 953.554 191.401 953.949 191.764C954.343 192.126 954.829 192.308 955.405 192.308C956.237 192.308 956.829 191.95 957.181 191.236H959.597C959.341 192.089 958.85 192.793 958.125 193.348C957.399 193.892 956.509 194.164 955.453 194.164C954.599 194.164 953.831 193.977 953.149 193.604C952.477 193.22 951.949 192.681 951.565 191.988C951.191 191.294 951.005 190.494 951.005 189.588C951.005 188.67 951.191 187.865 951.565 187.172C951.938 186.478 952.461 185.945 953.133 185.572C953.805 185.198 954.578 185.012 955.453 185.012C956.295 185.012 957.047 185.193 957.709 185.556C958.381 185.918 958.898 186.436 959.261 187.108C959.634 187.769 959.821 188.532 959.821 189.396ZM957.501 188.756C957.49 188.18 957.282 187.721 956.877 187.38C956.471 187.028 955.975 186.852 955.389 186.852C954.834 186.852 954.365 187.022 953.981 187.364C953.607 187.694 953.378 188.158 953.293 188.756H957.501ZM963.696 186.532C963.984 186.062 964.357 185.694 964.816 185.428C965.285 185.161 965.818 185.028 966.416 185.028V187.38H965.824C965.12 187.38 964.586 187.545 964.224 187.876C963.872 188.206 963.696 188.782 963.696 189.604V194.02H961.456V185.156H963.696V186.532Z" fill="#444444"/>
</g>
<g clip-path="url(#clip9_85_358)">
<path d="M924.308 421.054C965.347 421.054 998.616 387.784 998.616 346.743C998.616 305.702 965.347 272.432 924.308 272.432C883.269 272.432 850 305.702 850 346.743C850 387.784 883.269 421.054 924.308 421.054Z" fill="white" stroke="#444444" stroke-width="0.862234" stroke-linecap="round" stroke-linejoin="round"/>
<g clip-path="url(#clip10_85_358)">
<path fill-rule="evenodd" clip-rule="evenodd" d="M947.204 359.02H901.796C900.804 359.02 900 358.213 900 357.22V346.91C900 341.697 903.872 337.68 910.358 336.165L918.146 334.342C919.111 334.117 920.077 334.717 920.301 335.689C920.525 336.656 919.927 337.624 918.962 337.849L911.174 339.668C908.895 340.2 903.591 341.974 903.591 346.906V355.416H945.409V346.906C945.409 341.974 940.108 340.2 937.83 339.668L930.042 337.845C929.073 337.62 928.475 336.653 928.699 335.685C928.923 334.717 929.889 334.114 930.857 334.342L938.646 336.165C945.128 337.68 949 341.697 949 346.91V357.22C949 358.213 948.196 359.02 947.204 359.02Z" fill="#9F9F9F"/>
<path fill-rule="evenodd" clip-rule="evenodd" d="M918.554 337.898C917.563 337.898 916.759 337.092 916.759 336.098V332.145C916.759 331.151 917.563 330.345 918.554 330.345C919.545 330.345 920.35 331.151 920.35 332.145V336.098C920.35 337.092 919.545 337.898 918.554 337.898Z" fill="#9F9F9F"/>
<path fill-rule="evenodd" clip-rule="evenodd" d="M930.45 337.898C929.455 337.898 928.654 337.092 928.654 336.098V332.145C928.654 331.151 929.455 330.345 930.45 330.345C931.445 330.345 932.245 331.151 932.245 332.145V336.098C932.245 337.092 931.441 337.898 930.45 337.898Z" fill="#9F9F9F"/>
<path fill-rule="evenodd" clip-rule="evenodd" d="M924.502 336.277C918.659 336.277 913.904 331.511 913.904 325.652V319.633C913.904 318.639 914.709 317.833 915.7 317.833C916.691 317.833 917.495 318.639 917.495 319.633V325.652C917.495 329.527 920.638 332.677 924.502 332.677C928.366 332.677 931.508 329.527 931.508 325.652V319.633C931.508 318.639 932.312 317.833 933.304 317.833C934.295 317.833 935.099 318.639 935.099 319.633V325.652C935.099 331.511 930.345 336.277 924.502 336.277Z" fill="#9F9F9F"/>
<path fill-rule="evenodd" clip-rule="evenodd" d="M933.495 324.348H933.304C932.312 324.348 931.508 323.541 931.508 322.547C931.508 321.553 932.312 320.747 933.304 320.747H933.495C934.059 320.747 934.538 320.271 934.538 319.705V319.217C934.546 317.822 934.557 315.913 933.88 315.23C933.786 315.137 933.498 314.844 932.556 314.844C931.564 314.844 930.76 314.038 930.76 313.044V312.658C930.76 311.461 927.775 309.62 923.806 309.62C921.281 309.62 919.01 310.389 917.421 311.788C915.46 313.513 914.465 316.168 914.465 319.686C914.465 320.26 914.948 320.747 915.524 320.747H915.7C916.691 320.747 917.495 321.553 917.495 322.547C917.495 323.541 916.691 324.348 915.7 324.348H915.524C912.958 324.348 910.874 322.259 910.874 319.686C910.874 313.955 913.149 310.756 915.053 309.08C917.301 307.107 920.409 306.02 923.806 306.02C928.351 306.02 933.221 308.06 934.179 311.435C935.066 311.656 935.818 312.076 936.424 312.691C938.156 314.435 938.141 317.098 938.129 319.236V319.705C938.129 322.266 936.049 324.348 933.495 324.348Z" fill="#9F9F9F"/>
<path fill-rule="evenodd" clip-rule="evenodd" d="M933.304 321.434C933.229 321.434 933.154 321.43 933.076 321.419C929.421 320.954 928.145 319.9 927.12 318.362C924.132 320.128 919.093 321.017 915.924 321.419C914.937 321.542 914.043 320.845 913.916 319.858C913.792 318.872 914.488 317.972 915.472 317.845C921.464 317.079 925.415 315.628 926.084 314.649C926.421 314.162 926.974 313.869 927.566 313.869C928.157 313.869 928.71 314.162 929.043 314.649C929.335 315.073 929.563 315.463 929.765 315.804C930.487 317.034 930.76 317.492 933.528 317.845C934.512 317.968 935.208 318.872 935.084 319.858C934.968 320.766 934.198 321.434 933.304 321.434Z" fill="#9F9F9F"/>
<path fill-rule="evenodd" clip-rule="evenodd" d="M924.502 344.491C924.012 344.491 923.526 344.292 923.17 343.898L917.223 337.305C916.557 336.566 916.613 335.43 917.35 334.762C918.087 334.095 919.22 334.155 919.886 334.89L925.834 341.483C926.5 342.222 926.44 343.358 925.707 344.026C925.362 344.337 924.932 344.491 924.502 344.491Z" fill="#9F9F9F"/>
<path fill-rule="evenodd" clip-rule="evenodd" d="M924.502 344.49C924.072 344.49 923.642 344.336 923.297 344.025C922.561 343.358 922.504 342.221 923.17 341.482L929.118 334.889C929.784 334.15 930.917 334.094 931.654 334.762C932.387 335.429 932.444 336.566 931.781 337.305L925.834 343.898C925.478 344.291 924.992 344.49 924.502 344.49Z" fill="#9F9F9F"/>
</g>
<path d="M909.017 370.852V372.66H906.041V382.02H903.801V372.66H900.825V370.852H909.017ZM918.891 377.396C918.891 377.716 918.87 378.004 918.827 378.26H912.347C912.4 378.9 912.624 379.401 913.019 379.764C913.414 380.126 913.899 380.308 914.475 380.308C915.307 380.308 915.899 379.95 916.251 379.236H918.667C918.411 380.089 917.92 380.793 917.195 381.348C916.47 381.892 915.579 382.164 914.523 382.164C913.67 382.164 912.902 381.977 912.219 381.604C911.547 381.22 911.019 380.681 910.635 379.988C910.262 379.294 910.075 378.494 910.075 377.588C910.075 376.67 910.262 375.865 910.635 375.172C911.008 374.478 911.531 373.945 912.203 373.572C912.875 373.198 913.648 373.012 914.523 373.012C915.366 373.012 916.118 373.193 916.779 373.556C917.451 373.918 917.968 374.436 918.331 375.108C918.704 375.769 918.891 376.532 918.891 377.396ZM916.571 376.756C916.56 376.18 916.352 375.721 915.947 375.38C915.542 375.028 915.046 374.852 914.459 374.852C913.904 374.852 913.435 375.022 913.051 375.364C912.678 375.694 912.448 376.158 912.363 376.756H916.571ZM923.918 382.164C923.193 382.164 922.542 382.036 921.966 381.78C921.39 381.513 920.931 381.156 920.59 380.708C920.259 380.26 920.078 379.764 920.046 379.22H922.302C922.345 379.561 922.51 379.844 922.798 380.068C923.097 380.292 923.465 380.404 923.902 380.404C924.329 380.404 924.659 380.318 924.894 380.148C925.139 379.977 925.262 379.758 925.262 379.492C925.262 379.204 925.113 378.99 924.814 378.852C924.526 378.702 924.062 378.542 923.422 378.372C922.761 378.212 922.217 378.046 921.79 377.876C921.374 377.705 921.011 377.444 920.702 377.092C920.403 376.74 920.254 376.265 920.254 375.668C920.254 375.177 920.393 374.729 920.67 374.324C920.958 373.918 921.363 373.598 921.886 373.364C922.419 373.129 923.043 373.012 923.758 373.012C924.814 373.012 925.657 373.278 926.286 373.812C926.915 374.334 927.262 375.044 927.326 375.94H925.182C925.15 375.588 925.001 375.31 924.734 375.108C924.478 374.894 924.131 374.788 923.694 374.788C923.289 374.788 922.974 374.862 922.75 375.012C922.537 375.161 922.43 375.369 922.43 375.636C922.43 375.934 922.579 376.164 922.878 376.324C923.177 376.473 923.641 376.628 924.27 376.788C924.91 376.948 925.438 377.113 925.854 377.284C926.27 377.454 926.627 377.721 926.926 378.084C927.235 378.436 927.395 378.905 927.406 379.492C927.406 380.004 927.262 380.462 926.974 380.868C926.697 381.273 926.291 381.593 925.758 381.828C925.235 382.052 924.622 382.164 923.918 382.164ZM931.853 374.996V379.284C931.853 379.582 931.922 379.801 932.061 379.94C932.21 380.068 932.455 380.132 932.797 380.132H933.837V382.02H932.429C930.541 382.02 929.597 381.102 929.597 379.268V374.996H928.541V373.156H929.597V370.964H931.853V373.156H933.837V374.996H931.853ZM943.688 377.396C943.688 377.716 943.666 378.004 943.624 378.26H937.144C937.197 378.9 937.421 379.401 937.816 379.764C938.21 380.126 938.696 380.308 939.272 380.308C940.104 380.308 940.696 379.95 941.048 379.236H943.464C943.208 380.089 942.717 380.793 941.992 381.348C941.266 381.892 940.376 382.164 939.32 382.164C938.466 382.164 937.698 381.977 937.016 381.604C936.344 381.22 935.816 380.681 935.432 379.988C935.058 379.294 934.872 378.494 934.872 377.588C934.872 376.67 935.058 375.865 935.432 375.172C935.805 374.478 936.328 373.945 937 373.572C937.672 373.198 938.445 373.012 939.32 373.012C940.162 373.012 940.914 373.193 941.576 373.556C942.248 373.918 942.765 374.436 943.128 375.108C943.501 375.769 943.688 376.532 943.688 377.396ZM941.368 376.756C941.357 376.18 941.149 375.721 940.744 375.38C940.338 375.028 939.842 374.852 939.256 374.852C938.701 374.852 938.232 375.022 937.848 375.364C937.474 375.694 937.245 376.158 937.16 376.756H941.368ZM947.563 374.532C947.851 374.062 948.224 373.694 948.683 373.428C949.152 373.161 949.685 373.028 950.283 373.028V375.38H949.691C948.987 375.38 948.453 375.545 948.091 375.876C947.739 376.206 947.563 376.782 947.563 377.604V382.02H945.323V373.156H947.563V374.532Z" fill="#444444"/>
</g>
<g clip-path="url(#clip11_85_358)">
<path d="M756.308 149.054C797.347 149.054 830.616 115.784 830.616 74.7427C830.616 33.7019 797.347 0.431641 756.308 0.431641C715.269 0.431641 682 33.7019 682 74.7427C682 115.784 715.269 149.054 756.308 149.054Z" fill="white" stroke="#444444" stroke-width="0.862234" stroke-linecap="round" stroke-linejoin="round"/>
<g clip-path="url(#clip12_85_358)">
<path fill-rule="evenodd" clip-rule="evenodd" d="M779.204 87.0197H733.796C732.804 87.0197 732 86.2134 732 85.2195V74.9098C732 69.6968 735.872 65.6802 742.358 64.1651L750.146 62.3424C751.111 62.1174 752.077 62.7174 752.301 63.6888C752.525 64.6564 751.927 65.6239 750.962 65.849L743.174 67.6679C740.895 68.2004 735.591 69.9744 735.591 74.9061V83.4156H777.409V74.9061C777.409 69.9744 772.108 68.2004 769.83 67.6679L762.042 65.8452C761.073 65.6202 760.475 64.6526 760.699 63.685C760.923 62.7174 761.889 62.1136 762.857 62.3424L770.646 64.1651C777.128 65.6802 781 69.6968 781 74.9098V85.2195C781 86.2134 780.196 87.0197 779.204 87.0197Z" fill="#9F9F9F"/>
<path fill-rule="evenodd" clip-rule="evenodd" d="M750.554 65.8979C749.563 65.8979 748.759 65.0916 748.759 64.0978V60.1449C748.759 59.1511 749.563 58.3447 750.554 58.3447C751.545 58.3447 752.35 59.1511 752.35 60.1449V64.0978C752.35 65.0916 751.545 65.8979 750.554 65.8979Z" fill="#9F9F9F"/>
<path fill-rule="evenodd" clip-rule="evenodd" d="M762.45 65.8979C761.455 65.8979 760.654 65.0916 760.654 64.0978V60.1449C760.654 59.1511 761.455 58.3447 762.45 58.3447C763.445 58.3447 764.245 59.1511 764.245 60.1449V64.0978C764.245 65.0916 763.441 65.8979 762.45 65.8979Z" fill="#9F9F9F"/>
<path fill-rule="evenodd" clip-rule="evenodd" d="M756.502 64.2772C750.659 64.2772 745.904 59.5105 745.904 53.6525V47.6332C745.904 46.6393 746.709 45.833 747.7 45.833C748.691 45.833 749.495 46.6393 749.495 47.6332V53.6525C749.495 57.5266 752.638 60.6769 756.502 60.6769C760.366 60.6769 763.508 57.5266 763.508 53.6525V47.6332C763.508 46.6393 764.312 45.833 765.304 45.833C766.295 45.833 767.099 46.6393 767.099 47.6332V53.6525C767.099 59.5105 762.345 64.2772 756.502 64.2772Z" fill="#9F9F9F"/>
<path fill-rule="evenodd" clip-rule="evenodd" d="M765.495 52.3475H765.304C764.312 52.3475 763.508 51.5412 763.508 50.5473C763.508 49.5535 764.312 48.7472 765.304 48.7472H765.495C766.059 48.7472 766.538 48.2709 766.538 47.7046V47.217C766.546 45.8219 766.557 43.913 765.88 43.2304C765.786 43.1366 765.498 42.8441 764.556 42.8441C763.564 42.8441 762.76 42.0378 762.76 41.0439V40.6577C762.76 39.4613 759.775 37.6199 755.806 37.6199C753.281 37.6199 751.01 38.3887 749.421 39.7876C747.46 41.5127 746.465 44.168 746.465 47.6858C746.465 48.2596 746.948 48.7472 747.524 48.7472H747.7C748.691 48.7472 749.495 49.5535 749.495 50.5473C749.495 51.5412 748.691 52.3475 747.7 52.3475H747.524C744.958 52.3475 742.874 50.2586 742.874 47.6858C742.874 41.9553 745.149 38.7562 747.053 37.0798C749.301 35.1071 752.409 34.0195 755.806 34.0195C760.351 34.0195 765.221 36.0597 766.179 39.435C767.066 39.6563 767.818 40.0764 768.424 40.6914C770.156 42.4353 770.141 45.0981 770.129 47.2358V47.7046C770.129 50.2661 768.049 52.3475 765.495 52.3475Z" fill="#9F9F9F"/>
<path fill-rule="evenodd" clip-rule="evenodd" d="M765.304 49.4336C765.229 49.4336 765.154 49.4299 765.076 49.4186C761.421 48.9536 760.145 47.8997 759.12 46.3621C756.132 48.1285 751.093 49.0173 747.924 49.4186C746.937 49.5424 746.043 48.8448 745.916 47.8585C745.792 46.8721 746.488 45.972 747.472 45.8445C753.464 45.0794 757.415 43.6281 758.084 42.6492C758.421 42.1617 758.974 41.8691 759.566 41.8691C760.157 41.8691 760.71 42.1617 761.043 42.6492C761.335 43.073 761.563 43.463 761.765 43.8043C762.487 45.0344 762.76 45.492 765.528 45.8445C766.512 45.9683 767.208 46.8721 767.084 47.8585C766.968 48.766 766.198 49.4336 765.304 49.4336Z" fill="#9F9F9F"/>
<path fill-rule="evenodd" clip-rule="evenodd" d="M756.502 72.4908C756.012 72.4908 755.526 72.2921 755.17 71.8983L749.223 65.3052C748.557 64.5663 748.613 63.43 749.35 62.7624C750.087 62.0949 751.22 62.1549 751.886 62.8899L757.834 69.4831C758.5 70.2219 758.44 71.3582 757.707 72.0258C757.362 72.3371 756.932 72.4908 756.502 72.4908Z" fill="#9F9F9F"/>
<path fill-rule="evenodd" clip-rule="evenodd" d="M756.502 72.4902C756.072 72.4902 755.642 72.3364 755.297 72.0252C754.561 71.3576 754.504 70.2212 755.17 69.4824L761.118 62.8893C761.784 62.1505 762.917 62.0942 763.654 62.7618C764.387 63.4293 764.444 64.5657 763.781 65.3045L757.834 71.8976C757.478 72.2914 756.992 72.4902 756.502 72.4902Z" fill="#9F9F9F"/>
</g>
<path d="M726.367 98.8515C727.541 98.8515 728.57 99.0809 729.455 99.5395C730.351 99.9982 731.039 100.654 731.519 101.508C732.01 102.35 732.255 103.332 732.255 104.452C732.255 105.572 732.01 106.553 731.519 107.396C731.039 108.228 730.351 108.873 729.455 109.332C728.57 109.79 727.541 110.02 726.367 110.02H722.463V98.8515H726.367ZM726.287 108.116C727.461 108.116 728.367 107.796 729.007 107.156C729.647 106.516 729.967 105.614 729.967 104.452C729.967 103.289 729.647 102.382 729.007 101.732C728.367 101.07 727.461 100.74 726.287 100.74H724.703V108.116H726.287ZM742.172 105.396C742.172 105.716 742.151 106.004 742.108 106.26H735.628C735.681 106.9 735.905 107.401 736.3 107.764C736.695 108.126 737.18 108.308 737.756 108.308C738.588 108.308 739.18 107.95 739.532 107.236H741.948C741.692 108.089 741.201 108.793 740.476 109.348C739.751 109.892 738.86 110.164 737.804 110.164C736.951 110.164 736.183 109.977 735.5 109.604C734.828 109.22 734.3 108.681 733.916 107.988C733.543 107.294 733.356 106.494 733.356 105.588C733.356 104.67 733.543 103.865 733.916 103.172C734.289 102.478 734.812 101.945 735.484 101.572C736.156 101.198 736.929 101.012 737.804 101.012C738.647 101.012 739.399 101.193 740.06 101.556C740.732 101.918 741.249 102.436 741.612 103.108C741.985 103.769 742.172 104.532 742.172 105.396ZM739.852 104.756C739.841 104.18 739.633 103.721 739.228 103.38C738.823 103.028 738.327 102.852 737.74 102.852C737.185 102.852 736.716 103.022 736.332 103.364C735.959 103.694 735.729 104.158 735.644 104.756H739.852ZM747.199 110.164C746.474 110.164 745.823 110.036 745.247 109.78C744.671 109.513 744.212 109.156 743.871 108.708C743.54 108.26 743.359 107.764 743.327 107.22H745.583C745.626 107.561 745.791 107.844 746.079 108.068C746.378 108.292 746.746 108.404 747.183 108.404C747.61 108.404 747.94 108.318 748.175 108.148C748.42 107.977 748.543 107.758 748.543 107.492C748.543 107.204 748.394 106.99 748.095 106.852C747.807 106.702 747.343 106.542 746.703 106.372C746.042 106.212 745.498 106.046 745.071 105.876C744.655 105.705 744.292 105.444 743.983 105.092C743.684 104.74 743.535 104.265 743.535 103.668C743.535 103.177 743.674 102.729 743.951 102.324C744.239 101.918 744.644 101.598 745.167 101.364C745.7 101.129 746.324 101.012 747.039 101.012C748.095 101.012 748.938 101.278 749.567 101.812C750.196 102.334 750.543 103.044 750.607 103.94H748.463C748.431 103.588 748.282 103.31 748.015 103.108C747.759 102.894 747.412 102.788 746.975 102.788C746.57 102.788 746.255 102.862 746.031 103.012C745.818 103.161 745.711 103.369 745.711 103.636C745.711 103.934 745.86 104.164 746.159 104.324C746.458 104.473 746.922 104.628 747.551 104.788C748.191 104.948 748.719 105.113 749.135 105.284C749.551 105.454 749.908 105.721 750.207 106.084C750.516 106.436 750.676 106.905 750.687 107.492C750.687 108.004 750.543 108.462 750.255 108.868C749.978 109.273 749.572 109.593 749.039 109.828C748.516 110.052 747.903 110.164 747.199 110.164ZM753.662 100.1C753.267 100.1 752.937 99.9769 752.67 99.7315C752.414 99.4755 752.286 99.1609 752.286 98.7875C752.286 98.4142 752.414 98.1049 752.67 97.8595C752.937 97.6035 753.267 97.4755 753.662 97.4755C754.057 97.4755 754.382 97.6035 754.638 97.8595C754.905 98.1049 755.038 98.4142 755.038 98.7875C755.038 99.1609 754.905 99.4755 754.638 99.7315C754.382 99.9769 754.057 100.1 753.662 100.1ZM754.766 101.156V110.02H752.526V101.156H754.766ZM760.451 101.012C761.112 101.012 761.694 101.145 762.195 101.412C762.696 101.668 763.091 102.004 763.379 102.42V101.156H765.635V110.084C765.635 110.905 765.47 111.636 765.139 112.276C764.808 112.926 764.312 113.438 763.651 113.812C762.99 114.196 762.19 114.388 761.251 114.388C759.992 114.388 758.958 114.094 758.147 113.508C757.347 112.921 756.894 112.121 756.787 111.108H759.011C759.128 111.513 759.379 111.833 759.763 112.068C760.158 112.313 760.632 112.436 761.187 112.436C761.838 112.436 762.366 112.238 762.771 111.844C763.176 111.46 763.379 110.873 763.379 110.084V108.708C763.091 109.124 762.691 109.47 762.179 109.748C761.678 110.025 761.102 110.164 760.451 110.164C759.704 110.164 759.022 109.972 758.403 109.588C757.784 109.204 757.294 108.665 756.931 107.972C756.579 107.268 756.403 106.462 756.403 105.556C756.403 104.66 756.579 103.865 756.931 103.172C757.294 102.478 757.779 101.945 758.387 101.572C759.006 101.198 759.694 101.012 760.451 101.012ZM763.379 105.588C763.379 105.044 763.272 104.58 763.059 104.196C762.846 103.801 762.558 103.502 762.195 103.3C761.832 103.086 761.443 102.98 761.027 102.98C760.611 102.98 760.227 103.081 759.875 103.284C759.523 103.486 759.235 103.785 759.011 104.18C758.798 104.564 758.691 105.022 758.691 105.556C758.691 106.089 758.798 106.558 759.011 106.964C759.235 107.358 759.523 107.662 759.875 107.876C760.238 108.089 760.622 108.196 761.027 108.196C761.443 108.196 761.832 108.094 762.195 107.892C762.558 107.678 762.846 107.38 763.059 106.996C763.272 106.601 763.379 106.132 763.379 105.588ZM772.735 101.028C773.791 101.028 774.644 101.364 775.295 102.036C775.945 102.697 776.271 103.625 776.271 104.82V110.02H774.031V105.124C774.031 104.42 773.855 103.881 773.503 103.508C773.151 103.124 772.671 102.932 772.063 102.932C771.444 102.932 770.953 103.124 770.591 103.508C770.239 103.881 770.063 104.42 770.063 105.124V110.02H767.823V101.156H770.063V102.26C770.361 101.876 770.74 101.577 771.199 101.364C771.668 101.14 772.18 101.028 772.735 101.028ZM786.641 105.396C786.641 105.716 786.62 106.004 786.577 106.26H780.097C780.15 106.9 780.374 107.401 780.769 107.764C781.164 108.126 781.649 108.308 782.225 108.308C783.057 108.308 783.649 107.95 784.001 107.236H786.417C786.161 108.089 785.67 108.793 784.945 109.348C784.22 109.892 783.329 110.164 782.273 110.164C781.42 110.164 780.652 109.977 779.969 109.604C779.297 109.22 778.769 108.681 778.385 107.988C778.012 107.294 777.825 106.494 777.825 105.588C777.825 104.67 778.012 103.865 778.385 103.172C778.758 102.478 779.281 101.945 779.953 101.572C780.625 101.198 781.398 101.012 782.273 101.012C783.116 101.012 783.868 101.193 784.529 101.556C785.201 101.918 785.718 102.436 786.081 103.108C786.454 103.769 786.641 104.532 786.641 105.396ZM784.321 104.756C784.31 104.18 784.102 103.721 783.697 103.38C783.292 103.028 782.796 102.852 782.209 102.852C781.654 102.852 781.185 103.022 780.801 103.364C780.428 103.694 780.198 104.158 780.113 104.756H784.321ZM790.516 102.532C790.804 102.062 791.177 101.694 791.636 101.428C792.105 101.161 792.639 101.028 793.236 101.028V103.38H792.644C791.94 103.38 791.407 103.545 791.044 103.876C790.692 104.206 790.516 104.782 790.516 105.604V110.02H788.276V101.156H790.516V102.532Z" fill="#444444"/>
</g>
<g clip-path="url(#clip13_85_358)">
<path d="M756.308 506.054C797.347 506.054 830.616 472.784 830.616 431.743C830.616 390.702 797.347 357.432 756.308 357.432C715.269 357.432 682 390.702 682 431.743C682 472.784 715.269 506.054 756.308 506.054Z" fill="white" stroke="#444444" stroke-width="0.862234" stroke-linecap="round" stroke-linejoin="round"/>
<g clip-path="url(#clip14_85_358)">
<path fill-rule="evenodd" clip-rule="evenodd" d="M779.204 444.02H733.796C732.804 444.02 732 443.213 732 442.22V431.91C732 426.697 735.872 422.68 742.358 421.165L750.146 419.342C751.111 419.117 752.077 419.717 752.301 420.689C752.525 421.656 751.927 422.624 750.962 422.849L743.174 424.668C740.895 425.2 735.591 426.974 735.591 431.906V440.416H777.409V431.906C777.409 426.974 772.108 425.2 769.83 424.668L762.042 422.845C761.073 422.62 760.475 421.653 760.699 420.685C760.923 419.717 761.889 419.114 762.857 419.342L770.646 421.165C777.128 422.68 781 426.697 781 431.91V442.22C781 443.213 780.196 444.02 779.204 444.02Z" fill="#9F9F9F"/>
<path fill-rule="evenodd" clip-rule="evenodd" d="M750.554 422.898C749.563 422.898 748.759 422.092 748.759 421.098V417.145C748.759 416.151 749.563 415.345 750.554 415.345C751.545 415.345 752.35 416.151 752.35 417.145V421.098C752.35 422.092 751.545 422.898 750.554 422.898Z" fill="#9F9F9F"/>
<path fill-rule="evenodd" clip-rule="evenodd" d="M762.45 422.898C761.455 422.898 760.654 422.092 760.654 421.098V417.145C760.654 416.151 761.455 415.345 762.45 415.345C763.445 415.345 764.245 416.151 764.245 417.145V421.098C764.245 422.092 763.441 422.898 762.45 422.898Z" fill="#9F9F9F"/>
<path fill-rule="evenodd" clip-rule="evenodd" d="M756.502 421.277C750.659 421.277 745.904 416.511 745.904 410.652V404.633C745.904 403.639 746.709 402.833 747.7 402.833C748.691 402.833 749.495 403.639 749.495 404.633V410.652C749.495 414.527 752.638 417.677 756.502 417.677C760.366 417.677 763.508 414.527 763.508 410.652V404.633C763.508 403.639 764.312 402.833 765.304 402.833C766.295 402.833 767.099 403.639 767.099 404.633V410.652C767.099 416.511 762.345 421.277 756.502 421.277Z" fill="#9F9F9F"/>
<path fill-rule="evenodd" clip-rule="evenodd" d="M765.495 409.348H765.304C764.312 409.348 763.508 408.541 763.508 407.547C763.508 406.553 764.312 405.747 765.304 405.747H765.495C766.059 405.747 766.538 405.271 766.538 404.705V404.217C766.546 402.822 766.557 400.913 765.88 400.23C765.786 400.137 765.498 399.844 764.556 399.844C763.564 399.844 762.76 399.038 762.76 398.044V397.658C762.76 396.461 759.775 394.62 755.806 394.62C753.281 394.62 751.01 395.389 749.421 396.788C747.46 398.513 746.465 401.168 746.465 404.686C746.465 405.26 746.948 405.747 747.524 405.747H747.7C748.691 405.747 749.495 406.553 749.495 407.547C749.495 408.541 748.691 409.348 747.7 409.348H747.524C744.958 409.348 742.874 407.259 742.874 404.686C742.874 398.955 745.149 395.756 747.053 394.08C749.301 392.107 752.409 391.02 755.806 391.02C760.351 391.02 765.221 393.06 766.179 396.435C767.066 396.656 767.818 397.076 768.424 397.691C770.156 399.435 770.141 402.098 770.129 404.236V404.705C770.129 407.266 768.049 409.348 765.495 409.348Z" fill="#9F9F9F"/>
<path fill-rule="evenodd" clip-rule="evenodd" d="M765.304 406.434C765.229 406.434 765.154 406.43 765.076 406.419C761.421 405.954 760.145 404.9 759.12 403.362C756.132 405.128 751.093 406.017 747.924 406.419C746.937 406.542 746.043 405.845 745.916 404.858C745.792 403.872 746.488 402.972 747.472 402.845C753.464 402.079 757.415 400.628 758.084 399.649C758.421 399.162 758.974 398.869 759.566 398.869C760.157 398.869 760.71 399.162 761.043 399.649C761.335 400.073 761.563 400.463 761.765 400.804C762.487 402.034 762.76 402.492 765.528 402.845C766.512 402.968 767.208 403.872 767.084 404.858C766.968 405.766 766.198 406.434 765.304 406.434Z" fill="#9F9F9F"/>
<path fill-rule="evenodd" clip-rule="evenodd" d="M756.502 429.491C756.012 429.491 755.526 429.292 755.17 428.898L749.223 422.305C748.557 421.566 748.613 420.43 749.35 419.762C750.087 419.095 751.22 419.155 751.886 419.89L757.834 426.483C758.5 427.222 758.44 428.358 757.707 429.026C757.362 429.337 756.932 429.491 756.502 429.491Z" fill="#9F9F9F"/>
<path fill-rule="evenodd" clip-rule="evenodd" d="M756.502 429.49C756.072 429.49 755.642 429.336 755.297 429.025C754.561 428.358 754.504 427.221 755.17 426.482L761.118 419.889C761.784 419.15 762.917 419.094 763.654 419.762C764.387 420.429 764.444 421.566 763.781 422.305L757.834 428.898C757.478 429.291 756.992 429.49 756.502 429.49Z" fill="#9F9F9F"/>
</g>
<path d="M730.485 455.852C731.658 455.852 732.687 456.081 733.573 456.54C734.469 456.998 735.157 457.654 735.637 458.508C736.127 459.35 736.373 460.332 736.373 461.452C736.373 462.572 736.127 463.553 735.637 464.396C735.157 465.228 734.469 465.873 733.573 466.332C732.687 466.79 731.658 467.02 730.485 467.02H726.581V455.852H730.485ZM730.405 465.116C731.578 465.116 732.485 464.796 733.125 464.156C733.765 463.516 734.085 462.614 734.085 461.452C734.085 460.289 733.765 459.382 733.125 458.732C732.485 458.07 731.578 457.74 730.405 457.74H728.821V465.116H730.405ZM746.289 462.396C746.289 462.716 746.268 463.004 746.225 463.26H739.745C739.799 463.9 740.023 464.401 740.417 464.764C740.812 465.126 741.297 465.308 741.873 465.308C742.705 465.308 743.297 464.95 743.649 464.236H746.065C745.809 465.089 745.319 465.793 744.593 466.348C743.868 466.892 742.977 467.164 741.921 467.164C741.068 467.164 740.3 466.977 739.617 466.604C738.945 466.22 738.417 465.681 738.033 464.988C737.66 464.294 737.473 463.494 737.473 462.588C737.473 461.67 737.66 460.865 738.033 460.172C738.407 459.478 738.929 458.945 739.601 458.572C740.273 458.198 741.047 458.012 741.921 458.012C742.764 458.012 743.516 458.193 744.177 458.556C744.849 458.918 745.367 459.436 745.729 460.108C746.103 460.769 746.289 461.532 746.289 462.396ZM743.969 461.756C743.959 461.18 743.751 460.721 743.345 460.38C742.94 460.028 742.444 459.852 741.857 459.852C741.303 459.852 740.833 460.022 740.449 460.364C740.076 460.694 739.847 461.158 739.761 461.756H743.969ZM751.62 464.956L753.86 458.156H756.244L752.964 467.02H750.244L746.98 458.156H749.38L751.62 464.956ZM762.686 467.132C761.641 467.132 760.681 466.886 759.806 466.396C758.932 465.905 758.238 465.228 757.726 464.364C757.214 463.489 756.958 462.502 756.958 461.404C756.958 460.316 757.214 459.34 757.726 458.476C758.238 457.601 758.932 456.918 759.806 456.428C760.681 455.937 761.641 455.692 762.686 455.692C763.742 455.692 764.702 455.937 765.566 456.428C766.441 456.918 767.129 457.601 767.63 458.476C768.142 459.34 768.398 460.316 768.398 461.404C768.398 462.502 768.142 463.489 767.63 464.364C767.129 465.228 766.441 465.905 765.566 466.396C764.692 466.886 763.732 467.132 762.686 467.132ZM762.686 465.132C763.358 465.132 763.95 464.982 764.462 464.684C764.974 464.374 765.374 463.937 765.662 463.372C765.95 462.806 766.094 462.15 766.094 461.404C766.094 460.657 765.95 460.006 765.662 459.452C765.374 458.886 764.974 458.454 764.462 458.156C763.95 457.857 763.358 457.708 762.686 457.708C762.014 457.708 761.417 457.857 760.894 458.156C760.382 458.454 759.982 458.886 759.694 459.452C759.406 460.006 759.262 460.657 759.262 461.404C759.262 462.15 759.406 462.806 759.694 463.372C759.982 463.937 760.382 464.374 760.894 464.684C761.417 464.982 762.014 465.132 762.686 465.132ZM772.305 459.436C772.593 459.03 772.988 458.694 773.489 458.428C774.001 458.15 774.582 458.012 775.233 458.012C775.99 458.012 776.673 458.198 777.281 458.572C777.9 458.945 778.385 459.478 778.737 460.172C779.1 460.854 779.281 461.649 779.281 462.556C779.281 463.462 779.1 464.268 778.737 464.972C778.385 465.665 777.9 466.204 777.281 466.588C776.673 466.972 775.99 467.164 775.233 467.164C774.582 467.164 774.006 467.03 773.505 466.764C773.014 466.497 772.614 466.161 772.305 465.756V471.244H770.065V458.156H772.305V459.436ZM776.993 462.556C776.993 462.022 776.881 461.564 776.657 461.18C776.444 460.785 776.156 460.486 775.793 460.284C775.441 460.081 775.057 459.98 774.641 459.98C774.236 459.98 773.852 460.086 773.489 460.3C773.137 460.502 772.849 460.801 772.625 461.196C772.412 461.59 772.305 462.054 772.305 462.588C772.305 463.121 772.412 463.585 772.625 463.98C772.849 464.374 773.137 464.678 773.489 464.892C773.852 465.094 774.236 465.196 774.641 465.196C775.057 465.196 775.441 465.089 775.793 464.876C776.156 464.662 776.444 464.358 776.657 463.964C776.881 463.569 776.993 463.1 776.993 462.556ZM784.301 467.164C783.575 467.164 782.925 467.036 782.349 466.78C781.773 466.513 781.314 466.156 780.973 465.708C780.642 465.26 780.461 464.764 780.429 464.22H782.685C782.727 464.561 782.893 464.844 783.181 465.068C783.479 465.292 783.847 465.404 784.285 465.404C784.711 465.404 785.042 465.318 785.277 465.148C785.522 464.977 785.645 464.758 785.645 464.492C785.645 464.204 785.495 463.99 785.197 463.852C784.909 463.702 784.445 463.542 783.805 463.372C783.143 463.212 782.599 463.046 782.173 462.876C781.757 462.705 781.394 462.444 781.085 462.092C780.786 461.74 780.637 461.265 780.637 460.668C780.637 460.177 780.775 459.729 781.053 459.324C781.341 458.918 781.746 458.598 782.269 458.364C782.802 458.129 783.426 458.012 784.141 458.012C785.197 458.012 786.039 458.278 786.669 458.812C787.298 459.334 787.645 460.044 787.709 460.94H785.565C785.533 460.588 785.383 460.31 785.117 460.108C784.861 459.894 784.514 459.788 784.077 459.788C783.671 459.788 783.357 459.862 783.133 460.012C782.919 460.161 782.813 460.369 782.813 460.636C782.813 460.934 782.962 461.164 783.261 461.324C783.559 461.473 784.023 461.628 784.653 461.788C785.293 461.948 785.821 462.113 786.237 462.284C786.653 462.454 787.01 462.721 787.309 463.084C787.618 463.436 787.778 463.905 787.789 464.492C787.789 465.004 787.645 465.462 787.357 465.868C787.079 466.273 786.674 466.593 786.141 466.828C785.618 467.052 785.005 467.164 784.301 467.164Z" fill="#444444"/>
</g>
<defs>
<clipPath id="clip0_85_358">
<rect width="151" height="151" fill="white" transform="translate(0 182)"/>
</clipPath>
<clipPath id="clip1_85_358">
<rect width="49.0735" height="53" fill="white" transform="translate(51 217)"/>
</clipPath>
<clipPath id="clip2_85_358">
<rect width="151" height="150" fill="white" transform="translate(111 357)"/>
</clipPath>
<clipPath id="clip3_85_358">
<rect width="151" height="151" fill="white" transform="translate(224 182)"/>
</clipPath>
<clipPath id="clip4_85_358">
<rect width="49" height="53" fill="white" transform="translate(275 217)"/>
</clipPath>
<clipPath id="clip5_85_358">
<rect width="151" height="151" fill="white" transform="translate(441 182)"/>
</clipPath>
<clipPath id="clip6_85_358">
<rect width="46" height="55" fill="white" transform="translate(493 216)"/>
</clipPath>
<clipPath id="clip7_85_358">
<rect width="151" height="150" fill="white" transform="translate(849 84)"/>
</clipPath>
<clipPath id="clip8_85_358">
<rect width="49" height="53" fill="white" transform="translate(900 118.02)"/>
</clipPath>
<clipPath id="clip9_85_358">
<rect width="151" height="150" fill="white" transform="translate(849 272)"/>
</clipPath>
<clipPath id="clip10_85_358">
<rect width="49" height="53" fill="white" transform="translate(900 306.02)"/>
</clipPath>
<clipPath id="clip11_85_358">
<rect width="151" height="150" fill="white" transform="translate(681)"/>
</clipPath>
<clipPath id="clip12_85_358">
<rect width="49" height="53" fill="white" transform="translate(732 34.0195)"/>
</clipPath>
<clipPath id="clip13_85_358">
<rect width="151" height="150" fill="white" transform="translate(681 357)"/>
</clipPath>
<clipPath id="clip14_85_358">
<rect width="49" height="53" fill="white" transform="translate(732 391.02)"/>
</clipPath>
</defs>
</svg>
