<svg width="40" height="40" viewBox="0 0 40 40" fill="none" xmlns="http://www.w3.org/2000/svg">
<path d="M36.9518 16.4434C37.2209 15.816 37.253 15.1122 37.0421 14.4628C36.8311 13.8135 36.3916 13.2629 35.8051 12.9134L32.5951 11.0001C32.5583 10.9781 32.5263 10.949 32.5011 10.9143C32.4759 10.8796 32.4579 10.8402 32.4484 10.7984L31.6151 7.15175C31.4657 6.48559 31.0787 5.89666 30.5265 5.49513C29.9744 5.09359 29.2949 4.90694 28.6151 4.97009L24.8951 5.30342C24.8094 5.30626 24.7253 5.27981 24.6567 5.22842L21.8417 2.76175C21.3286 2.3145 20.6708 2.06812 19.9901 2.06812C19.3093 2.06812 18.6516 2.3145 18.1384 2.76175L15.3334 5.24342C15.3029 5.27347 15.2657 5.29591 15.2249 5.30894C15.184 5.32196 15.1407 5.32521 15.0984 5.31842L11.3734 4.98509C10.6941 4.92243 10.0152 5.10933 9.4637 5.51085C8.91218 5.91238 8.52578 6.50103 8.37675 7.16675L7.54342 10.8134C7.53391 10.855 7.51618 10.8943 7.49128 10.9289C7.46638 10.9635 7.43481 10.9928 7.39842 11.0151L4.19508 12.9134C3.6086 13.2629 3.16903 13.8135 2.9581 14.4628C2.74718 15.1122 2.77928 15.816 3.04842 16.4434L4.52675 19.8784C4.54321 19.9172 4.55169 19.9588 4.55169 20.0009C4.55169 20.043 4.54321 20.0847 4.52675 20.1234L3.04842 23.5568C2.77928 24.1842 2.74718 24.888 2.9581 25.5373C3.16903 26.1866 3.6086 26.7373 4.19508 27.0868L7.40508 29.0001C7.44191 29.022 7.47389 29.0512 7.4991 29.0859C7.52431 29.1205 7.54222 29.16 7.55175 29.2018L8.38508 32.8484C8.53352 33.5151 8.92025 34.1047 9.47265 34.5064C10.025 34.9081 10.7051 35.0943 11.3851 35.0301L15.1051 34.6968C15.1911 34.6913 15.2761 34.718 15.3434 34.7718L18.1584 37.2384C18.6718 37.6853 19.3294 37.9315 20.0101 37.9315C20.6907 37.9315 21.3484 37.6853 21.8617 37.2384L24.6751 34.7718C24.7071 34.744 24.7445 34.723 24.7849 34.7102C24.8253 34.6973 24.8679 34.6927 24.9101 34.6968L28.6351 35.0301C29.315 35.094 29.9949 34.9076 30.5472 34.5059C31.0995 34.1043 31.4863 33.5149 31.6351 32.8484L32.4684 29.2018C32.4779 29.1602 32.4957 29.1209 32.5206 29.0863C32.5455 29.0516 32.577 29.0223 32.6134 29.0001L35.8251 27.0934C36.4116 26.7439 36.8511 26.1933 37.0621 25.544C37.273 24.8947 37.2409 24.1908 36.9718 23.5634L35.4934 20.1284C35.4769 20.09 35.4684 20.0486 35.4684 20.0068C35.4684 19.9649 35.4769 19.9235 35.4934 19.8851L36.9518 16.4434ZM33.1784 21.1101L34.6568 24.5434C34.6861 24.613 34.6895 24.6909 34.6662 24.7628C34.643 24.8347 34.5947 24.8958 34.5301 24.9351L31.3151 26.8418C30.987 27.0378 30.7022 27.2984 30.4778 27.6078C30.2535 27.9172 30.0944 28.269 30.0101 28.6418L29.1768 32.2884C29.1611 32.3629 29.1183 32.4288 29.0567 32.4735C28.9951 32.5182 28.9191 32.5383 28.8434 32.5301L25.1184 32.1868C24.7387 32.1505 24.3556 32.1928 23.9929 32.3109C23.6302 32.4291 23.2956 32.6205 23.0101 32.8734L20.1951 35.3384C20.1388 35.389 20.0658 35.417 19.9901 35.417C19.9144 35.417 19.8414 35.389 19.7851 35.3384L16.9701 32.8734C16.4538 32.4246 15.7925 32.1777 15.1084 32.1784C15.0251 32.1784 14.9417 32.1784 14.8617 32.1784L11.1368 32.5218C11.0612 32.5296 10.9854 32.5093 10.9238 32.4647C10.8623 32.4201 10.8194 32.3544 10.8034 32.2801L9.97008 28.6334C9.88579 28.2604 9.72647 27.9085 9.50183 27.5991C9.2772 27.2896 8.99194 27.0291 8.66342 26.8334L5.47008 24.9384C5.4055 24.8992 5.35718 24.838 5.33392 24.7661C5.31067 24.6942 5.31404 24.6164 5.34342 24.5468L6.82175 21.1151C6.97236 20.7629 7.05001 20.3839 7.05001 20.0009C7.05001 19.6179 6.97236 19.2389 6.82175 18.8868L5.34342 15.4534C5.31404 15.3838 5.31067 15.3059 5.33392 15.234C5.35718 15.1621 5.4055 15.101 5.47008 15.0618L8.68508 13.1551C9.01317 12.9591 9.29801 12.6985 9.52234 12.389C9.74667 12.0796 9.9058 11.7279 9.99008 11.3551L10.8234 7.70842C10.838 7.63341 10.8806 7.56674 10.9424 7.52188C11.0043 7.47702 11.0809 7.45732 11.1567 7.46675L14.8818 7.81009C15.2613 7.84403 15.6439 7.80069 16.0062 7.68267C16.3686 7.56464 16.7033 7.3744 16.9901 7.12342L19.7951 4.66675C19.8514 4.61615 19.9244 4.58816 20.0001 4.58816C20.0758 4.58816 20.1488 4.61615 20.2051 4.66675L23.0217 7.13175C23.6054 7.63046 24.363 7.8774 25.1284 7.81842L28.8534 7.47509C28.9293 7.46524 29.0061 7.48479 29.0681 7.52971C29.1301 7.57464 29.1725 7.64155 29.1867 7.71675L30.0201 11.3634C30.1044 11.7364 30.2637 12.0883 30.4883 12.3978C30.713 12.7072 30.9982 12.9677 31.3268 13.1634L34.5401 15.0701C34.6047 15.1093 34.653 15.1705 34.6762 15.2424C34.6995 15.3143 34.6961 15.3921 34.6668 15.4618L33.1884 18.8951C33.0371 19.245 32.9581 19.622 32.9564 20.0032C32.9547 20.3845 33.0302 20.7621 33.1784 21.1134V21.1101Z" fill="#46B02D"/>
<path d="M25.6917 14.8949L18.1667 22.5916L14.1417 19.7049C13.8718 19.5119 13.5363 19.4341 13.2091 19.4885C12.8818 19.5429 12.5896 19.725 12.3967 19.9949C12.2037 20.2647 12.1259 20.6002 12.1803 20.9275C12.2346 21.2547 12.4168 21.5469 12.6867 21.7399L17.59 25.2399C17.8322 25.4144 18.129 25.4961 18.4263 25.4701C18.7237 25.4441 19.0018 25.3121 19.21 25.0982L27.4783 16.6349C27.5995 16.519 27.6961 16.3799 27.7624 16.2259C27.8286 16.0719 27.8633 15.9061 27.8642 15.7384C27.8651 15.5708 27.8322 15.4046 27.7676 15.2499C27.703 15.0952 27.6079 14.9551 27.488 14.8379C27.3681 14.7206 27.2259 14.6288 27.0697 14.5677C26.9136 14.5065 26.7468 14.4775 26.5792 14.4822C26.4116 14.4869 26.2466 14.5253 26.0941 14.595C25.9417 14.6648 25.8048 14.7645 25.6917 14.8882V14.8949Z" fill="#46B02D"/>
</svg>
