<svg width="896" height="334" viewBox="0 0 896 334" fill="none" xmlns="http://www.w3.org/2000/svg">
<g clip-path="url(#clip0_85_691)">
<path d="M71.6771 331.678H289.206C305.893 331.678 319.423 321.677 319.423 309.346V233.421C319.423 221.091 305.893 211.09 289.206 211.09H71.6771C69.2825 211.09 67.0313 211.926 65.6036 213.351L20.7547 258.097C12.838 265.995 12.838 276.788 20.7547 284.679L65.6036 329.424C67.0313 330.849 69.2825 331.685 71.6771 331.685V331.678Z" fill="#F1F5F6" stroke="#7798CD" stroke-width="3" stroke-miterlimit="10"/>
<path d="M289.206 331.678H510.542C527.229 331.678 540.759 321.677 540.759 309.346V233.421C540.759 221.091 527.229 211.09 510.542 211.09H289.206L242.098 258.089C234.182 265.988 234.182 276.78 242.098 284.671L289.206 331.67V331.678Z" fill="#F1F5F6" stroke="#7798CD" stroke-width="3" stroke-miterlimit="10"/>
<path d="M510.542 331.678H731.878L684.771 284.679C676.854 276.78 676.854 265.988 684.771 258.097L731.878 211.098H510.542L463.435 258.097C455.518 265.995 455.518 276.788 463.435 284.679L510.542 331.678Z" fill="#F1F5F6" stroke="#7798CD" stroke-width="3" stroke-miterlimit="10"/>
<path d="M722.95 123.287H486.505C469.818 123.287 456.289 113.286 456.289 100.956V25.0306C456.289 12.7005 469.818 2.69922 486.505 2.69922H722.95L770.057 49.6984C777.974 57.5969 777.974 68.3895 770.057 76.2805L722.95 123.28V123.287Z" fill="#F1F5F6" stroke="#7798CD" stroke-width="3" stroke-miterlimit="10"/>
<path d="M486.505 123.287H250.061C233.373 123.287 219.844 113.286 219.844 100.956V25.0306C219.844 12.7005 233.373 2.69922 250.061 2.69922H486.505L533.613 49.6984C541.529 57.5969 541.529 68.3895 533.613 76.2805L486.505 123.28V123.287Z" fill="#F1F5F6" stroke="#7798CD" stroke-width="3" stroke-miterlimit="10"/>
<path d="M250.06 123.287H20.5582C17.5667 123.287 15.7613 120.838 17.3854 118.976L53.6755 77.5994C61.4714 68.7136 61.4714 57.2728 53.6755 48.387L17.393 7.01024C15.7613 5.1562 17.5667 2.69922 20.5657 2.69922H250.06L297.168 49.6984C305.085 57.5969 305.085 68.3895 297.168 76.2805L250.06 123.28V123.287Z" fill="#F1F5F6" stroke="#7798CD" stroke-width="3" stroke-miterlimit="10"/>
<path d="M752.292 265.061C751.743 265.681 751.801 266.629 752.422 267.178L762.533 276.123C763.154 276.672 764.102 276.614 764.65 275.993C765.199 275.373 765.141 274.425 764.521 273.876L755.533 265.925L763.484 256.937C764.033 256.317 763.975 255.369 763.354 254.82C762.734 254.271 761.786 254.329 761.237 254.95L752.292 265.061ZM800.831 91.8773C800.141 91.4185 799.21 91.6058 798.751 92.2956C798.292 92.9854 798.479 93.9165 799.169 94.3752L800.831 91.8773ZM839.891 185.028C833.513 229.39 796.601 261.908 753.324 264.558L753.507 267.552C798.164 264.818 836.275 231.264 842.86 185.455L839.891 185.028ZM799.169 94.3752C828.191 113.677 845.155 148.408 839.891 185.028L842.86 185.455C848.296 147.64 830.774 111.792 800.831 91.8773L799.169 94.3752Z" fill="#7798CD"/>
<path d="M722.572 123.287C747.183 123.287 767.141 143.199 767.141 167.754C767.141 189.188 751.927 207.088 731.69 211.286" stroke="#7798CD" stroke-width="3" stroke-miterlimit="10"/>
<path d="M712.744 2.69899C717.964 2.20156 723.259 1.94531 728.615 1.94531C819.982 1.94531 894.051 75.8432 894.051 167C894.051 258.157 819.982 332.055 728.615 332.055C724.831 332.055 721.084 331.927 717.359 331.678" stroke="#7798CD" stroke-width="3" stroke-miterlimit="10"/>
<path d="M81.58 277.126C80.704 277.126 79.912 276.976 79.204 276.676C78.508 276.376 77.956 275.944 77.548 275.38C77.14 274.816 76.93 274.15 76.918 273.382H79.618C79.654 273.898 79.834 274.306 80.158 274.606C80.494 274.906 80.95 275.056 81.526 275.056C82.114 275.056 82.576 274.918 82.912 274.642C83.248 274.354 83.416 273.982 83.416 273.526C83.416 273.154 83.302 272.848 83.074 272.608C82.846 272.368 82.558 272.182 82.21 272.05C81.874 271.906 81.406 271.75 80.806 271.582C79.99 271.342 79.324 271.108 78.808 270.88C78.304 270.64 77.866 270.286 77.494 269.818C77.134 269.338 76.954 268.702 76.954 267.91C76.954 267.166 77.14 266.518 77.512 265.966C77.884 265.414 78.406 264.994 79.078 264.706C79.75 264.406 80.518 264.256 81.382 264.256C82.678 264.256 83.728 264.574 84.532 265.21C85.348 265.834 85.798 266.71 85.882 267.838H83.11C83.086 267.406 82.9 267.052 82.552 266.776C82.216 266.488 81.766 266.344 81.202 266.344C80.71 266.344 80.314 266.47 80.014 266.722C79.726 266.974 79.582 267.34 79.582 267.82C79.582 268.156 79.69 268.438 79.906 268.666C80.134 268.882 80.41 269.062 80.734 269.206C81.07 269.338 81.538 269.494 82.138 269.674C82.954 269.914 83.62 270.154 84.136 270.394C84.652 270.634 85.096 270.994 85.468 271.474C85.84 271.954 86.026 272.584 86.026 273.364C86.026 274.036 85.852 274.66 85.504 275.236C85.156 275.812 84.646 276.274 83.974 276.622C83.302 276.958 82.504 277.126 81.58 277.126ZM97.6248 267.028V277H95.0868V275.74C94.7628 276.172 94.3368 276.514 93.8088 276.766C93.2928 277.006 92.7288 277.126 92.1168 277.126C91.3368 277.126 90.6468 276.964 90.0468 276.64C89.4468 276.304 88.9728 275.818 88.6248 275.182C88.2888 274.534 88.1208 273.766 88.1208 272.878V267.028H90.6408V272.518C90.6408 273.31 90.8388 273.922 91.2348 274.354C91.6308 274.774 92.1708 274.984 92.8548 274.984C93.5508 274.984 94.0968 274.774 94.4928 274.354C94.8888 273.922 95.0868 273.31 95.0868 272.518V267.028H97.6248ZM102.631 268.468C102.955 268.012 103.399 267.634 103.963 267.334C104.539 267.022 105.193 266.866 105.925 266.866C106.777 266.866 107.545 267.076 108.229 267.496C108.925 267.916 109.471 268.516 109.867 269.296C110.275 270.064 110.479 270.958 110.479 271.978C110.479 272.998 110.275 273.904 109.867 274.696C109.471 275.476 108.925 276.082 108.229 276.514C107.545 276.946 106.777 277.162 105.925 277.162C105.193 277.162 104.545 277.012 103.981 276.712C103.429 276.412 102.979 276.034 102.631 275.578V281.752H100.111V267.028H102.631V268.468ZM107.905 271.978C107.905 271.378 107.779 270.862 107.527 270.43C107.287 269.986 106.963 269.65 106.555 269.422C106.159 269.194 105.727 269.08 105.259 269.08C104.803 269.08 104.371 269.2 103.963 269.44C103.567 269.668 103.243 270.004 102.991 270.448C102.751 270.892 102.631 271.414 102.631 272.014C102.631 272.614 102.751 273.136 102.991 273.58C103.243 274.024 103.567 274.366 103.963 274.606C104.371 274.834 104.803 274.948 105.259 274.948C105.727 274.948 106.159 274.828 106.555 274.588C106.963 274.348 107.287 274.006 107.527 273.562C107.779 273.118 107.905 272.59 107.905 271.978ZM114.83 268.468C115.154 268.012 115.598 267.634 116.162 267.334C116.738 267.022 117.392 266.866 118.124 266.866C118.976 266.866 119.744 267.076 120.428 267.496C121.124 267.916 121.67 268.516 122.066 269.296C122.474 270.064 122.678 270.958 122.678 271.978C122.678 272.998 122.474 273.904 122.066 274.696C121.67 275.476 121.124 276.082 120.428 276.514C119.744 276.946 118.976 277.162 118.124 277.162C117.392 277.162 116.744 277.012 116.18 276.712C115.628 276.412 115.178 276.034 114.83 275.578V281.752H112.31V267.028H114.83V268.468ZM120.104 271.978C120.104 271.378 119.978 270.862 119.726 270.43C119.486 269.986 119.162 269.65 118.754 269.422C118.358 269.194 117.926 269.08 117.458 269.08C117.002 269.08 116.57 269.2 116.162 269.44C115.766 269.668 115.442 270.004 115.19 270.448C114.95 270.892 114.83 271.414 114.83 272.014C114.83 272.614 114.95 273.136 115.19 273.58C115.442 274.024 115.766 274.366 116.162 274.606C116.57 274.834 117.002 274.948 117.458 274.948C117.926 274.948 118.358 274.828 118.754 274.588C119.162 274.348 119.486 274.006 119.726 273.562C119.978 273.118 120.104 272.59 120.104 271.978ZM128.938 277.162C127.978 277.162 127.114 276.952 126.346 276.532C125.578 276.1 124.972 275.494 124.528 274.714C124.096 273.934 123.88 273.034 123.88 272.014C123.88 270.994 124.102 270.094 124.546 269.314C125.002 268.534 125.62 267.934 126.4 267.514C127.18 267.082 128.05 266.866 129.01 266.866C129.97 266.866 130.84 267.082 131.62 267.514C132.4 267.934 133.012 268.534 133.456 269.314C133.912 270.094 134.14 270.994 134.14 272.014C134.14 273.034 133.906 273.934 133.438 274.714C132.982 275.494 132.358 276.1 131.566 276.532C130.786 276.952 129.91 277.162 128.938 277.162ZM128.938 274.966C129.394 274.966 129.82 274.858 130.216 274.642C130.624 274.414 130.948 274.078 131.188 273.634C131.428 273.19 131.548 272.65 131.548 272.014C131.548 271.066 131.296 270.34 130.792 269.836C130.3 269.32 129.694 269.062 128.974 269.062C128.254 269.062 127.648 269.32 127.156 269.836C126.676 270.34 126.436 271.066 126.436 272.014C126.436 272.962 126.67 273.694 127.138 274.21C127.618 274.714 128.218 274.966 128.938 274.966ZM138.508 268.576C138.832 268.048 139.252 267.634 139.768 267.334C140.296 267.034 140.896 266.884 141.568 266.884V269.53H140.902C140.11 269.53 139.51 269.716 139.102 270.088C138.706 270.46 138.508 271.108 138.508 272.032V277H135.988V267.028H138.508V268.576ZM146.199 269.098V273.922C146.199 274.258 146.277 274.504 146.433 274.66C146.601 274.804 146.877 274.876 147.261 274.876H148.431V277H146.847C144.723 277 143.661 275.968 143.661 273.904V269.098H142.473V267.028H143.661V264.562H146.199V267.028H148.431V269.098H146.199Z" fill="#2A4672"/>
<path d="M152.472 266.961C152.472 265.715 152.695 264.74 153.141 264.034C153.595 263.328 154.344 262.976 155.388 262.976C156.432 262.976 157.177 263.328 157.623 264.034C158.077 264.74 158.304 265.715 158.304 266.961C158.304 268.214 158.077 269.196 157.623 269.909C157.177 270.622 156.432 270.978 155.388 270.978C154.344 270.978 153.595 270.622 153.141 269.909C152.695 269.196 152.472 268.214 152.472 266.961ZM156.813 266.961C156.813 266.428 156.777 265.982 156.705 265.622C156.641 265.254 156.504 264.956 156.295 264.725C156.093 264.495 155.791 264.38 155.388 264.38C154.985 264.38 154.679 264.495 154.47 264.725C154.268 264.956 154.131 265.254 154.059 265.622C153.995 265.982 153.962 266.428 153.962 266.961C153.962 267.508 153.995 267.969 154.059 268.343C154.124 268.71 154.261 269.009 154.47 269.24C154.679 269.463 154.985 269.574 155.388 269.574C155.791 269.574 156.097 269.463 156.306 269.24C156.515 269.009 156.651 268.71 156.716 268.343C156.781 267.969 156.813 267.508 156.813 266.961ZM163.86 265.092C163.788 264.79 163.662 264.563 163.482 264.412C163.309 264.261 163.057 264.185 162.726 264.185C162.229 264.185 161.862 264.387 161.625 264.79C161.394 265.186 161.275 265.834 161.268 266.734C161.441 266.446 161.693 266.223 162.024 266.064C162.355 265.899 162.715 265.816 163.104 265.816C163.572 265.816 163.986 265.917 164.346 266.118C164.706 266.32 164.987 266.615 165.189 267.004C165.39 267.386 165.491 267.846 165.491 268.386C165.491 268.898 165.387 269.355 165.178 269.758C164.976 270.154 164.677 270.464 164.281 270.687C163.885 270.91 163.414 271.022 162.867 271.022C162.118 271.022 161.527 270.856 161.095 270.525C160.671 270.194 160.372 269.733 160.199 269.142C160.033 268.545 159.951 267.81 159.951 266.939C159.951 265.622 160.177 264.628 160.631 263.958C161.085 263.282 161.801 262.943 162.78 262.943C163.536 262.943 164.123 263.148 164.541 263.559C164.958 263.969 165.199 264.48 165.264 265.092H163.86ZM162.759 267.058C162.377 267.058 162.057 267.17 161.797 267.393C161.538 267.616 161.409 267.94 161.409 268.365C161.409 268.79 161.527 269.124 161.765 269.369C162.01 269.614 162.352 269.736 162.791 269.736C163.18 269.736 163.486 269.618 163.709 269.38C163.939 269.142 164.055 268.822 164.055 268.419C164.055 268.001 163.943 267.67 163.72 267.425C163.504 267.18 163.183 267.058 162.759 267.058Z" fill="#46B02D"/>
<circle cx="32" cy="272" r="32" fill="#2A4672"/>
<g clip-path="url(#clip1_85_691)">
<path d="M44.8285 284.236C44.4913 282.691 42.7318 276.683 35.9739 274.537C36.6918 274.086 37.3282 273.516 37.8547 272.855H40.4833C42.0069 272.855 43.2464 271.615 43.2464 270.092V266.325C43.2464 265.686 43.0282 265.098 42.6631 264.63C39.1395 254.466 24.8897 254.448 21.3529 264.63C20.988 265.098 20.7697 265.687 20.7697 266.325V270.092C20.7697 271.615 22.0093 272.855 23.5328 272.855H26.1615C26.688 273.516 27.3244 274.086 28.0422 274.537C21.287 276.682 19.5151 282.688 19.1745 284.231C18.8782 285.535 19.8603 287 21.4169 287C25.998 287 38.1672 287 42.5993 286.986C44.1171 286.986 45.1169 285.582 44.8285 284.236ZM41.4869 266.325V270.092C41.4869 270.645 41.0367 271.095 40.4833 271.095H38.9012C39.6705 269.292 39.6705 267.124 38.9012 265.321H40.4833C41.0367 265.321 41.4869 265.772 41.4869 266.325ZM25.115 271.095H23.5328C22.9794 271.095 22.5293 270.645 22.5293 270.092V266.325C22.5293 265.772 22.9795 265.321 23.5328 265.321H25.115C24.3457 267.124 24.3457 269.292 25.115 271.095ZM23.7679 263.562C27.299 257.135 36.7192 257.139 40.2485 263.562H37.8547C34.9795 259.821 29.0353 259.822 26.1615 263.562H23.7679ZM26.296 268.208C26.296 265.059 28.8584 262.496 32.008 262.496C35.8917 262.421 38.7612 266.544 37.3788 270.154H33.8915C32.726 270.197 32.7258 271.87 33.8915 271.913H36.352C32.9717 275.914 26.2962 273.509 26.296 268.208ZM43.0017 285.035C42.9028 285.157 42.7562 285.226 42.5965 285.226C38.1644 285.24 25.9973 285.24 21.4169 285.24C21.0923 285.248 20.8217 284.922 20.8941 284.603C23.6087 272.904 40.2596 272.645 43.1081 284.605C43.1386 284.758 43.1 284.914 43.0017 285.035Z" fill="white"/>
</g>
<path d="M303.722 277L300.95 272.104H299.762V277H297.242V264.436H301.958C302.93 264.436 303.758 264.61 304.442 264.958C305.126 265.294 305.636 265.756 305.972 266.344C306.32 266.92 306.494 267.568 306.494 268.288C306.494 269.116 306.254 269.866 305.774 270.538C305.294 271.198 304.58 271.654 303.632 271.906L306.638 277H303.722ZM299.762 270.214H301.868C302.552 270.214 303.062 270.052 303.398 269.728C303.734 269.392 303.902 268.93 303.902 268.342C303.902 267.766 303.734 267.322 303.398 267.01C303.062 266.686 302.552 266.524 301.868 266.524H299.762V270.214ZM318.043 271.798C318.043 272.158 318.019 272.482 317.971 272.77H310.681C310.741 273.49 310.993 274.054 311.437 274.462C311.881 274.87 312.427 275.074 313.075 275.074C314.011 275.074 314.677 274.672 315.073 273.868H317.791C317.503 274.828 316.951 275.62 316.135 276.244C315.319 276.856 314.317 277.162 313.129 277.162C312.169 277.162 311.305 276.952 310.537 276.532C309.781 276.1 309.187 275.494 308.755 274.714C308.335 273.934 308.125 273.034 308.125 272.014C308.125 270.982 308.335 270.076 308.755 269.296C309.175 268.516 309.763 267.916 310.519 267.496C311.275 267.076 312.145 266.866 313.129 266.866C314.077 266.866 314.923 267.07 315.667 267.478C316.423 267.886 317.005 268.468 317.413 269.224C317.833 269.968 318.043 270.826 318.043 271.798ZM315.433 271.078C315.421 270.43 315.187 269.914 314.731 269.53C314.275 269.134 313.717 268.936 313.057 268.936C312.433 268.936 311.905 269.128 311.473 269.512C311.053 269.884 310.795 270.406 310.699 271.078H315.433ZM322.403 263.68V277H319.883V263.68H322.403ZM334.162 271.798C334.162 272.158 334.138 272.482 334.09 272.77H326.8C326.86 273.49 327.112 274.054 327.556 274.462C328 274.87 328.546 275.074 329.194 275.074C330.13 275.074 330.796 274.672 331.192 273.868H333.91C333.622 274.828 333.07 275.62 332.254 276.244C331.438 276.856 330.436 277.162 329.248 277.162C328.288 277.162 327.424 276.952 326.656 276.532C325.9 276.1 325.306 275.494 324.874 274.714C324.454 273.934 324.244 273.034 324.244 272.014C324.244 270.982 324.454 270.076 324.874 269.296C325.294 268.516 325.882 267.916 326.638 267.496C327.394 267.076 328.264 266.866 329.248 266.866C330.196 266.866 331.042 267.07 331.786 267.478C332.542 267.886 333.124 268.468 333.532 269.224C333.952 269.968 334.162 270.826 334.162 271.798ZM331.552 271.078C331.54 270.43 331.306 269.914 330.85 269.53C330.394 269.134 329.836 268.936 329.176 268.936C328.552 268.936 328.024 269.128 327.592 269.512C327.172 269.884 326.914 270.406 326.818 271.078H331.552ZM335.354 271.978C335.354 270.97 335.552 270.076 335.948 269.296C336.356 268.516 336.902 267.916 337.586 267.496C338.282 267.076 339.056 266.866 339.908 266.866C340.652 266.866 341.3 267.016 341.852 267.316C342.416 267.616 342.866 267.994 343.202 268.45V267.028H345.74V277H343.202V275.542C342.878 276.01 342.428 276.4 341.852 276.712C341.288 277.012 340.634 277.162 339.89 277.162C339.05 277.162 338.282 276.946 337.586 276.514C336.902 276.082 336.356 275.476 335.948 274.696C335.552 273.904 335.354 272.998 335.354 271.978ZM343.202 272.014C343.202 271.402 343.082 270.88 342.842 270.448C342.602 270.004 342.278 269.668 341.87 269.44C341.462 269.2 341.024 269.08 340.556 269.08C340.088 269.08 339.656 269.194 339.26 269.422C338.864 269.65 338.54 269.986 338.288 270.43C338.048 270.862 337.928 271.378 337.928 271.978C337.928 272.578 338.048 273.106 338.288 273.562C338.54 274.006 338.864 274.348 339.26 274.588C339.668 274.828 340.1 274.948 340.556 274.948C341.024 274.948 341.462 274.834 341.87 274.606C342.278 274.366 342.602 274.03 342.842 273.598C343.082 273.154 343.202 272.626 343.202 272.014ZM352.017 277.162C351.201 277.162 350.469 277.018 349.821 276.73C349.173 276.43 348.657 276.028 348.273 275.524C347.901 275.02 347.697 274.462 347.661 273.85H350.199C350.247 274.234 350.433 274.552 350.757 274.804C351.093 275.056 351.507 275.182 351.999 275.182C352.479 275.182 352.851 275.086 353.115 274.894C353.391 274.702 353.529 274.456 353.529 274.156C353.529 273.832 353.361 273.592 353.025 273.436C352.701 273.268 352.179 273.088 351.459 272.896C350.715 272.716 350.103 272.53 349.623 272.338C349.155 272.146 348.747 271.852 348.399 271.456C348.063 271.06 347.895 270.526 347.895 269.854C347.895 269.302 348.051 268.798 348.363 268.342C348.687 267.886 349.143 267.526 349.731 267.262C350.331 266.998 351.033 266.866 351.837 266.866C353.025 266.866 353.973 267.166 354.681 267.766C355.389 268.354 355.779 269.152 355.851 270.16H353.439C353.403 269.764 353.235 269.452 352.935 269.224C352.647 268.984 352.257 268.864 351.765 268.864C351.309 268.864 350.955 268.948 350.703 269.116C350.463 269.284 350.343 269.518 350.343 269.818C350.343 270.154 350.511 270.412 350.847 270.592C351.183 270.76 351.705 270.934 352.413 271.114C353.133 271.294 353.727 271.48 354.195 271.672C354.663 271.864 355.065 272.164 355.401 272.572C355.749 272.968 355.929 273.496 355.941 274.156C355.941 274.732 355.779 275.248 355.455 275.704C355.143 276.16 354.687 276.52 354.087 276.784C353.499 277.036 352.809 277.162 352.017 277.162ZM367.28 271.798C367.28 272.158 367.256 272.482 367.208 272.77H359.918C359.978 273.49 360.23 274.054 360.674 274.462C361.118 274.87 361.664 275.074 362.312 275.074C363.248 275.074 363.914 274.672 364.31 273.868H367.028C366.74 274.828 366.188 275.62 365.372 276.244C364.556 276.856 363.554 277.162 362.366 277.162C361.406 277.162 360.542 276.952 359.774 276.532C359.018 276.1 358.424 275.494 357.992 274.714C357.572 273.934 357.362 273.034 357.362 272.014C357.362 270.982 357.572 270.076 357.992 269.296C358.412 268.516 359 267.916 359.756 267.496C360.512 267.076 361.382 266.866 362.366 266.866C363.314 266.866 364.16 267.07 364.904 267.478C365.66 267.886 366.242 268.468 366.65 269.224C367.07 269.968 367.28 270.826 367.28 271.798ZM364.67 271.078C364.658 270.43 364.424 269.914 363.968 269.53C363.512 269.134 362.954 268.936 362.294 268.936C361.67 268.936 361.142 269.128 360.71 269.512C360.29 269.884 360.032 270.406 359.936 271.078H364.67Z" fill="#2A4672"/>
<path d="M371.347 266.961C371.347 265.715 371.57 264.74 372.016 264.034C372.47 263.328 373.219 262.976 374.263 262.976C375.307 262.976 376.052 263.328 376.498 264.034C376.952 264.74 377.179 265.715 377.179 266.961C377.179 268.214 376.952 269.196 376.498 269.909C376.052 270.622 375.307 270.978 374.263 270.978C373.219 270.978 372.47 270.622 372.016 269.909C371.57 269.196 371.347 268.214 371.347 266.961ZM375.688 266.961C375.688 266.428 375.652 265.982 375.58 265.622C375.516 265.254 375.379 264.956 375.17 264.725C374.968 264.495 374.666 264.38 374.263 264.38C373.86 264.38 373.554 264.495 373.345 264.725C373.143 264.956 373.006 265.254 372.934 265.622C372.87 265.982 372.837 266.428 372.837 266.961C372.837 267.508 372.87 267.969 372.934 268.343C372.999 268.71 373.136 269.009 373.345 269.24C373.554 269.463 373.86 269.574 374.263 269.574C374.666 269.574 374.972 269.463 375.181 269.24C375.39 269.009 375.526 268.71 375.591 268.343C375.656 267.969 375.688 267.508 375.688 266.961ZM383.945 264.434H380.446V266.28C380.597 266.093 380.813 265.942 381.094 265.827C381.374 265.704 381.673 265.643 381.99 265.643C382.566 265.643 383.038 265.769 383.405 266.021C383.772 266.273 384.038 266.597 384.204 266.993C384.37 267.382 384.452 267.8 384.452 268.246C384.452 269.074 384.215 269.74 383.74 270.244C383.272 270.748 382.602 271 381.731 271C380.91 271 380.255 270.795 379.765 270.384C379.276 269.974 378.998 269.438 378.934 268.775H380.402C380.467 269.063 380.611 269.294 380.834 269.466C381.065 269.639 381.356 269.726 381.709 269.726C382.134 269.726 382.454 269.592 382.67 269.326C382.886 269.06 382.994 268.707 382.994 268.268C382.994 267.821 382.883 267.483 382.66 267.252C382.444 267.015 382.123 266.896 381.698 266.896C381.396 266.896 381.144 266.972 380.942 267.123C380.741 267.274 380.597 267.476 380.51 267.728H379.063V263.105H383.945V264.434Z" fill="#46B02D"/>
<circle cx="252" cy="272" r="32" fill="#2A4672"/>
<g clip-path="url(#clip2_85_691)">
<path d="M266.796 257.893C266.728 257.542 266.453 257.268 266.102 257.199C261.768 256.354 256.302 258.239 251.64 262.068C250.428 261.48 249.035 261.261 247.693 261.454C246.233 261.664 244.91 262.325 243.869 263.367L238.192 269.043C237.952 269.283 237.872 269.641 237.987 269.961C238.102 270.281 238.391 270.506 238.73 270.539L244.501 271.094C244.395 271.319 244.293 271.546 244.196 271.772C243.726 272.873 243.959 274.082 244.805 274.928L249.067 279.19C249.624 279.747 250.338 280.038 251.076 280.038C251.458 280.038 251.847 279.96 252.223 279.799C252.453 279.701 252.682 279.598 252.911 279.49L253.467 285.277C253.5 285.615 253.725 285.905 254.045 286.02C254.142 286.054 254.242 286.071 254.342 286.071C254.571 286.071 254.795 285.982 254.963 285.814L260.64 280.138C262.702 278.075 263.201 274.939 261.931 272.352C265.774 267.674 267.633 262.186 266.796 257.893ZM254.567 276.576L247.419 269.428C248.379 267.914 249.547 266.46 250.882 265.125C253.149 262.858 255.707 261.118 258.246 260.033L263.957 265.745C263.092 267.773 261.809 269.819 260.168 271.718C259.757 272.194 259.32 272.663 258.87 273.113C257.535 274.448 256.081 275.616 254.567 276.576ZM263.927 258.753C264.349 258.753 264.763 258.778 265.166 258.828C265.361 260.396 265.166 262.134 264.622 263.924L260.065 259.368C261.394 258.964 262.696 258.753 263.927 258.753ZM240.753 268.968L245.111 264.609C246.434 263.287 248.41 262.83 250.165 263.37C249.988 263.538 249.813 263.709 249.639 263.883C247.945 265.576 246.499 267.456 245.376 269.412L240.753 268.968ZM251.532 278.183C251.099 278.368 250.642 278.28 250.309 277.947L246.048 273.686C245.715 273.353 245.627 272.896 245.812 272.463C246.021 271.973 246.254 271.485 246.508 271.001L252.994 277.487C252.51 277.742 252.022 277.974 251.532 278.183ZM259.397 278.895L255.038 283.254L254.592 278.613C256.546 277.491 258.422 276.047 260.113 274.356C260.288 274.181 260.461 274.001 260.632 273.821C261.19 275.582 260.744 277.548 259.397 278.895Z" fill="white"/>
<path d="M258.406 265.589C257.287 264.47 255.467 264.47 254.349 265.589C253.23 266.708 253.23 268.528 254.349 269.646C254.89 270.188 255.611 270.487 256.377 270.487C257.144 270.487 257.864 270.188 258.406 269.646C259.525 268.528 259.525 266.708 258.406 265.589ZM257.163 268.404C256.953 268.614 256.674 268.729 256.377 268.729C256.08 268.729 255.801 268.614 255.591 268.404C255.158 267.97 255.158 267.265 255.591 266.832C255.808 266.615 256.093 266.507 256.377 266.507C256.662 266.507 256.947 266.615 257.163 266.832C257.597 267.265 257.597 267.97 257.163 268.404Z" fill="white"/>
<path d="M245.59 278.416C245.247 278.072 244.691 278.072 244.348 278.416L237.264 285.499C236.921 285.843 236.921 286.399 237.264 286.742C237.435 286.914 237.66 287 237.885 287C238.11 287 238.335 286.914 238.506 286.742L245.59 279.658C245.933 279.315 245.933 278.759 245.59 278.416Z" fill="white"/>
<path d="M240.383 279.236L242.775 276.844C243.119 276.501 243.119 275.944 242.775 275.601C242.432 275.258 241.876 275.258 241.533 275.601L239.14 277.994C238.797 278.337 238.797 278.893 239.14 279.236C239.312 279.408 239.537 279.494 239.761 279.494C239.986 279.494 240.211 279.408 240.383 279.236Z" fill="white"/>
<path d="M247.162 281.231L244.77 283.624C244.427 283.967 244.427 284.523 244.77 284.866C244.941 285.038 245.166 285.124 245.391 285.124C245.616 285.124 245.841 285.038 246.012 284.866L248.405 282.474C248.748 282.131 248.748 281.574 248.405 281.231C248.062 280.888 247.505 280.888 247.162 281.231Z" fill="white"/>
</g>
<path d="M529.792 264.436V266.47H526.444V277H523.924V266.47H520.576V264.436H529.792ZM540.901 271.798C540.901 272.158 540.877 272.482 540.829 272.77H533.539C533.599 273.49 533.851 274.054 534.295 274.462C534.739 274.87 535.285 275.074 535.933 275.074C536.869 275.074 537.535 274.672 537.931 273.868H540.649C540.361 274.828 539.809 275.62 538.993 276.244C538.177 276.856 537.175 277.162 535.987 277.162C535.027 277.162 534.163 276.952 533.395 276.532C532.639 276.1 532.045 275.494 531.613 274.714C531.193 273.934 530.983 273.034 530.983 272.014C530.983 270.982 531.193 270.076 531.613 269.296C532.033 268.516 532.621 267.916 533.377 267.496C534.133 267.076 535.003 266.866 535.987 266.866C536.935 266.866 537.781 267.07 538.525 267.478C539.281 267.886 539.863 268.468 540.271 269.224C540.691 269.968 540.901 270.826 540.901 271.798ZM538.291 271.078C538.279 270.43 538.045 269.914 537.589 269.53C537.133 269.134 536.575 268.936 535.915 268.936C535.291 268.936 534.763 269.128 534.331 269.512C533.911 269.884 533.653 270.406 533.557 271.078H538.291ZM546.556 277.162C545.74 277.162 545.008 277.018 544.36 276.73C543.712 276.43 543.196 276.028 542.812 275.524C542.44 275.02 542.236 274.462 542.2 273.85H544.738C544.786 274.234 544.972 274.552 545.296 274.804C545.632 275.056 546.046 275.182 546.538 275.182C547.018 275.182 547.39 275.086 547.654 274.894C547.93 274.702 548.068 274.456 548.068 274.156C548.068 273.832 547.9 273.592 547.564 273.436C547.24 273.268 546.718 273.088 545.998 272.896C545.254 272.716 544.642 272.53 544.162 272.338C543.694 272.146 543.286 271.852 542.938 271.456C542.602 271.06 542.434 270.526 542.434 269.854C542.434 269.302 542.59 268.798 542.902 268.342C543.226 267.886 543.682 267.526 544.27 267.262C544.87 266.998 545.572 266.866 546.376 266.866C547.564 266.866 548.512 267.166 549.22 267.766C549.928 268.354 550.318 269.152 550.39 270.16H547.978C547.942 269.764 547.774 269.452 547.474 269.224C547.186 268.984 546.796 268.864 546.304 268.864C545.848 268.864 545.494 268.948 545.242 269.116C545.002 269.284 544.882 269.518 544.882 269.818C544.882 270.154 545.05 270.412 545.386 270.592C545.722 270.76 546.244 270.934 546.952 271.114C547.672 271.294 548.266 271.48 548.734 271.672C549.202 271.864 549.604 272.164 549.94 272.572C550.288 272.968 550.468 273.496 550.48 274.156C550.48 274.732 550.318 275.248 549.994 275.704C549.682 276.16 549.226 276.52 548.626 276.784C548.038 277.036 547.348 277.162 546.556 277.162ZM555.483 269.098V273.922C555.483 274.258 555.561 274.504 555.717 274.66C555.885 274.804 556.161 274.876 556.545 274.876H557.715V277H556.131C554.007 277 552.945 275.968 552.945 273.904V269.098H551.757V267.028H552.945V264.562H555.483V267.028H557.715V269.098H555.483ZM560.805 265.84C560.361 265.84 559.989 265.702 559.689 265.426C559.401 265.138 559.257 264.784 559.257 264.364C559.257 263.944 559.401 263.596 559.689 263.32C559.989 263.032 560.361 262.888 560.805 262.888C561.249 262.888 561.615 263.032 561.903 263.32C562.203 263.596 562.353 263.944 562.353 264.364C562.353 264.784 562.203 265.138 561.903 265.426C561.615 265.702 561.249 265.84 560.805 265.84ZM562.047 267.028V277H559.527V267.028H562.047ZM570.063 266.884C571.251 266.884 572.211 267.262 572.943 268.018C573.675 268.762 574.041 269.806 574.041 271.15V277H571.521V271.492C571.521 270.7 571.323 270.094 570.927 269.674C570.531 269.242 569.991 269.026 569.307 269.026C568.611 269.026 568.059 269.242 567.651 269.674C567.255 270.094 567.057 270.7 567.057 271.492V277H564.537V267.028H567.057V268.27C567.393 267.838 567.819 267.502 568.335 267.262C568.863 267.01 569.439 266.884 570.063 266.884ZM580.343 266.866C581.087 266.866 581.741 267.016 582.305 267.316C582.869 267.604 583.313 267.982 583.637 268.45V267.028H586.175V277.072C586.175 277.996 585.989 278.818 585.617 279.538C585.245 280.27 584.687 280.846 583.943 281.266C583.199 281.698 582.299 281.914 581.243 281.914C579.827 281.914 578.663 281.584 577.751 280.924C576.851 280.264 576.341 279.364 576.221 278.224H578.723C578.855 278.68 579.137 279.04 579.569 279.304C580.013 279.58 580.547 279.718 581.171 279.718C581.903 279.718 582.497 279.496 582.953 279.052C583.409 278.62 583.637 277.96 583.637 277.072V275.524C583.313 275.992 582.863 276.382 582.287 276.694C581.723 277.006 581.075 277.162 580.343 277.162C579.503 277.162 578.735 276.946 578.039 276.514C577.343 276.082 576.791 275.476 576.383 274.696C575.987 273.904 575.789 272.998 575.789 271.978C575.789 270.97 575.987 270.076 576.383 269.296C576.791 268.516 577.337 267.916 578.021 267.496C578.717 267.076 579.491 266.866 580.343 266.866ZM583.637 272.014C583.637 271.402 583.517 270.88 583.277 270.448C583.037 270.004 582.713 269.668 582.305 269.44C581.897 269.2 581.459 269.08 580.991 269.08C580.523 269.08 580.091 269.194 579.695 269.422C579.299 269.65 578.975 269.986 578.723 270.43C578.483 270.862 578.363 271.378 578.363 271.978C578.363 272.578 578.483 273.106 578.723 273.562C578.975 274.006 579.299 274.348 579.695 274.588C580.103 274.828 580.535 274.948 580.991 274.948C581.459 274.948 581.897 274.834 582.305 274.606C582.713 274.366 583.037 274.03 583.277 273.598C583.517 273.154 583.637 272.626 583.637 272.014Z" fill="#2A4672"/>
<path d="M590.864 266.961C590.864 265.715 591.088 264.74 591.534 264.034C591.988 263.328 592.736 262.976 593.78 262.976C594.824 262.976 595.57 263.328 596.016 264.034C596.47 264.74 596.696 265.715 596.696 266.961C596.696 268.214 596.47 269.196 596.016 269.909C595.57 270.622 594.824 270.978 593.78 270.978C592.736 270.978 591.988 270.622 591.534 269.909C591.088 269.196 590.864 268.214 590.864 266.961ZM595.206 266.961C595.206 266.428 595.17 265.982 595.098 265.622C595.033 265.254 594.896 264.956 594.688 264.725C594.486 264.495 594.184 264.38 593.78 264.38C593.377 264.38 593.071 264.495 592.862 264.725C592.661 264.956 592.524 265.254 592.452 265.622C592.387 265.982 592.355 266.428 592.355 266.961C592.355 267.508 592.387 267.969 592.452 268.343C592.517 268.71 592.654 269.009 592.862 269.24C593.071 269.463 593.377 269.574 593.78 269.574C594.184 269.574 594.49 269.463 594.698 269.24C594.907 269.009 595.044 268.71 595.109 268.343C595.174 267.969 595.206 267.508 595.206 266.961ZM598.106 269.466V268.278L601.637 263.224H603.398V268.149H604.348V269.466H603.398V271H601.886V269.466H598.106ZM601.983 264.844L599.769 268.149H601.983V264.844Z" fill="#46B02D"/>
<circle cx="476" cy="272" r="32" fill="#2A4672"/>
<g clip-path="url(#clip3_85_691)">
<mask id="mask0_85_691" style="mask-type:luminance" maskUnits="userSpaceOnUse" x="460" y="257" width="31" height="31">
<path d="M461 257.002H491V287.002H461V257.002Z" fill="white"/>
</mask>
<g mask="url(#mask0_85_691)">
<path d="M490.121 268.428C490.121 274.253 485.399 278.975 479.574 278.975C473.749 278.975 469.027 274.253 469.027 268.428C469.027 262.603 473.749 257.881 479.574 257.881C485.399 257.881 490.121 262.603 490.121 268.428Z" stroke="white" stroke-width="1.75781" stroke-miterlimit="10" stroke-linecap="round" stroke-linejoin="round"/>
<path d="M476.439 265.98L474.301 264.911V263.153" stroke="white" stroke-width="1.75781" stroke-miterlimit="10" stroke-linecap="round" stroke-linejoin="round"/>
<path d="M482.709 265.98L484.847 264.911" stroke="white" stroke-width="1.75781" stroke-miterlimit="10" stroke-linecap="round" stroke-linejoin="round"/>
<path d="M474.301 268.428H476.058" stroke="white" stroke-width="1.75781" stroke-miterlimit="10" stroke-linecap="round" stroke-linejoin="round"/>
<path d="M483.09 268.428H484.847" stroke="white" stroke-width="1.75781" stroke-miterlimit="10" stroke-linecap="round" stroke-linejoin="round"/>
<path d="M483.09 268.428C483.09 272.311 481.516 273.701 479.574 273.701C477.632 273.701 476.058 272.311 476.058 268.428C476.058 264.544 477.632 264.912 479.574 264.912C481.516 264.912 483.09 264.544 483.09 268.428Z" stroke="white" stroke-width="1.75781" stroke-miterlimit="10" stroke-linecap="round" stroke-linejoin="round"/>
<path d="M476.343 270.922L474.301 271.943V273.701" stroke="white" stroke-width="1.75781" stroke-miterlimit="10" stroke-linecap="round" stroke-linejoin="round"/>
<path d="M482.805 270.922L484.847 271.943V273.701" stroke="white" stroke-width="1.75781" stroke-miterlimit="10" stroke-linecap="round" stroke-linejoin="round"/>
<path d="M477.816 264.957V263.154C477.816 262.183 478.603 261.396 479.574 261.396C480.545 261.396 481.332 262.183 481.332 263.154V264.957" stroke="white" stroke-width="1.75781" stroke-miterlimit="10" stroke-linecap="round" stroke-linejoin="round"/>
<path d="M484.847 264.912V263.154" stroke="white" stroke-width="1.75781" stroke-miterlimit="10" stroke-linecap="round" stroke-linejoin="round"/>
<path d="M473.463 277.025L464.879 285.608C464.536 285.951 464.086 286.123 463.636 286.123C463.187 286.123 462.737 285.951 462.394 285.608C461.707 284.921 461.707 283.809 462.394 283.122L470.977 274.539" stroke="white" stroke-width="1.75781" stroke-miterlimit="10"/>
</g>
</g>
<path d="M577.634 58.436C578.954 58.436 580.112 58.694 581.108 59.21C582.116 59.726 582.89 60.464 583.43 61.424C583.982 62.372 584.258 63.476 584.258 64.736C584.258 65.996 583.982 67.1 583.43 68.048C582.89 68.984 582.116 69.71 581.108 70.226C580.112 70.742 578.954 71 577.634 71H573.242V58.436H577.634ZM577.544 68.858C578.864 68.858 579.884 68.498 580.604 67.778C581.324 67.058 581.684 66.044 581.684 64.736C581.684 63.428 581.324 62.408 580.604 61.676C579.884 60.932 578.864 60.56 577.544 60.56H575.762V68.858H577.544ZM595.414 65.798C595.414 66.158 595.39 66.482 595.342 66.77H588.052C588.112 67.49 588.364 68.054 588.808 68.462C589.252 68.87 589.798 69.074 590.446 69.074C591.382 69.074 592.048 68.672 592.444 67.868H595.162C594.874 68.828 594.322 69.62 593.506 70.244C592.69 70.856 591.688 71.162 590.5 71.162C589.54 71.162 588.676 70.952 587.908 70.532C587.152 70.1 586.558 69.494 586.126 68.714C585.706 67.934 585.496 67.034 585.496 66.014C585.496 64.982 585.706 64.076 586.126 63.296C586.546 62.516 587.134 61.916 587.89 61.496C588.646 61.076 589.516 60.866 590.5 60.866C591.448 60.866 592.294 61.07 593.038 61.478C593.794 61.886 594.376 62.468 594.784 63.224C595.204 63.968 595.414 64.826 595.414 65.798ZM592.804 65.078C592.792 64.43 592.558 63.914 592.102 63.53C591.646 63.134 591.088 62.936 590.428 62.936C589.804 62.936 589.276 63.128 588.844 63.512C588.424 63.884 588.166 64.406 588.07 65.078H592.804ZM601.412 68.678L603.932 61.028H606.614L602.924 71H599.864L596.192 61.028H598.892L601.412 68.678ZM617.299 65.798C617.299 66.158 617.275 66.482 617.227 66.77H609.937C609.997 67.49 610.249 68.054 610.693 68.462C611.137 68.87 611.683 69.074 612.331 69.074C613.267 69.074 613.933 68.672 614.329 67.868H617.047C616.759 68.828 616.207 69.62 615.391 70.244C614.575 70.856 613.573 71.162 612.385 71.162C611.425 71.162 610.561 70.952 609.793 70.532C609.037 70.1 608.443 69.494 608.011 68.714C607.591 67.934 607.381 67.034 607.381 66.014C607.381 64.982 607.591 64.076 608.011 63.296C608.431 62.516 609.019 61.916 609.775 61.496C610.531 61.076 611.401 60.866 612.385 60.866C613.333 60.866 614.179 61.07 614.923 61.478C615.679 61.886 616.261 62.468 616.669 63.224C617.089 63.968 617.299 64.826 617.299 65.798ZM614.689 65.078C614.677 64.43 614.443 63.914 613.987 63.53C613.531 63.134 612.973 62.936 612.313 62.936C611.689 62.936 611.161 63.128 610.729 63.512C610.309 63.884 610.051 64.406 609.955 65.078H614.689ZM621.658 57.68V71H619.138V57.68H621.658ZM628.576 71.162C627.616 71.162 626.752 70.952 625.984 70.532C625.216 70.1 624.61 69.494 624.166 68.714C623.734 67.934 623.518 67.034 623.518 66.014C623.518 64.994 623.74 64.094 624.184 63.314C624.64 62.534 625.258 61.934 626.038 61.514C626.818 61.082 627.688 60.866 628.648 60.866C629.608 60.866 630.478 61.082 631.258 61.514C632.038 61.934 632.65 62.534 633.094 63.314C633.55 64.094 633.778 64.994 633.778 66.014C633.778 67.034 633.544 67.934 633.076 68.714C632.62 69.494 631.996 70.1 631.204 70.532C630.424 70.952 629.548 71.162 628.576 71.162ZM628.576 68.966C629.032 68.966 629.458 68.858 629.854 68.642C630.262 68.414 630.586 68.078 630.826 67.634C631.066 67.19 631.186 66.65 631.186 66.014C631.186 65.066 630.934 64.34 630.43 63.836C629.938 63.32 629.332 63.062 628.612 63.062C627.892 63.062 627.286 63.32 626.794 63.836C626.314 64.34 626.074 65.066 626.074 66.014C626.074 66.962 626.308 67.694 626.776 68.21C627.256 68.714 627.856 68.966 628.576 68.966ZM638.147 62.468C638.471 62.012 638.915 61.634 639.479 61.334C640.055 61.022 640.709 60.866 641.441 60.866C642.293 60.866 643.061 61.076 643.745 61.496C644.441 61.916 644.987 62.516 645.383 63.296C645.791 64.064 645.995 64.958 645.995 65.978C645.995 66.998 645.791 67.904 645.383 68.696C644.987 69.476 644.441 70.082 643.745 70.514C643.061 70.946 642.293 71.162 641.441 71.162C640.709 71.162 640.061 71.012 639.497 70.712C638.945 70.412 638.495 70.034 638.147 69.578V75.752H635.627V61.028H638.147V62.468ZM643.421 65.978C643.421 65.378 643.295 64.862 643.043 64.43C642.803 63.986 642.479 63.65 642.071 63.422C641.675 63.194 641.243 63.08 640.775 63.08C640.319 63.08 639.887 63.2 639.479 63.44C639.083 63.668 638.759 64.004 638.507 64.448C638.267 64.892 638.147 65.414 638.147 66.014C638.147 66.614 638.267 67.136 638.507 67.58C638.759 68.024 639.083 68.366 639.479 68.606C639.887 68.834 640.319 68.948 640.775 68.948C641.243 68.948 641.675 68.828 642.071 68.588C642.479 68.348 642.803 68.006 643.043 67.562C643.295 67.118 643.421 66.59 643.421 65.978ZM660.21 60.884C661.434 60.884 662.418 61.262 663.162 62.018C663.918 62.762 664.296 63.806 664.296 65.15V71H661.776V65.492C661.776 64.712 661.578 64.118 661.182 63.71C660.786 63.29 660.246 63.08 659.562 63.08C658.878 63.08 658.332 63.29 657.924 63.71C657.528 64.118 657.33 64.712 657.33 65.492V71H654.81V65.492C654.81 64.712 654.612 64.118 654.216 63.71C653.82 63.29 653.28 63.08 652.596 63.08C651.9 63.08 651.348 63.29 650.94 63.71C650.544 64.118 650.346 64.712 650.346 65.492V71H647.826V61.028H650.346V62.234C650.67 61.814 651.084 61.484 651.588 61.244C652.104 61.004 652.668 60.884 653.28 60.884C654.06 60.884 654.756 61.052 655.368 61.388C655.98 61.712 656.454 62.18 656.79 62.792C657.114 62.216 657.582 61.754 658.194 61.406C658.818 61.058 659.49 60.884 660.21 60.884ZM675.957 65.798C675.957 66.158 675.933 66.482 675.885 66.77H668.595C668.655 67.49 668.907 68.054 669.351 68.462C669.795 68.87 670.341 69.074 670.989 69.074C671.925 69.074 672.591 68.672 672.987 67.868H675.705C675.417 68.828 674.865 69.62 674.049 70.244C673.233 70.856 672.231 71.162 671.043 71.162C670.083 71.162 669.219 70.952 668.451 70.532C667.695 70.1 667.101 69.494 666.669 68.714C666.249 67.934 666.039 67.034 666.039 66.014C666.039 64.982 666.249 64.076 666.669 63.296C667.089 62.516 667.677 61.916 668.433 61.496C669.189 61.076 670.059 60.866 671.043 60.866C671.991 60.866 672.837 61.07 673.581 61.478C674.337 61.886 674.919 62.468 675.327 63.224C675.747 63.968 675.957 64.826 675.957 65.798ZM673.347 65.078C673.335 64.43 673.101 63.914 672.645 63.53C672.189 63.134 671.631 62.936 670.971 62.936C670.347 62.936 669.819 63.128 669.387 63.512C668.967 63.884 668.709 64.406 668.613 65.078H673.347ZM683.323 60.884C684.511 60.884 685.471 61.262 686.203 62.018C686.935 62.762 687.301 63.806 687.301 65.15V71H684.781V65.492C684.781 64.7 684.583 64.094 684.187 63.674C683.791 63.242 683.251 63.026 682.567 63.026C681.871 63.026 681.319 63.242 680.911 63.674C680.515 64.094 680.317 64.7 680.317 65.492V71H677.797V61.028H680.317V62.27C680.653 61.838 681.079 61.502 681.595 61.262C682.123 61.01 682.699 60.884 683.323 60.884ZM692.631 63.098V67.922C692.631 68.258 692.709 68.504 692.865 68.66C693.033 68.804 693.309 68.876 693.693 68.876H694.863V71H693.279C691.155 71 690.093 69.968 690.093 67.904V63.098H688.905V61.028H690.093V58.562H692.631V61.028H694.863V63.098H692.631Z" fill="#2A4672"/>
<path d="M698.903 60.9608C698.903 59.7152 699.127 58.7396 699.573 58.034C700.027 57.3284 700.775 56.9756 701.819 56.9756C702.863 56.9756 703.609 57.3284 704.055 58.034C704.509 58.7396 704.735 59.7152 704.735 60.9608C704.735 62.2136 704.509 63.1964 704.055 63.9092C703.609 64.622 702.863 64.9784 701.819 64.9784C700.775 64.9784 700.027 64.622 699.573 63.9092C699.127 63.1964 698.903 62.2136 698.903 60.9608ZM703.245 60.9608C703.245 60.428 703.209 59.9816 703.137 59.6216C703.072 59.2544 702.935 58.9556 702.727 58.7252C702.525 58.4948 702.223 58.3796 701.819 58.3796C701.416 58.3796 701.11 58.4948 700.901 58.7252C700.7 58.9556 700.563 59.2544 700.491 59.6216C700.426 59.9816 700.394 60.428 700.394 60.9608C700.394 61.508 700.426 61.9688 700.491 62.3432C700.556 62.7104 700.693 63.0092 700.901 63.2396C701.11 63.4628 701.416 63.5744 701.819 63.5744C702.223 63.5744 702.529 63.4628 702.737 63.2396C702.946 63.0092 703.083 62.7104 703.148 62.3432C703.213 61.9688 703.245 61.508 703.245 60.9608ZM706.231 59.2004C706.267 58.4804 706.519 57.926 706.987 57.5372C707.462 57.1412 708.085 56.9432 708.855 56.9432C709.381 56.9432 709.831 57.0368 710.205 57.224C710.58 57.404 710.861 57.6524 711.048 57.9692C711.242 58.2788 711.339 58.6316 711.339 59.0276C711.339 59.4812 711.221 59.8664 710.983 60.1832C710.753 60.4928 710.475 60.7016 710.151 60.8096V60.8528C710.569 60.9824 710.893 61.2128 711.123 61.544C711.361 61.8752 711.48 62.3 711.48 62.8184C711.48 63.2504 711.379 63.6356 711.177 63.974C710.983 64.3124 710.691 64.5788 710.303 64.7732C709.921 64.9604 709.46 65.054 708.92 65.054C708.107 65.054 707.444 64.8488 706.933 64.4384C706.422 64.028 706.152 63.4232 706.123 62.624H707.592C707.606 62.9768 707.725 63.2612 707.948 63.4772C708.179 63.686 708.492 63.7904 708.888 63.7904C709.255 63.7904 709.536 63.6896 709.73 63.488C709.932 63.2792 710.033 63.0128 710.033 62.6888C710.033 62.2568 709.896 61.9472 709.622 61.76C709.349 61.5728 708.924 61.4792 708.348 61.4792H708.035V60.2372H708.348C709.37 60.2372 709.881 59.8952 709.881 59.2112C709.881 58.9016 709.788 58.6604 709.601 58.4876C709.421 58.3148 709.158 58.2284 708.812 58.2284C708.474 58.2284 708.211 58.322 708.024 58.5092C707.844 58.6892 707.739 58.9196 707.711 59.2004H706.231Z" fill="#46B02D"/>
<circle cx="528" cy="65" r="32" fill="#2A4672"/>
<g clip-path="url(#clip4_85_691)">
<path d="M539.085 69.1418L538.049 68.7739V65.293C538.049 64.8076 537.655 64.4141 537.17 64.4141H534.417C534.552 63.8828 534.621 63.3345 534.621 62.7734H535.5C536.954 62.7734 538.137 61.5906 538.137 60.1367C538.137 58.6828 536.954 57.5 535.5 57.5H534.683C535.976 56.7483 536.848 55.3488 536.848 53.7487V50.8789C536.848 50.3935 536.454 50 535.969 50H525.716C523.325 50 521.379 51.9457 521.379 54.3372V57.207V57.5H520.5C519.046 57.5 517.863 58.6828 517.863 60.1367C517.863 61.5906 519.046 62.7734 520.5 62.7734H521.379C521.379 63.3346 521.448 63.8829 521.583 64.4141H518.83C518.345 64.4141 517.951 64.8076 517.951 65.293V68.7739L516.915 69.1418C514.573 69.9731 513 72.2013 513 74.6863V79.1211C513 79.6065 513.394 80 513.879 80H542.121C542.606 80 543 79.6065 543 79.1211V74.6863C543 72.2013 541.427 69.9731 539.085 69.1418ZM536.379 60.1367C536.379 60.6213 535.985 61.0156 535.5 61.0156H534.621V59.2578H535.5C535.985 59.2578 536.379 59.6521 536.379 60.1367ZM523.137 54.3372C523.137 52.9149 524.294 51.7578 525.716 51.7578H535.09V53.7487C535.09 55.171 533.933 56.3281 532.51 56.3281H523.137V54.3372ZM520.5 61.0156C520.015 61.0156 519.621 60.6213 519.621 60.1367C519.621 59.6521 520.015 59.2578 520.5 59.2578H521.379V61.0156H520.5ZM523.137 62.7734V61.8945V58.0859C523.137 58.0859 532.747 58.0798 532.863 58.0704V61.8945C532.876 62.7136 532.884 63.6511 532.58 64.4141H523.42C523.232 63.8913 523.137 63.3416 523.137 62.7734ZM519.709 66.1719H536.291V78.2422H519.709V66.1719ZM514.758 74.6863C514.743 72.7563 516.114 71.1307 517.951 70.6392V78.2422H514.758V74.6863ZM541.242 78.2422H538.049V70.6392C539.886 71.1306 541.257 72.7565 541.242 74.6863V78.2422Z" fill="white"/>
<path d="M532.43 69.7398C532.087 69.3966 531.53 69.3966 531.187 69.7398C530.844 70.083 530.844 70.6395 531.187 70.9828L532.411 72.207L531.187 73.4312C530.844 73.7744 530.844 74.3309 531.187 74.6742C531.53 75.0174 532.087 75.0174 532.43 74.6742L534.276 72.8285C534.619 72.4853 534.619 71.9288 534.276 71.5855L532.43 69.7398Z" fill="white"/>
<path d="M524.813 69.7398C524.47 69.3966 523.913 69.3966 523.57 69.7398L521.724 71.5855C521.381 71.9287 521.381 72.4852 521.724 72.8285L523.57 74.6742C523.742 74.8458 523.966 74.9316 524.191 74.9316C524.416 74.9316 524.641 74.8458 524.813 74.6742C525.156 74.331 525.156 73.7745 524.813 73.4312L523.589 72.207L524.813 70.9827C525.156 70.6395 525.156 70.083 524.813 69.7398Z" fill="white"/>
<path d="M529.04 68.1349C528.569 68.0149 528.091 68.2988 527.971 68.769L526.326 75.2107C526.206 75.681 526.49 76.1597 526.96 76.2797C527.418 76.4006 527.911 76.1196 528.029 75.6456L529.674 69.2039C529.794 68.7337 529.51 68.255 529.04 68.1349Z" fill="white"/>
<path d="M525.773 61.6016C526.259 61.6016 526.652 61.2081 526.652 60.7227C526.652 60.2372 526.259 59.8438 525.773 59.8438C525.288 59.8438 524.895 60.2372 524.895 60.7227C524.895 61.2081 525.288 61.6016 525.773 61.6016Z" fill="white"/>
<path d="M530.227 61.6016C530.712 61.6016 531.105 61.2081 531.105 60.7227C531.105 60.2372 530.712 59.8438 530.227 59.8438C529.741 59.8438 529.348 60.2372 529.348 60.7227C529.348 61.2081 529.741 61.6016 530.227 61.6016Z" fill="white"/>
</g>
<path d="M341.634 58.436C342.954 58.436 344.112 58.694 345.108 59.21C346.116 59.726 346.89 60.464 347.43 61.424C347.982 62.372 348.258 63.476 348.258 64.736C348.258 65.996 347.982 67.1 347.43 68.048C346.89 68.984 346.116 69.71 345.108 70.226C344.112 70.742 342.954 71 341.634 71H337.242V58.436H341.634ZM341.544 68.858C342.864 68.858 343.884 68.498 344.604 67.778C345.324 67.058 345.684 66.044 345.684 64.736C345.684 63.428 345.324 62.408 344.604 61.676C343.884 60.932 342.864 60.56 341.544 60.56H339.762V68.858H341.544ZM359.414 65.798C359.414 66.158 359.39 66.482 359.342 66.77H352.052C352.112 67.49 352.364 68.054 352.808 68.462C353.252 68.87 353.798 69.074 354.446 69.074C355.382 69.074 356.048 68.672 356.444 67.868H359.162C358.874 68.828 358.322 69.62 357.506 70.244C356.69 70.856 355.688 71.162 354.5 71.162C353.54 71.162 352.676 70.952 351.908 70.532C351.152 70.1 350.558 69.494 350.126 68.714C349.706 67.934 349.496 67.034 349.496 66.014C349.496 64.982 349.706 64.076 350.126 63.296C350.546 62.516 351.134 61.916 351.89 61.496C352.646 61.076 353.516 60.866 354.5 60.866C355.448 60.866 356.294 61.07 357.038 61.478C357.794 61.886 358.376 62.468 358.784 63.224C359.204 63.968 359.414 64.826 359.414 65.798ZM356.804 65.078C356.792 64.43 356.558 63.914 356.102 63.53C355.646 63.134 355.088 62.936 354.428 62.936C353.804 62.936 353.276 63.128 352.844 63.512C352.424 63.884 352.166 64.406 352.07 65.078H356.804ZM365.07 71.162C364.254 71.162 363.522 71.018 362.874 70.73C362.226 70.43 361.71 70.028 361.326 69.524C360.954 69.02 360.75 68.462 360.714 67.85H363.252C363.3 68.234 363.486 68.552 363.81 68.804C364.146 69.056 364.56 69.182 365.052 69.182C365.532 69.182 365.904 69.086 366.168 68.894C366.444 68.702 366.582 68.456 366.582 68.156C366.582 67.832 366.414 67.592 366.078 67.436C365.754 67.268 365.232 67.088 364.512 66.896C363.768 66.716 363.156 66.53 362.676 66.338C362.208 66.146 361.8 65.852 361.452 65.456C361.116 65.06 360.948 64.526 360.948 63.854C360.948 63.302 361.104 62.798 361.416 62.342C361.74 61.886 362.196 61.526 362.784 61.262C363.384 60.998 364.086 60.866 364.89 60.866C366.078 60.866 367.026 61.166 367.734 61.766C368.442 62.354 368.832 63.152 368.904 64.16H366.492C366.456 63.764 366.288 63.452 365.988 63.224C365.7 62.984 365.31 62.864 364.818 62.864C364.362 62.864 364.008 62.948 363.756 63.116C363.516 63.284 363.396 63.518 363.396 63.818C363.396 64.154 363.564 64.412 363.9 64.592C364.236 64.76 364.758 64.934 365.466 65.114C366.186 65.294 366.78 65.48 367.248 65.672C367.716 65.864 368.118 66.164 368.454 66.572C368.802 66.968 368.982 67.496 368.994 68.156C368.994 68.732 368.832 69.248 368.508 69.704C368.196 70.16 367.74 70.52 367.14 70.784C366.552 71.036 365.862 71.162 365.07 71.162ZM372.34 59.84C371.896 59.84 371.524 59.702 371.224 59.426C370.936 59.138 370.792 58.784 370.792 58.364C370.792 57.944 370.936 57.596 371.224 57.32C371.524 57.032 371.896 56.888 372.34 56.888C372.784 56.888 373.15 57.032 373.438 57.32C373.738 57.596 373.888 57.944 373.888 58.364C373.888 58.784 373.738 59.138 373.438 59.426C373.15 59.702 372.784 59.84 372.34 59.84ZM373.582 61.028V71H371.062V61.028H373.582ZM379.978 60.866C380.722 60.866 381.376 61.016 381.94 61.316C382.504 61.604 382.948 61.982 383.272 62.45V61.028H385.81V71.072C385.81 71.996 385.624 72.818 385.252 73.538C384.88 74.27 384.322 74.846 383.578 75.266C382.834 75.698 381.934 75.914 380.878 75.914C379.462 75.914 378.298 75.584 377.386 74.924C376.486 74.264 375.976 73.364 375.856 72.224H378.358C378.49 72.68 378.772 73.04 379.204 73.304C379.648 73.58 380.182 73.718 380.806 73.718C381.538 73.718 382.132 73.496 382.588 73.052C383.044 72.62 383.272 71.96 383.272 71.072V69.524C382.948 69.992 382.498 70.382 381.922 70.694C381.358 71.006 380.71 71.162 379.978 71.162C379.138 71.162 378.37 70.946 377.674 70.514C376.978 70.082 376.426 69.476 376.018 68.696C375.622 67.904 375.424 66.998 375.424 65.978C375.424 64.97 375.622 64.076 376.018 63.296C376.426 62.516 376.972 61.916 377.656 61.496C378.352 61.076 379.126 60.866 379.978 60.866ZM383.272 66.014C383.272 65.402 383.152 64.88 382.912 64.448C382.672 64.004 382.348 63.668 381.94 63.44C381.532 63.2 381.094 63.08 380.626 63.08C380.158 63.08 379.726 63.194 379.33 63.422C378.934 63.65 378.61 63.986 378.358 64.43C378.118 64.862 377.998 65.378 377.998 65.978C377.998 66.578 378.118 67.106 378.358 67.562C378.61 68.006 378.934 68.348 379.33 68.588C379.738 68.828 380.17 68.948 380.626 68.948C381.094 68.948 381.532 68.834 381.94 68.606C382.348 68.366 382.672 68.03 382.912 67.598C383.152 67.154 383.272 66.626 383.272 66.014ZM393.797 60.884C394.985 60.884 395.945 61.262 396.677 62.018C397.409 62.762 397.775 63.806 397.775 65.15V71H395.255V65.492C395.255 64.7 395.057 64.094 394.661 63.674C394.265 63.242 393.725 63.026 393.041 63.026C392.345 63.026 391.793 63.242 391.385 63.674C390.989 64.094 390.791 64.7 390.791 65.492V71H388.271V61.028H390.791V62.27C391.127 61.838 391.553 61.502 392.069 61.262C392.597 61.01 393.173 60.884 393.797 60.884Z" fill="#2A4672"/>
<path d="M402.4 60.9608C402.4 59.7152 402.623 58.7396 403.069 58.034C403.523 57.3284 404.272 56.9756 405.316 56.9756C406.36 56.9756 407.105 57.3284 407.551 58.034C408.005 58.7396 408.232 59.7152 408.232 60.9608C408.232 62.2136 408.005 63.1964 407.551 63.9092C407.105 64.622 406.36 64.9784 405.316 64.9784C404.272 64.9784 403.523 64.622 403.069 63.9092C402.623 63.1964 402.4 62.2136 402.4 60.9608ZM406.741 60.9608C406.741 60.428 406.705 59.9816 406.633 59.6216C406.568 59.2544 406.432 58.9556 406.223 58.7252C406.021 58.4948 405.719 58.3796 405.316 58.3796C404.912 58.3796 404.606 58.4948 404.398 58.7252C404.196 58.9556 404.059 59.2544 403.987 59.6216C403.922 59.9816 403.89 60.428 403.89 60.9608C403.89 61.508 403.922 61.9688 403.987 62.3432C404.052 62.7104 404.189 63.0092 404.398 63.2396C404.606 63.4628 404.912 63.5744 405.316 63.5744C405.719 63.5744 406.025 63.4628 406.234 63.2396C406.442 63.0092 406.579 62.7104 406.644 62.3432C406.709 61.9688 406.741 61.508 406.741 60.9608ZM410.181 63.2936C410.872 62.7176 411.423 62.2388 411.833 61.8572C412.244 61.4684 412.586 61.0652 412.859 60.6476C413.133 60.23 413.27 59.8196 413.27 59.4164C413.27 59.0492 413.183 58.7612 413.01 58.5524C412.838 58.3436 412.571 58.2392 412.211 58.2392C411.851 58.2392 411.574 58.3616 411.38 58.6064C411.185 58.844 411.084 59.1716 411.077 59.5892H409.608C409.637 58.7252 409.893 58.07 410.375 57.6236C410.865 57.1772 411.484 56.954 412.233 56.954C413.054 56.954 413.684 57.1736 414.123 57.6128C414.562 58.0448 414.782 58.6172 414.782 59.33C414.782 59.8916 414.63 60.428 414.328 60.9392C414.026 61.4504 413.68 61.8968 413.291 62.2784C412.902 62.6528 412.395 63.1064 411.768 63.6392H414.954V64.892H409.619V63.7688L410.181 63.2936Z" fill="#46B02D"/>
<circle cx="292" cy="65" r="32" fill="#2A4672"/>
<g clip-path="url(#clip5_85_691)">
<path d="M290.125 50H277.938C277.452 50 277.059 50.3935 277.059 50.8789V66.4062C277.059 66.8916 277.452 67.2852 277.938 67.2852H290.125C290.61 67.2852 291.004 66.8916 291.004 66.4062V50.8789C291.004 50.3935 290.61 50 290.125 50ZM289.246 65.5273H278.816V51.7578H289.246V65.5273Z" fill="white"/>
<path d="M290.125 69.2773H277.938C277.452 69.2773 277.059 69.6709 277.059 70.1562V79.1211C277.059 79.6065 277.452 80 277.938 80H290.125C290.61 80 291.004 79.6065 291.004 79.1211V70.1562C291.004 69.6709 290.61 69.2773 290.125 69.2773ZM289.246 78.2422H278.816V71.0352H289.246V78.2422Z" fill="white"/>
<path d="M306.062 62.7148H293.875C293.39 62.7148 292.996 63.1084 292.996 63.5938V79.1211C292.996 79.6065 293.39 80 293.875 80H306.062C306.548 80 306.941 79.6065 306.941 79.1211V63.5938C306.941 63.1084 306.548 62.7148 306.062 62.7148ZM305.184 78.2422H294.754V64.4727H305.184V78.2422Z" fill="white"/>
<path d="M306.062 50H293.875C293.39 50 292.996 50.3935 292.996 50.8789V59.8438C292.996 60.3291 293.39 60.7227 293.875 60.7227H306.062C306.548 60.7227 306.941 60.3291 306.941 59.8438C306.941 58.5915 306.941 52.7087 306.941 50.8789C306.941 50.3935 306.548 50 306.062 50ZM305.184 51.7578V56.7844L302.465 54.066C302.122 53.7228 301.565 53.7228 301.222 54.066L299.5 55.7883L297.778 54.066C297.435 53.7228 296.878 53.7228 296.535 54.066L294.754 55.8469V51.7578H305.184ZM294.754 58.3328L297.156 55.9304L298.257 57.0312L296.323 58.9648H294.754V58.3328ZM298.809 58.9648C299.149 58.6248 301.496 56.2783 301.844 55.9304L304.878 58.9648H298.809Z" fill="white"/>
<path d="M281.688 56.0352H283.152V58.9648C283.152 59.4502 283.546 59.8438 284.031 59.8438C284.517 59.8438 284.91 59.4502 284.91 58.9648V56.0352H286.375C286.86 56.0352 287.254 55.6416 287.254 55.1562C287.254 54.6709 286.86 54.2773 286.375 54.2773H281.688C281.202 54.2773 280.809 54.6709 280.809 55.1562C280.809 55.6416 281.202 56.0352 281.688 56.0352Z" fill="white"/>
<path d="M281.688 63.125H286.375C286.86 63.125 287.254 62.7315 287.254 62.2461C287.254 61.7607 286.86 61.3672 286.375 61.3672H281.688C281.202 61.3672 280.809 61.7607 280.809 62.2461C280.809 62.7315 281.202 63.125 281.688 63.125Z" fill="white"/>
<path d="M297.156 68.2227H302.781C303.267 68.2227 303.66 67.8291 303.66 67.3438C303.66 66.8584 303.267 66.4648 302.781 66.4648H297.156C296.671 66.4648 296.277 66.8584 296.277 67.3438C296.277 67.8291 296.671 68.2227 297.156 68.2227Z" fill="white"/>
<path d="M297.156 71.9727H302.781C303.267 71.9727 303.66 71.5791 303.66 71.0938C303.66 70.6084 303.267 70.2148 302.781 70.2148H297.156C296.671 70.2148 296.277 70.6084 296.277 71.0938C296.277 71.5791 296.671 71.9727 297.156 71.9727Z" fill="white"/>
<path d="M297.156 75.7227H302.781C303.267 75.7227 303.66 75.3291 303.66 74.8438C303.66 74.3584 303.267 73.9648 302.781 73.9648H297.156C296.671 73.9648 296.277 74.3584 296.277 74.8438C296.277 75.3291 296.671 75.7227 297.156 75.7227Z" fill="white"/>
<path d="M282.156 76.6602C282.642 76.6602 283.035 76.2666 283.035 75.7812V73.4375C283.035 72.9521 282.642 72.5586 282.156 72.5586C281.671 72.5586 281.277 72.9521 281.277 73.4375V75.7812C281.277 76.2666 281.671 76.6602 282.156 76.6602Z" fill="white"/>
<path d="M285.906 76.6602C286.392 76.6602 286.785 76.2666 286.785 75.7812V73.4375C286.785 72.9521 286.392 72.5586 285.906 72.5586C285.421 72.5586 285.027 72.9521 285.027 73.4375V75.7812C285.027 76.2666 285.421 76.6602 285.906 76.6602Z" fill="white"/>
</g>
<path d="M102.946 68.606H97.942L97.114 71H94.468L98.986 58.418H101.92L106.438 71H103.774L102.946 68.606ZM102.262 66.59L100.444 61.334L98.626 66.59H102.262ZM112.033 60.866C112.777 60.866 113.431 61.016 113.995 61.316C114.559 61.604 115.003 61.982 115.327 62.45V61.028H117.865V71.072C117.865 71.996 117.679 72.818 117.307 73.538C116.935 74.27 116.377 74.846 115.633 75.266C114.889 75.698 113.989 75.914 112.933 75.914C111.517 75.914 110.353 75.584 109.441 74.924C108.541 74.264 108.031 73.364 107.911 72.224H110.413C110.545 72.68 110.827 73.04 111.259 73.304C111.703 73.58 112.237 73.718 112.861 73.718C113.593 73.718 114.187 73.496 114.643 73.052C115.099 72.62 115.327 71.96 115.327 71.072V69.524C115.003 69.992 114.553 70.382 113.977 70.694C113.413 71.006 112.765 71.162 112.033 71.162C111.193 71.162 110.425 70.946 109.729 70.514C109.033 70.082 108.481 69.476 108.073 68.696C107.677 67.904 107.479 66.998 107.479 65.978C107.479 64.97 107.677 64.076 108.073 63.296C108.481 62.516 109.027 61.916 109.711 61.496C110.407 61.076 111.181 60.866 112.033 60.866ZM115.327 66.014C115.327 65.402 115.207 64.88 114.967 64.448C114.727 64.004 114.403 63.668 113.995 63.44C113.587 63.2 113.149 63.08 112.681 63.08C112.213 63.08 111.781 63.194 111.385 63.422C110.989 63.65 110.665 63.986 110.413 64.43C110.173 64.862 110.053 65.378 110.053 65.978C110.053 66.578 110.173 67.106 110.413 67.562C110.665 68.006 110.989 68.348 111.385 68.588C111.793 68.828 112.225 68.948 112.681 68.948C113.149 68.948 113.587 68.834 113.995 68.606C114.403 68.366 114.727 68.03 114.967 67.598C115.207 67.154 115.327 66.626 115.327 66.014ZM122.846 62.576C123.17 62.048 123.59 61.634 124.106 61.334C124.634 61.034 125.234 60.884 125.906 60.884V63.53H125.24C124.448 63.53 123.848 63.716 123.44 64.088C123.044 64.46 122.846 65.108 122.846 66.032V71H120.326V61.028H122.846V62.576ZM136.873 65.798C136.873 66.158 136.849 66.482 136.801 66.77H129.511C129.571 67.49 129.823 68.054 130.267 68.462C130.711 68.87 131.257 69.074 131.905 69.074C132.841 69.074 133.507 68.672 133.903 67.868H136.621C136.333 68.828 135.781 69.62 134.965 70.244C134.149 70.856 133.147 71.162 131.959 71.162C130.999 71.162 130.135 70.952 129.367 70.532C128.611 70.1 128.017 69.494 127.585 68.714C127.165 67.934 126.955 67.034 126.955 66.014C126.955 64.982 127.165 64.076 127.585 63.296C128.005 62.516 128.593 61.916 129.349 61.496C130.105 61.076 130.975 60.866 131.959 60.866C132.907 60.866 133.753 61.07 134.497 61.478C135.253 61.886 135.835 62.468 136.243 63.224C136.663 63.968 136.873 64.826 136.873 65.798ZM134.263 65.078C134.251 64.43 134.017 63.914 133.561 63.53C133.105 63.134 132.547 62.936 131.887 62.936C131.263 62.936 130.735 63.128 130.303 63.512C129.883 63.884 129.625 64.406 129.529 65.078H134.263ZM147.983 65.798C147.983 66.158 147.959 66.482 147.911 66.77H140.621C140.681 67.49 140.933 68.054 141.377 68.462C141.821 68.87 142.367 69.074 143.015 69.074C143.951 69.074 144.617 68.672 145.013 67.868H147.731C147.443 68.828 146.891 69.62 146.075 70.244C145.259 70.856 144.257 71.162 143.069 71.162C142.109 71.162 141.245 70.952 140.477 70.532C139.721 70.1 139.127 69.494 138.695 68.714C138.275 67.934 138.065 67.034 138.065 66.014C138.065 64.982 138.275 64.076 138.695 63.296C139.115 62.516 139.703 61.916 140.459 61.496C141.215 61.076 142.085 60.866 143.069 60.866C144.017 60.866 144.863 61.07 145.607 61.478C146.363 61.886 146.945 62.468 147.353 63.224C147.773 63.968 147.983 64.826 147.983 65.798ZM145.373 65.078C145.361 64.43 145.127 63.914 144.671 63.53C144.215 63.134 143.657 62.936 142.997 62.936C142.373 62.936 141.845 63.128 141.413 63.512C140.993 63.884 140.735 64.406 140.639 65.078H145.373ZM162.206 60.884C163.43 60.884 164.414 61.262 165.158 62.018C165.914 62.762 166.292 63.806 166.292 65.15V71H163.772V65.492C163.772 64.712 163.574 64.118 163.178 63.71C162.782 63.29 162.242 63.08 161.558 63.08C160.874 63.08 160.328 63.29 159.92 63.71C159.524 64.118 159.326 64.712 159.326 65.492V71H156.806V65.492C156.806 64.712 156.608 64.118 156.212 63.71C155.816 63.29 155.276 63.08 154.592 63.08C153.896 63.08 153.344 63.29 152.936 63.71C152.54 64.118 152.342 64.712 152.342 65.492V71H149.822V61.028H152.342V62.234C152.666 61.814 153.08 61.484 153.584 61.244C154.1 61.004 154.664 60.884 155.276 60.884C156.056 60.884 156.752 61.052 157.364 61.388C157.976 61.712 158.45 62.18 158.786 62.792C159.11 62.216 159.578 61.754 160.19 61.406C160.814 61.058 161.486 60.884 162.206 60.884ZM177.953 65.798C177.953 66.158 177.929 66.482 177.881 66.77H170.591C170.651 67.49 170.903 68.054 171.347 68.462C171.791 68.87 172.337 69.074 172.985 69.074C173.921 69.074 174.587 68.672 174.983 67.868H177.701C177.413 68.828 176.861 69.62 176.045 70.244C175.229 70.856 174.227 71.162 173.039 71.162C172.079 71.162 171.215 70.952 170.447 70.532C169.691 70.1 169.097 69.494 168.665 68.714C168.245 67.934 168.035 67.034 168.035 66.014C168.035 64.982 168.245 64.076 168.665 63.296C169.085 62.516 169.673 61.916 170.429 61.496C171.185 61.076 172.055 60.866 173.039 60.866C173.987 60.866 174.833 61.07 175.577 61.478C176.333 61.886 176.915 62.468 177.323 63.224C177.743 63.968 177.953 64.826 177.953 65.798ZM175.343 65.078C175.331 64.43 175.097 63.914 174.641 63.53C174.185 63.134 173.627 62.936 172.967 62.936C172.343 62.936 171.815 63.128 171.383 63.512C170.963 63.884 170.705 64.406 170.609 65.078H175.343ZM185.319 60.884C186.507 60.884 187.467 61.262 188.199 62.018C188.931 62.762 189.297 63.806 189.297 65.15V71H186.777V65.492C186.777 64.7 186.579 64.094 186.183 63.674C185.787 63.242 185.247 63.026 184.563 63.026C183.867 63.026 183.315 63.242 182.907 63.674C182.511 64.094 182.313 64.7 182.313 65.492V71H179.793V61.028H182.313V62.27C182.649 61.838 183.075 61.502 183.591 61.262C184.119 61.01 184.695 60.884 185.319 60.884ZM194.627 63.098V67.922C194.627 68.258 194.705 68.504 194.861 68.66C195.029 68.804 195.305 68.876 195.689 68.876H196.859V71H195.275C193.151 71 192.089 69.968 192.089 67.904V63.098H190.901V61.028H192.089V58.562H194.627V61.028H196.859V63.098H194.627Z" fill="#2A4672"/>
<path d="M200.9 60.9608C200.9 59.7152 201.123 58.7396 201.569 58.034C202.023 57.3284 202.772 56.9756 203.816 56.9756C204.86 56.9756 205.605 57.3284 206.051 58.034C206.505 58.7396 206.732 59.7152 206.732 60.9608C206.732 62.2136 206.505 63.1964 206.051 63.9092C205.605 64.622 204.86 64.9784 203.816 64.9784C202.772 64.9784 202.023 64.622 201.569 63.9092C201.123 63.1964 200.9 62.2136 200.9 60.9608ZM205.241 60.9608C205.241 60.428 205.205 59.9816 205.133 59.6216C205.068 59.2544 204.932 58.9556 204.723 58.7252C204.521 58.4948 204.219 58.3796 203.816 58.3796C203.412 58.3796 203.106 58.4948 202.898 58.7252C202.696 58.9556 202.559 59.2544 202.487 59.6216C202.422 59.9816 202.39 60.428 202.39 60.9608C202.39 61.508 202.422 61.9688 202.487 62.3432C202.552 62.7104 202.689 63.0092 202.898 63.2396C203.106 63.4628 203.412 63.5744 203.816 63.5744C204.219 63.5744 204.525 63.4628 204.734 63.2396C204.942 63.0092 205.079 62.7104 205.144 62.3432C205.209 61.9688 205.241 61.508 205.241 60.9608ZM208.022 58.52V57.1268H210.625V65H209.07V58.52H208.022Z" fill="#46B02D"/>
<circle cx="50" cy="65" r="32" fill="#2A4672"/>
<g clip-path="url(#clip6_85_691)">
<path d="M42.6446 64.9375H55.8243C56.9892 64.8943 56.9883 63.2225 55.8243 63.1797H42.6446C41.4797 63.2229 41.4806 64.8947 42.6446 64.9375Z" fill="white"/>
<path d="M42.6446 61.1719H46.4102C47.5751 61.1286 47.5743 59.4569 46.4102 59.4141H42.6446C41.4797 59.4572 41.4806 61.129 42.6446 61.1719Z" fill="white"/>
<path d="M52.9375 67.8242C52.9375 67.3388 52.544 66.9453 52.0586 66.9453H42.6446C41.4797 66.9886 41.4806 68.6603 42.6446 68.7031H52.0587C52.544 68.7031 52.9375 68.3096 52.9375 67.8242Z" fill="white"/>
<path d="M66.9614 61.3929C66.3026 60.7336 65.3897 60.3554 64.4569 60.3554C64.2237 60.3554 64 60.4481 63.8352 60.6131C63.8352 60.6131 63.8352 60.6131 60.4688 63.9813V56.5273C60.4688 56.2942 60.3762 56.0707 60.2113 55.9059L54.5629 50.2575C54.398 50.0926 54.1745 50 53.9414 50H38.8789C38.3935 50 38 50.3935 38 50.8789V79.1211C38 79.6065 38.3935 80 38.8789 80H59.5899C60.0753 80 60.4688 79.6065 60.4688 79.1211V71.7936C60.4688 71.7936 67.7425 64.5187 67.7425 64.5187C67.9074 64.3538 68.0001 64.1298 68.0001 63.8967C68 62.9659 67.6214 62.0533 66.9614 61.3929ZM54.8203 53.0008L57.468 55.6484H54.8203V53.0008ZM58.711 78.2422H39.7578V51.7578H53.0625V56.5273C53.0625 57.0127 53.456 57.4062 53.9414 57.4062H58.7109V65.7396L56.144 68.3059C54.8599 69.5905 54.113 71.2684 54.0153 73.0673C53.6916 73.2629 52.9414 73.5567 51.9961 73.5341C51.9937 73.1828 52.0116 72.7674 51.7307 72.3379C51.4275 71.8829 50.9043 71.6523 50.1757 71.6523C48.9069 71.6523 47.7941 72.7285 47.6714 72.8512C47.3282 73.1944 47.3282 73.7509 47.6714 74.0941C48.0146 74.4373 48.5711 74.4373 48.9144 74.0941C49.1438 73.8679 49.7841 73.374 50.2381 73.4113C50.2405 73.7625 50.2226 74.1779 50.5035 74.6074C50.8068 75.0623 51.33 75.2929 52.0585 75.2929C53.7757 75.2929 54.8444 74.6608 55.2759 74.3404C56.4919 74.2735 57.6778 73.8981 58.7108 73.2656V78.2422H58.711ZM58.8082 70.9686C58.0042 71.7729 56.9587 72.3101 55.8447 72.5084C56.039 71.3933 56.57 70.3662 57.3869 69.549L64.7894 62.145C65.1385 62.212 65.4654 62.3827 65.7181 62.6354C65.9717 62.8893 66.143 63.2163 66.2103 63.5649L58.8082 70.9686Z" fill="white"/>
</g>
</g>
<defs>
<clipPath id="clip0_85_691">
<rect width="896" height="334" fill="white"/>
</clipPath>
<clipPath id="clip1_85_691">
<rect width="30" height="30" fill="white" transform="translate(17 257)"/>
</clipPath>
<clipPath id="clip2_85_691">
<rect width="30" height="30" fill="white" transform="translate(237 257)"/>
</clipPath>
<clipPath id="clip3_85_691">
<rect width="30" height="30" fill="white" transform="translate(461 257)"/>
</clipPath>
<clipPath id="clip4_85_691">
<rect width="30" height="30" fill="white" transform="translate(513 50)"/>
</clipPath>
<clipPath id="clip5_85_691">
<rect width="30" height="30" fill="white" transform="translate(277 50)"/>
</clipPath>
<clipPath id="clip6_85_691">
<rect width="30" height="30" fill="white" transform="translate(38 50)"/>
</clipPath>
</defs>
</svg>
